SplineFontDB: 3.0
FontName: Topmarks-Book
FullName: Topmarks Book
FamilyName: Topmarks
Weight: Medium
Copyright: Copyright (c) 2012-13 by vernon adams. All rights reserved.
Version: 
ItalicAngle: 0
UnderlinePosition: 0
UnderlineWidth: 0
Ascent: 1638
Descent: 410
UFOAscent: 1638
UFODescent: -410
LayerCount: 2
Layer: 0 0 "Back"  1
Layer: 1 0 "Fore"  0
OS2Version: 0
OS2_WeightWidthSlopeOnly: 0
OS2_UseTypoMetrics: 0
CreationTime: 1364014939
ModificationTime: 1364015117
PfmFamily: 0
TTFWeight: 400
TTFWidth: 5
LineGap: 0
VLineGap: 0
OS2TypoAscent: 0
OS2TypoAOffset: 1
OS2TypoDescent: 0
OS2TypoDOffset: 1
OS2TypoLinegap: 0
OS2WinAscent: 1638
OS2WinAOffset: 0
OS2WinDescent: 410
OS2WinDOffset: 0
HheadAscent: 0
HheadAOffset: 1
HheadDescent: 0
HheadDOffset: 1
OS2Vendor: 'newt'
Lookup: 258 0 0 "'kern' Horizontal Kerning in Latin lookup 0"  {"'kern' Horizontal Kerning in Latin lookup 0 subtable"  } ['kern' ('latn' <'dflt' > ) ]
Lookup: 258 0 0 "kernHorizontalKerninglookup1"  {"kernHorizontalKerninglookup1 per glyph data 0"  "kernHorizontalKerninglookup1 kerning class 1"  } ['kern' ('latn' <'dflt' > 'DFLT' <'dflt' > ) ]
Lookup: 260 0 0 "markMarkPositioninglookup0"  {"markMarkPositioninglookup0 subtable"  } ['mark' ('latn' <'dflt' > 'grek' <'dflt' > 'DFLT' <'dflt' > ) ]
DEI: 91125
KernClass2: 15 22 "kernHorizontalKerninglookup1 kerning class 1" 
 89 A Aacute Abreve Acircumflex Adieresis Agrave Amacron Aogonek Aring Atilde uni0200 uni0202
 1 D
 1 F
 14 G Gcommaaccent
 1 K
 1 L
 1 P
 9 T uni021A
 1 V
 1 W
 18 Y Yacute Ydieresis
 24 c cacute ccaron ccedilla
 60 o oacute ocircumflex odieresis ograve otilde uni020D uni020F
 37 r rcaron rcommaaccent uni0211 uni0213
 89 A Aacute Abreve Acircumflex Adieresis Agrave Amacron Aogonek Aring Atilde uni0200 uni0202
 24 C Cacute Ccaron Ccedilla
 14 G Gcommaaccent
 60 O Oacute Ocircumflex Odieresis Ograve Otilde uni020C uni020E
 9 T uni021A
 1 V
 1 W
 18 Y Yacute Ydieresis

StartChar: A
Encoding: 65 65 1
Width: 1395
VWidth: 0
GlyphClass: 2
Flags: W
AnchorPoint: "top" 698 1456 basechar 0
AnchorPoint: "bottom" 741 0 basechar 0
AnchorPoint: "ogonek" 1265 0 basechar 0
LayerCount: 2
UndoRedoHistory
Layer: 0
Undoes
EndUndoes
Redoes
EndRedoes
EndUndoRedoHistory
UndoRedoHistory
Layer: 1
Undoes
EndUndoes
Redoes
EndRedoes
EndUndoRedoHistory
Fore
SplineSet
39 0 m 1
 225 0 l 1
 374 395 l 1
 1015 395 l 1
 1165 0 l 1
 1356 0 l 1
 786 1456 l 1
 608 1456 l 1
 39 0 l 1
426 531 m 1
 595 996 l 1
 697 1271 l 1
 793 997 l 1
 963 531 l 1
 426 531 l 1
EndSplineSet
EndChar

StartChar: AE
Encoding: 198 198 2
Width: 1981
VWidth: 0
GlyphClass: 2
Flags: HW
HStem: 0 148<1227 1855 1227 1855 1227 1855> 398 148<506 506 506 1032> 672 148<1187 1791 1169 1791> 1308 148<926 974 974 974 1133 1832 823 1832>
LayerCount: 2
UndoRedoHistory
Layer: 0
Undoes
EndUndoes
Redoes
EndRedoes
EndUndoRedoHistory
UndoRedoHistory
Layer: 1
Undoes
EndUndoes
Redoes
EndRedoes
EndUndoRedoHistory
Fore
SplineSet
15 0 m 1
 211 0 l 1
 430 398 l 1
 1050 398 l 1
 1080 0 l 1
 1855 0 l 1
 1855 148 l 1
 1227 148 l 1
 1187 672 l 1
 1791 672 l 1
 1791 820 l 1
 1169 820 l 1
 1133 1308 l 1
 1832 1308 l 1
 1832 1456 l 1
 823 1456 l 1
 15 0 l 1
506 546 m 1
 926 1308 l 1
 974 1308 l 1
 1032 546 l 1
 506 546 l 1
EndSplineSet
EndChar

StartChar: B
Encoding: 66 66 12
Width: 1296
VWidth: 0
GlyphClass: 2
Flags: HW
HStem: 0 138<372 628 628 634> 684 141<372 555 555 584 372 555> 1318 138<372 571 372 372>
VStem: 184 172 917 181 982 182
AnchorPoint: "top" 710 1456 basechar 0
AnchorPoint: "bottom" 686 0 basechar 0
LayerCount: 2
UndoRedoHistory
Layer: 0
Undoes
EndUndoes
Redoes
EndRedoes
EndUndoRedoHistory
UndoRedoHistory
Layer: 1
Undoes
EndUndoes
Redoes
EndRedoes
EndUndoRedoHistory
Fore
SplineSet
200 0 m 1
 200 1456 l 1
 571 1456 l 2
 931 1456 1114 1357 1114 1105 c 0
 1114 918 1039 823 881 769 c 1
 1077 730 1180 625 1180 403 c 0
 1180 114 967 0 634 0 c 2
 200 0 l 1
372 138 m 1
 628 138 l 2
 885 138 998 214 998 406 c 0
 998 602 881 684 584 684 c 2
 372 684 l 1
 372 138 l 1
372 825 m 1
 555 825 l 2
 826 825 933 898 933 1077 c 0
 933 1250 833 1318 571 1318 c 2
 372 1318 l 1
 372 825 l 1
EndSplineSet
EndChar

StartChar: C
Encoding: 67 67 13
Width: 1370
VWidth: 0
GlyphClass: 2
Flags: HW
HStem: -22 152<656.5 895.5 656.5 901.5> 1331 152<658.5 890.5>
VStem: 122 183<546 890 546 941.5>
AnchorPoint: "top" 800 1456 basechar 0
AnchorPoint: "bottom" 836 0 basechar 0
LayerCount: 2
UndoRedoHistory
Layer: 0
Undoes
EndUndoes
Redoes
EndRedoes
EndUndoRedoHistory
UndoRedoHistory
Layer: 1
Undoes
EndUndoes
Redoes
EndRedoes
EndUndoRedoHistory
Fore
SplineSet
810 -22 m 0
 415 -22 122 260 122 722 c 0
 122 1161 400 1483 808 1483 c 0
 1003 1483 1143 1425 1261 1332 c 1
 1183 1210 l 1
 1079 1288 955 1331 826 1331 c 0
 491 1331 305 1058 305 722 c 0
 305 370 496 130 817 130 c 0
 974 130 1108 178 1223 271 c 1
 1283 129 l 1
 1154 29 993 -22 810 -22 c 0
EndSplineSet
EndChar

StartChar: D
Encoding: 68 68 19
Width: 1513
VWidth: 0
GlyphClass: 2
Flags: HW
HStem: 0 138<372 607> 1318 138<372 509 509 529 372 372>
VStem: 184 172 1204 182
AnchorPoint: "top" 710 1456 basechar 0
AnchorPoint: "bottom" 686 0 basechar 0
LayerCount: 2
UndoRedoHistory
Layer: 0
Undoes
EndUndoes
Redoes
EndRedoes
EndUndoRedoHistory
UndoRedoHistory
Layer: 1
Undoes
EndUndoes
Redoes
EndRedoes
EndUndoRedoHistory
Fore
SplineSet
372 138 m 1
 623 138 l 2
 993 138 1220 334 1220 721 c 0
 1220 1178 961 1318 529 1318 c 2
 372 1318 l 1
 372 138 l 1
200 0 m 1
 200 1456 l 1
 509 1456 l 2
 1035 1456 1402 1273 1402 724 c 0
 1402 241 1073 0 607 0 c 2
 200 0 l 1
EndSplineSet
EndChar

StartChar: Delta
Encoding: 916 916 21
Width: 1294
VWidth: 0
GlyphClass: 2
Flags: HW
HStem: 0 162<279 279 279 1014>
LayerCount: 2
UndoRedoHistory
Layer: 0
Undoes
EndUndoes
Redoes
EndRedoes
EndUndoRedoHistory
UndoRedoHistory
Layer: 1
Undoes
EndUndoes
Redoes
EndRedoes
EndUndoRedoHistory
Fore
SplineSet
50 0 m 1
 1244 0 l 1
 1244 80 l 1
 735 1429 l 1
 560 1429 l 1
 50 80 l 1
 50 0 l 1
279 162 m 1
 612 1111 l 1
 643 1218 l 1
 675 1111 l 1
 1014 162 l 1
 279 162 l 1
EndSplineSet
EndChar

StartChar: E
Encoding: 69 69 22
Width: 1192
VWidth: 0
GlyphClass: 2
Flags: HW
HStem: 0 138<372 1097 372 1097> 672 148<372 1009 372 1009> 1318 138<372 1047 372 372>
VStem: 184 172
AnchorPoint: "top" 666 1456 basechar 0
AnchorPoint: "bottom" 836 0 basechar 0
AnchorPoint: "ogonek" 860 0 basechar 0
LayerCount: 2
UndoRedoHistory
Layer: 0
Undoes
EndUndoes
Redoes
EndRedoes
EndUndoRedoHistory
UndoRedoHistory
Layer: 1
Undoes
EndUndoes
Redoes
EndRedoes
EndUndoRedoHistory
Fore
SplineSet
200 0 m 1
 200 1456 l 1
 1047 1456 l 1
 1047 1318 l 1
 372 1318 l 1
 372 820 l 1
 1009 820 l 1
 1009 672 l 1
 372 672 l 1
 372 138 l 1
 1097 138 l 1
 1097 0 l 1
 200 0 l 1
EndSplineSet
EndChar

StartChar: Eth
Encoding: 208 208 32
Width: 1556
VWidth: 0
GlyphClass: 2
Flags: HW
HStem: 0 148<375 620> 658 137<9 203 9 203 375 581> 1308 148<375 518 518 539 375 375>
VStem: 203 172<148 148 148 658 795 1308> 1258 182<679.5 884.5>
LayerCount: 2
UndoRedoHistory
Layer: 0
Undoes
EndUndoes
Redoes
EndRedoes
EndUndoRedoHistory
UndoRedoHistory
Layer: 1
Undoes
EndUndoes
Redoes
EndRedoes
EndUndoRedoHistory
Fore
SplineSet
375 148 m 1
 636 148 l 2
 939 148 1141 268 1220 490 c 0
 1245 560 1258 638 1258 721 c 0
 1258 1048 1117 1218 850 1278 c 0
 760 1298 657 1308 539 1308 c 2
 375 1308 l 1
 375 795 l 1
 581 795 l 1
 581 658 l 1
 375 658 l 1
 375 148 l 1
203 0 m 1
 203 658 l 1
 9 658 l 1
 9 795 l 1
 203 795 l 1
 203 1456 l 1
 518 1456 l 2
 1066 1456 1440 1273 1440 724 c 0
 1440 359 1244 144 966 51 c 0
 864 17 749 0 620 0 c 2
 203 0 l 1
EndSplineSet
EndChar

StartChar: Euro
Encoding: 8364 8364 33
Width: 1180
VWidth: 0
GlyphClass: 2
Flags: HW
HStem: -21 146<642 813.5> 516 138<108 210 108 223 108 223 401 925 925 925> 784 138<107 209 209 209 404 958 958 958> 1303 145<739 837.5>
VStem: 209 176<761 784>
LayerCount: 2
UndoRedoHistory
Layer: 0
Undoes
EndUndoes
Redoes
EndRedoes
EndUndoRedoHistory
UndoRedoHistory
Layer: 1
Undoes
EndUndoes
Redoes
EndRedoes
EndUndoRedoHistory
Fore
SplineSet
746 -21 m 0
 881 -21 985 14 1074 75 c 1
 1075 253 l 1
 986 184 891 125 761 125 c 0
 523 125 428 297 401 516 c 1
 925 516 l 1
 944 654 l 1
 388 654 l 1
 386 702 l 2
 385 720 384 742 385 761 c 1
 385 773 l 2
 385 777 386 781 387 784 c 1
 958 784 l 1
 978 922 l 1
 404 922 l 1
 444 1116 544 1303 770 1303 c 0
 905 1303 1000 1232 1061 1141 c 1
 1097 1330 l 1
 1019 1404 919 1448 777 1448 c 0
 701 1448 631 1435 571 1409 c 0
 386 1330 270 1153 228 922 c 1
 107 922 l 1
 85 784 l 1
 209 784 l 1
 208 761 207 741 207 719 c 0
 207 694 208 672 210 654 c 1
 108 654 l 1
 88 516 l 1
 223 516 l 1
 261 209 414 -21 746 -21 c 0
EndSplineSet
EndChar

StartChar: F
Encoding: 70 70 34
Width: 1111
VWidth: 0
GlyphClass: 2
Flags: HW
HStem: 0 21<200 200 200 372> 667 148<372 992 372 992> 1318 138<372 1026 372 372>
VStem: 184 172
AnchorPoint: "top" 710 1456 basechar 0
AnchorPoint: "bottom" 686 0 basechar 0
LayerCount: 2
UndoRedoHistory
Layer: 0
Undoes
EndUndoes
Redoes
EndRedoes
EndUndoRedoHistory
UndoRedoHistory
Layer: 1
Undoes
EndUndoes
Redoes
EndRedoes
EndUndoRedoHistory
Fore
SplineSet
200 0 m 1
 200 1456 l 1
 1026 1456 l 1
 1026 1318 l 1
 372 1318 l 1
 372 815 l 1
 992 815 l 1
 992 667 l 1
 372 667 l 1
 372 0 l 1
 200 0 l 1
EndSplineSet
EndChar

StartChar: G
Encoding: 71 71 35
Width: 1486
VWidth: 0
GlyphClass: 2
Flags: HW
HStem: -22 152<668 904 668 928.5> 608 149<804 1151 804 1323> 1331 152<668.5 922.5>
VStem: 122 178<529 891.5 529 933> 1151 172<178 608 608 608>
AnchorPoint: "top" 800 1456 basechar 0
AnchorPoint: "bottom" 836 0 basechar 0
LayerCount: 2
UndoRedoHistory
Layer: 0
Undoes
EndUndoes
Redoes
EndRedoes
EndUndoRedoHistory
UndoRedoHistory
Layer: 1
Undoes
EndUndoes
Redoes
EndRedoes
EndUndoRedoHistory
Fore
SplineSet
833 -22 m 0
 387 -22 122 239 122 701 c 0
 122 1165 398 1483 843 1483 c 0
 1046 1483 1182 1431 1298 1315 c 1
 1226 1198 l 1
 1135 1286 1005 1331 840 1331 c 0
 497 1331 300 1069 300 714 c 0
 300 344 490 130 846 130 c 0
 962 130 1065 142 1151 178 c 1
 1151 608 l 1
 804 608 l 1
 804 757 l 1
 1323 757 l 1
 1323 81 l 1
 1178 13 1024 -22 833 -22 c 0
EndSplineSet
EndChar

StartChar: H
Encoding: 72 72 40
Width: 1504
VWidth: 0
GlyphClass: 2
Flags: W
HStem: 0 21G<195 367 1138 1309> 674 148<367 1138> 1436 20G<195 367 1138 1309>
VStem: 195 172<0 674 822 1456> 1138 171<0 674 822 1456>
AnchorPoint: "top" 739 1456 basechar 0
AnchorPoint: "bottom" 793 0 basechar 0
LayerCount: 2
UndoRedoHistory
Layer: 0
Undoes
EndUndoes
Redoes
EndRedoes
EndUndoRedoHistory
UndoRedoHistory
Layer: 1
Undoes
EndUndoes
Redoes
EndRedoes
EndUndoRedoHistory
Fore
SplineSet
195 0 m 1
 195 1456 l 1
 367 1456 l 1
 367 822 l 1
 1138 822 l 1
 1138 1456 l 1
 1309 1456 l 1
 1309 0 l 1
 1138 0 l 1
 1138 674 l 1
 367 674 l 1
 367 0 l 1
 195 0 l 1
EndSplineSet
EndChar

StartChar: I
Encoding: 73 73 42
Width: 555
VWidth: 0
GlyphClass: 2
Flags: HW
HStem: 0 21<197 197 197 369> 1436 20<197 369 369 369>
VStem: 196 172
AnchorPoint: "top" 299 1456 basechar 0
AnchorPoint: "bottom" 296 1 basechar 0
LayerCount: 2
UndoRedoHistory
Layer: 0
Undoes
EndUndoes
Redoes
EndRedoes
EndUndoRedoHistory
UndoRedoHistory
Layer: 1
Undoes
EndUndoes
Redoes
EndRedoes
EndUndoRedoHistory
Fore
SplineSet
197 0 m 1
 197 1456 l 1
 369 1456 l 1
 369 0 l 1
 197 0 l 1
EndSplineSet
EndChar

StartChar: IJ
Encoding: 306 306 43
Width: 1564
VWidth: 0
GlyphClass: 2
Flags: HW
HStem: 0 21<196 196 196 368> 1314 142<704 1106 1278 1278 1278 1550>
VStem: 196 172<0 1456 0 1456> 1106 172<334 336 336 1314>
LayerCount: 2
UndoRedoHistory
Layer: 0
Undoes
EndUndoes
Redoes
EndRedoes
EndUndoRedoHistory
UndoRedoHistory
Layer: 1
Undoes
EndUndoes
Redoes
EndRedoes
EndUndoRedoHistory
Fore
SplineSet
586 -114 m 1
 636 22 l 1
 921 -111 1106 -35 1106 334 c 2
 1106 1314 l 1
 704 1314 l 1
 704 1456 l 1
 1550 1456 l 1
 1550 1314 l 1
 1278 1314 l 1
 1278 336 l 2
 1278 -176 927 -285 586 -114 c 1
196 0 m 1
 196 1456 l 1
 368 1456 l 1
 368 0 l 1
 196 0 l 1
EndSplineSet
EndChar

StartChar: J
Encoding: 74 74 53
Width: 1031
VWidth: 0
GlyphClass: 2
Flags: HW
HStem: -207 129 1318 138<174 581 581 581 746 1017 174 1017>
VStem: 581 165<251 284 284 1318>
AnchorPoint: "top" 560 1456 basechar 0
LayerCount: 2
UndoRedoHistory
Layer: 0
Undoes
EndUndoes
Redoes
EndRedoes
EndUndoRedoHistory
UndoRedoHistory
Layer: 1
Undoes
EndUndoes
Redoes
EndRedoes
EndUndoRedoHistory
Fore
SplineSet
7 -44 m 1
 92 -150 218 -207 341 -207 c 0
 592 -207 746 -60 746 251 c 2
 746 1318 l 1
 1017 1318 l 1
 1017 1456 l 1
 174 1456 l 1
 174 1318 l 1
 581 1318 l 1
 581 284 l 2
 581 26 502 -60 341 -60 c 0
 256 -60 167 -20 107 61 c 1
 7 -44 l 1
EndSplineSet
EndChar

StartChar: J.alt
Encoding: 65537 -1 54
Width: 938
VWidth: 0
GlyphClass: 2
Flags: HW
HStem: -23 148<291.5 363> 1436 20<582 754 582 582>
VStem: 582 172<392 1456 499 1456 499 1456>
LayerCount: 2
UndoRedoHistory
Layer: 0
Undoes
EndUndoes
Redoes
EndRedoes
EndUndoRedoHistory
UndoRedoHistory
Layer: 1
Undoes
EndUndoes
Redoes
EndRedoes
EndUndoRedoHistory
Fore
SplineSet
331 -23 m 0
 395 -23 453 -12 505 11 c 0
 671 82 754 256 754 499 c 2
 754 1456 l 1
 582 1456 l 1
 582 488 l 2
 582 296 519 125 336 125 c 0
 247 125 186 156 132 197 c 1
 81 81 l 1
 141 21 218 -23 331 -23 c 0
EndSplineSet
EndChar

StartChar: K
Encoding: 75 75 56
Width: 1244
VWidth: 0
GlyphClass: 2
Flags: HW
HStem: 0 21<200 200 200 372 1023 1023 1023 1241> 1436 20<200 372 372 372 990 1201 1201 1201>
VStem: 184 172
AnchorPoint: "top" 677 1456 basechar 0
AnchorPoint: "bottom" 736 0 basechar 0
LayerCount: 2
UndoRedoHistory
Layer: 0
Undoes
EndUndoes
Redoes
EndRedoes
EndUndoRedoHistory
UndoRedoHistory
Layer: 1
Undoes
EndUndoes
Redoes
EndRedoes
EndUndoRedoHistory
Fore
SplineSet
200 0 m 1
 200 1456 l 1
 372 1456 l 1
 372 796 l 1
 990 1456 l 1
 1201 1456 l 1
 550 764 l 1
 1241 0 l 1
 1023 0 l 1
 372 725 l 1
 372 0 l 1
 200 0 l 1
EndSplineSet
EndChar

StartChar: L
Encoding: 76 76 58
Width: 1076
VWidth: 0
GlyphClass: 2
Flags: HW
HStem: 0 138<372 1053 372 1053> 1436 20<200 372 372 372>
VStem: 184 172
AnchorPoint: "top" 590 1456 basechar 0
AnchorPoint: "bottom" 706 0 basechar 0
LayerCount: 2
UndoRedoHistory
Layer: 0
Undoes
EndUndoes
Redoes
EndRedoes
EndUndoRedoHistory
UndoRedoHistory
Layer: 1
Undoes
EndUndoes
Redoes
EndRedoes
EndUndoRedoHistory
Fore
SplineSet
200 0 m 1
 200 1456 l 1
 372 1456 l 1
 372 138 l 1
 1053 138 l 1
 1053 0 l 1
 200 0 l 1
EndSplineSet
EndChar

StartChar: Lslash
Encoding: 321 321 63
Width: 1107
VWidth: 0
GlyphClass: 2
Flags: HW
HStem: 0 148<379 1060 379 1060 379 1060> 1007 20<653 653> 1436 20<212 379 212 212>
VStem: 212 167<0 712 148 605 148 742 849 1456>
LayerCount: 2
UndoRedoHistory
Layer: 0
Undoes
EndUndoes
Redoes
EndRedoes
EndUndoRedoHistory
UndoRedoHistory
Layer: 1
Undoes
EndUndoes
Redoes
EndRedoes
EndUndoRedoHistory
Fore
SplineSet
212 0 m 1
 1060 0 l 1
 1060 148 l 1
 379 148 l 1
 379 712 l 1
 653 890 l 1
 653 1027 l 1
 379 849 l 1
 379 1456 l 1
 212 1456 l 1
 212 742 l 1
 25 626 l 1
 25 489 l 1
 212 605 l 1
 212 0 l 1
EndSplineSet
EndChar

StartChar: M
Encoding: 77 77 64
Width: 1928
VWidth: 0
GlyphClass: 2
Flags: W
HStem: 0 21G<191 361 1569 1737> 1436 20G<191 427.604 1514.04 1737>
VStem: 191 170<0 1268> 1569 168<0 1251>
AnchorPoint: "top" 971 1456 basechar 0
AnchorPoint: "bottom" 977 0 basechar 0
LayerCount: 2
UndoRedoHistory
Layer: 0
Undoes
EndUndoes
Redoes
EndRedoes
EndUndoRedoHistory
UndoRedoHistory
Layer: 1
Undoes
EndUndoes
Redoes
EndRedoes
EndUndoRedoHistory
Fore
SplineSet
191 0 m 1
 191 1456 l 1
 417 1456 l 1
 882 579 l 1
 965 420 l 1
 1046 582 l 1
 1525 1456 l 1
 1737 1456 l 1
 1737 0 l 1
 1569 0 l 1
 1569 1251 l 1
 1494 1096 l 1
 1023 220 l 1
 902 220 l 1
 428 1108 l 1
 361 1268 l 1
 361 0 l 1
 191 0 l 1
EndSplineSet
EndChar

StartChar: N
Encoding: 78 78 65
Width: 1569
VWidth: 0
GlyphClass: 2
Flags: W
HStem: 0 21G<191 363 1157.72 1378> 1436 20G<191 409.214 1207 1378>
VStem: 191 172<0 1237> 1207 171<215 1456>
AnchorPoint: "top" 810 1456 basechar 0
AnchorPoint: "bottom" 805 0 basechar 0
LayerCount: 2
UndoRedoHistory
Layer: 0
Undoes
EndUndoes
Redoes
EndRedoes
EndUndoRedoHistory
UndoRedoHistory
Layer: 1
Undoes
EndUndoes
Redoes
EndRedoes
EndUndoRedoHistory
Fore
SplineSet
191 0 m 1
 191 1456 l 1
 396 1456 l 1
 1132 342 l 1
 1207 215 l 1
 1207 1456 l 1
 1378 1456 l 1
 1378 0 l 1
 1171 0 l 1
 432 1113 l 1
 363 1237 l 1
 363 0 l 1
 191 0 l 1
EndSplineSet
EndChar

StartChar: O
Encoding: 79 79 70
Width: 1628
VWidth: 0
GlyphClass: 2
Flags: W
HStem: -25 152<613.163 1014.84> 1331 152<613.163 1014.84>
VStem: 117 184<464.171 993.38> 1327 184<464.171 993.38>
AnchorPoint: "top" 795 1456 basechar 0
AnchorPoint: "bottom" 831 0 basechar 0
LayerCount: 2
UndoRedoHistory
Layer: 0
Undoes
EndUndoes
Redoes
EndRedoes
EndUndoRedoHistory
UndoRedoHistory
Layer: 1
Undoes
EndUndoes
Redoes
EndRedoes
EndUndoRedoHistory
Fore
SplineSet
814 127 m 0
 1081 127 1327 330 1327 729 c 0
 1327 1128 1081 1331 814 1331 c 0
 547 1331 301 1128 301 729 c 0
 301 330 547 127 814 127 c 0
814 -25 m 0
 359 -25 117 336 117 728 c 0
 117 1122 359 1483 814 1483 c 0
 1269 1483 1511 1122 1511 728 c 0
 1511 336 1269 -25 814 -25 c 0
EndSplineSet
EndChar

StartChar: OE
Encoding: 338 338 71
Width: 2074
VWidth: 0
GlyphClass: 2
Flags: HW
HStem: -23 148<655 885.5> 0 148<1299 1960 1299 1960> 672 148<1299 1892 1299 1892> 1308 148<1299 1930 1299 1299> 1335 148<645 887>
VStem: 124 184<540.5 903.5 540.5 968.5> 1127 172<0 672 105 672 265 672 820 1219 1219 1219>
LayerCount: 2
UndoRedoHistory
Layer: 0
Undoes
EndUndoes
Redoes
EndRedoes
EndUndoRedoHistory
UndoRedoHistory
Layer: 1
Undoes
EndUndoes
Redoes
EndRedoes
EndUndoRedoHistory
Fore
SplineSet
818 -23 m 0
 360 -23 124 288 124 729 c 0
 124 1208 406 1483 825 1483 c 0
 951 1483 1048 1439 1127 1381 c 1
 1127 1456 l 1
 1930 1456 l 1
 1930 1308 l 1
 1299 1308 l 1
 1299 820 l 1
 1892 820 l 1
 1892 672 l 1
 1299 672 l 1
 1299 148 l 1
 1960 148 l 1
 1960 0 l 1
 1127 0 l 1
 1127 105 l 1
 1049 32 953 -23 818 -23 c 0
816 125 m 0
 956 125 1054 186 1127 265 c 1
 1127 1219 l 1
 1051 1288 955 1335 819 1335 c 0
 471 1335 308 1082 308 725 c 0
 308 356 494 125 816 125 c 0
EndSplineSet
EndChar

StartChar: Oslash
Encoding: 216 216 79
Width: 1630
VWidth: 0
GlyphClass: 2
Flags: HW
HStem: -25 152<790 952.5 790 1046.5> 1331 152<685.5 847.5>
VStem: 122 184<604 925> 1331 184<532 854>
LayerCount: 2
UndoRedoHistory
Layer: 0
Undoes
EndUndoes
Redoes
EndRedoes
EndUndoRedoHistory
UndoRedoHistory
Layer: 1
Undoes
EndUndoes
Redoes
EndRedoes
EndUndoRedoHistory
Fore
SplineSet
522 -165 m 1
 593 9 l 1
 661 -13 736 -25 819 -25 c 0
 1274 -25 1515 336 1515 728 c 0
 1515 1007 1392 1270 1159 1399 c 1
 1233 1581 l 1
 1113 1625 l 1
 1042 1450 l 1
 975 1471 901 1483 819 1483 c 0
 364 1483 122 1122 122 728 c 0
 122 450 245 187 479 58 c 1
 406 -121 l 1
 522 -165 l 1
540 211 m 1
 402 305 306 479 306 729 c 0
 306 1128 552 1331 819 1331 c 0
 876 1331 930 1322 983 1304 c 1
 540 211 l 1
819 127 m 0
 761 127 706 136 653 155 c 1
 1097 1246 l 1
 1234 1152 1331 979 1331 729 c 0
 1331 330 1086 127 819 127 c 0
EndSplineSet
EndChar

StartChar: P
Encoding: 80 80 81
Width: 1239
VWidth: 0
GlyphClass: 2
Flags: HW
HStem: 0 21<200 200 200 372> 587 149<372 604 372 623> 1318 138<372 580 580 603 372 372>
VStem: 184 172 971 184
AnchorPoint: "top" 710 1456 basechar 0
AnchorPoint: "bottom" 686 0 basechar 0
LayerCount: 2
UndoRedoHistory
Layer: 0
Undoes
EndUndoes
Redoes
EndRedoes
EndUndoRedoHistory
UndoRedoHistory
Layer: 1
Undoes
EndUndoes
Redoes
EndRedoes
EndUndoRedoHistory
Fore
SplineSet
200 0 m 1
 200 1456 l 1
 580 1456 l 2
 995 1456 1171 1316 1171 1020 c 0
 1171 734 974 587 604 587 c 2
 372 587 l 1
 372 0 l 1
 200 0 l 1
372 736 m 1
 623 736 l 2
 864 736 987 832 987 1018 c 0
 987 1222 882 1318 603 1318 c 2
 372 1318 l 1
 372 736 l 1
EndSplineSet
EndChar

StartChar: Q
Encoding: 81 81 82
Width: 1628
VWidth: 0
GlyphClass: 2
Flags: W
HStem: -25 152<618.163 1019.84> 1331 152<618.163 1019.84>
VStem: 122 184<464.171 993.38> 1332 184<464.171 993.38>
LayerCount: 2
UndoRedoHistory
Layer: 0
Undoes
EndUndoes
Redoes
EndRedoes
EndUndoRedoHistory
UndoRedoHistory
Layer: 1
Undoes
EndUndoes
Redoes
EndRedoes
EndUndoRedoHistory
Fore
SplineSet
1222 -422 m 1
 932 -13 l 1
 1090 20 l 1
 1340 -338 l 1
 1222 -422 l 1
EndSplineSet
Refer: 70 79 N 1 0 0 1 5 0 2
EndChar

StartChar: R
Encoding: 82 82 83
Width: 1317
VWidth: 0
GlyphClass: 2
Flags: HW
HStem: 0 21<200 200 200 372 1065 1065 1065 1253> 652 147<372 627 627 715 372 627> 1318 138<372 549 549 638 372 372>
VStem: 184 172 970 182
AnchorPoint: "top" 710 1456 basechar 0
AnchorPoint: "bottom" 686 0 basechar 0
LayerCount: 2
UndoRedoHistory
Layer: 0
Undoes
EndUndoes
Redoes
EndRedoes
EndUndoRedoHistory
UndoRedoHistory
Layer: 1
Undoes
EndUndoes
Redoes
EndRedoes
EndUndoRedoHistory
Fore
SplineSet
200 0 m 1
 200 1456 l 1
 549 1456 l 2
 871 1456 1168 1410 1168 1074 c 0
 1168 867 1048 719 777 665 c 1
 790 743 l 1
 1253 0 l 1
 1065 0 l 1
 619 752 l 1
 715 652 l 1
 372 652 l 1
 372 0 l 1
 200 0 l 1
372 799 m 1
 627 799 l 2
 816 799 986 859 986 1058 c 0
 986 1269 833 1318 638 1318 c 2
 372 1318 l 1
 372 799 l 1
EndSplineSet
EndChar

StartChar: S
Encoding: 83 83 87
Width: 1180
VWidth: 0
GlyphClass: 2
Flags: HW
HStem: -22 146<533.5 698 533.5 753> 1334 149<534.5 687.5>
VStem: 146 184 931 179
AnchorPoint: "top" 614 1456 basechar 0
AnchorPoint: "bottom" 597 -1 basechar 0
LayerCount: 2
UndoRedoHistory
Layer: 0
Undoes
EndUndoes
Redoes
EndRedoes
EndUndoRedoHistory
UndoRedoHistory
Layer: 1
Undoes
EndUndoes
Redoes
EndRedoes
EndUndoRedoHistory
Fore
SplineSet
613 -22 m 0
 423 -22 243 61 152 130 c 1
 203 280 l 1
 296 203 461 124 606 124 c 0
 790 124 891 227 891 390 c 0
 891 511 840 587 540 681 c 0
 258 770 146 884 148 1105 c 0
 150 1346 349 1483 605 1483 c 0
 778 1483 912 1425 1018 1348 c 1
 952 1217 l 1
 870 1276 750 1334 625 1334 c 0
 444 1334 325 1258 322 1114 c 0
 318 968 379 905 640 821 c 1
 975 715 1060 589 1060 387 c 0
 1060 142 893 -22 613 -22 c 0
EndSplineSet
EndChar

StartChar: T
Encoding: 84 84 93
Width: 1153
VWidth: 0
GlyphClass: 2
Flags: W
HStem: 0 21G<489 661> 1318 138<29 489 661 1124>
VStem: 489 172<0 1318>
AnchorPoint: "top" 585 1456 basechar 0
AnchorPoint: "bottom" 701 0 basechar 0
LayerCount: 2
UndoRedoHistory
Layer: 0
Undoes
EndUndoes
Redoes
EndRedoes
EndUndoRedoHistory
UndoRedoHistory
Layer: 1
Undoes
EndUndoes
Redoes
EndRedoes
EndUndoRedoHistory
Fore
SplineSet
489 0 m 1
 489 1318 l 1
 29 1318 l 1
 29 1456 l 1
 1124 1456 l 1
 1124 1318 l 1
 661 1318 l 1
 661 0 l 1
 489 0 l 1
EndSplineSet
EndChar

StartChar: Thorn
Encoding: 222 222 96
Width: 1261
VWidth: 0
GlyphClass: 2
Flags: HW
HStem: 0 21<213 385 385 385> 443 149<385 601 601 639> 1164 148<385 550 385 592 385 707> 1436 20<213 385 213 213>
VStem: 213 172<0 443 0 443 592 1164 1312 1456> 1003 184<849.5 994>
LayerCount: 2
UndoRedoHistory
Layer: 0
Undoes
EndUndoes
Redoes
EndRedoes
EndUndoRedoHistory
UndoRedoHistory
Layer: 1
Undoes
EndUndoes
Redoes
EndRedoes
EndUndoRedoHistory
Fore
SplineSet
213 0 m 1
 385 0 l 1
 385 443 l 1
 601 443 l 2
 761 443 904 480 1005 546 c 1
 1108 611 1187 714 1187 876 c 0
 1187 1231 891 1312 550 1312 c 2
 385 1312 l 1
 385 1456 l 1
 213 1456 l 1
 213 0 l 1
385 592 m 1
 385 1164 l 1
 592 1164 l 2
 822 1164 1003 1114 1003 874 c 0
 1003 825 994 782 976 747 c 0
 920 639 798 592 639 592 c 2
 385 592 l 1
EndSplineSet
EndChar

StartChar: U
Encoding: 85 85 97
Width: 1450
VWidth: 0
GlyphClass: 2
Flags: W
HStem: -22 145<526.386 929.499> 1436 20G<168.5 340.5 1110.5 1281.5>
VStem: 168.5 172<318.157 1456> 1110.5 171<322.95 1456>
AnchorPoint: "top" 660.5 1456 basechar 0
AnchorPoint: "bottom" 830.5 0 basechar 0
AnchorPoint: "ogonek" 854.5 0 basechar 0
LayerCount: 2
UndoRedoHistory
Layer: 0
Undoes
EndUndoes
Redoes
EndRedoes
EndUndoRedoHistory
UndoRedoHistory
Layer: 1
Undoes
EndUndoes
Redoes
EndRedoes
EndUndoRedoHistory
Fore
SplineSet
736.5 -22 m 0
 367.5 -22 168.5 157 168.5 541 c 2
 168.5 1456 l 1
 340.5 1456 l 1
 340.5 546 l 2
 340.5 260 474.5 123 735.5 123 c 0
 977.5 123 1110.5 279 1110.5 539 c 2
 1110.5 1456 l 1
 1281.5 1456 l 1
 1281.5 551 l 1
 1279.5 191 1084.5 -22 736.5 -22 c 0
EndSplineSet
EndChar

StartChar: V
Encoding: 86 86 108
Width: 1313
VWidth: 0
GlyphClass: 2
Flags: W
HStem: 1 21G<564.871 765.881> 1436 20G<17.5 212.786 1105.42 1295.5>
LayerCount: 2
UndoRedoHistory
Layer: 0
Undoes
EndUndoes
Redoes
EndRedoes
EndUndoRedoHistory
UndoRedoHistory
Layer: 1
Undoes
EndUndoes
Redoes
EndRedoes
EndUndoRedoHistory
Fore
SplineSet
572.5 1 m 1
 17.5 1456 l 1
 205.5 1456 l 1
 617.5 325 l 1
 663.5 184 l 1
 711.5 324 l 1
 1112.5 1456 l 1
 1295.5 1456 l 1
 758.5 1 l 1
 572.5 1 l 1
EndSplineSet
EndChar

StartChar: W
Encoding: 87 87 109
Width: 2073
VWidth: 0
GlyphClass: 2
Flags: W
HStem: 1 21G<440.186 665.083 1408.95 1632.81> 1436 20G<23 214.601 950.677 1136.25 1864.49 2050>
AnchorPoint: "top" 1028 1456 basechar 0
AnchorPoint: "bottom" 1022 0 basechar 0
LayerCount: 2
UndoRedoHistory
Layer: 0
Undoes
EndUndoes
Redoes
EndRedoes
EndUndoRedoHistory
UndoRedoHistory
Layer: 1
Undoes
EndUndoes
Redoes
EndRedoes
EndUndoRedoHistory
Fore
SplineSet
446 1 m 1
 23 1456 l 1
 209 1456 l 1
 519 349 l 1
 557 189 l 1
 607 349 l 1
 957 1456 l 1
 1130 1456 l 1
 1477 345 l 1
 1523 190 l 1
 1565 349 l 1
 1870 1456 l 1
 2050 1456 l 1
 1627 0 l 1
 1415 0 l 1
 1038 1247 l 1
 659 1 l 1
 446 1 l 1
EndSplineSet
EndChar

StartChar: X
Encoding: 88 88 114
Width: 1279
VWidth: 0
GlyphClass: 2
Flags: W
HStem: 0 21G<20 237.355 1044.58 1259> 1436 20G<59 277.89 1039.71 1249>
LayerCount: 2
UndoRedoHistory
Layer: 0
Undoes
EndUndoes
Redoes
EndRedoes
EndUndoRedoHistory
UndoRedoHistory
Layer: 1
Undoes
EndUndoes
Redoes
EndRedoes
EndUndoRedoHistory
Fore
SplineSet
1058 0 m 1
 640 623 l 1
 224 0 l 1
 20 0 l 1
 544 741 l 1
 59 1456 l 1
 265 1456 l 1
 653 854 l 1
 1053 1456 l 1
 1249 1456 l 1
 751 742 l 1
 1259 0 l 1
 1058 0 l 1
EndSplineSet
EndChar

StartChar: Y
Encoding: 89 89 115
Width: 1235
VWidth: 0
GlyphClass: 2
Flags: W
HStem: 0 21G<530.5 702.5> 1436 20G<8.5 210.913 1023.98 1226.5>
VStem: 530.5 172<0 582>
AnchorPoint: "top" 624.5 1456 basechar 0
AnchorPoint: "bottom" 629.5 0 basechar 0
LayerCount: 2
UndoRedoHistory
Layer: 0
Undoes
EndUndoes
Redoes
EndRedoes
EndUndoRedoHistory
UndoRedoHistory
Layer: 1
Undoes
EndUndoes
Redoes
EndRedoes
EndUndoRedoHistory
Fore
SplineSet
530.5 0 m 1
 530.5 582 l 1
 8.5 1456 l 1
 199.5 1456 l 1
 615.5 727 l 1
 1035.5 1456 l 1
 1226.5 1456 l 1
 702.5 585 l 1
 702.5 0 l 1
 530.5 0 l 1
EndSplineSet
EndChar

StartChar: Z
Encoding: 90 90 120
Width: 1209
VWidth: 0
GlyphClass: 2
Flags: HW
HStem: 0 138<330 1133 330 1133> 1318 138<134 909 134 1141>
AnchorPoint: "top" 710 1456 basechar 0
AnchorPoint: "bottom" 686 0 basechar 0
LayerCount: 2
UndoRedoHistory
Layer: 0
Undoes
EndUndoes
Redoes
EndRedoes
EndUndoRedoHistory
UndoRedoHistory
Layer: 1
Undoes
EndUndoes
Redoes
EndRedoes
EndUndoRedoHistory
Fore
SplineSet
102 0 m 1
 102 92 l 1
 909 1318 l 1
 134 1318 l 1
 134 1456 l 1
 1141 1456 l 1
 1141 1368 l 1
 330 138 l 1
 1133 138 l 1
 1133 0 l 1
 102 0 l 1
EndSplineSet
EndChar

StartChar: a
Encoding: 97 97 124
Width: 1193
VWidth: 0
GlyphClass: 2
Flags: W
HStem: -22 136<401.818 694.956 1042.81 1124> 912 136<488.677 841.646>
VStem: 110 170<248.789 676.236> 844 164<274.651 453 877 893.669>
AnchorPoint: "top" 647 1026 basechar 0
AnchorPoint: "bottom" 626 0 basechar 0
AnchorPoint: "ogonek" 1004 0 basechar 0
LayerCount: 2
UndoRedoHistory
Layer: 0
Undoes
EndUndoes
Redoes
EndRedoes
EndUndoRedoHistory
UndoRedoHistory
Layer: 1
Undoes
EndUndoes
Redoes
EndRedoes
EndUndoRedoHistory
Fore
SplineSet
511 -22 m 0
 660 -22 797 48 863 161 c 1
 890 49 964 -14 1124 -14 c 1
 1153 121 l 1
 1038 121 1008 175 1008 278 c 2
 1008 962 l 1
 928 1014 789 1048 662 1048 c 0
 337 1048 110 804 110 438 c 0
 110 162 276 -22 511 -22 c 0
535 114 m 0
 382 114 280 248 280 448 c 0
 280 726 432 912 659 912 c 0
 731 912 804 898 844 877 c 1
 844 453 l 2
 844 260 720 114 535 114 c 0
EndSplineSet
EndChar

StartChar: a.alt
Encoding: 65538 -1 125
Width: 1203
VWidth: 0
GlyphClass: 2
Flags: HW
HStem: -23 140<480 609.5> -4 143<1097.5 1175> 913 139<504 700>
VStem: 98 167<391 632.5 391 669> 886 164<398 519 519 669>
LayerCount: 2
UndoRedoHistory
Layer: 0
Undoes
EndUndoes
Redoes
EndRedoes
EndUndoRedoHistory
UndoRedoHistory
Layer: 1
Undoes
EndUndoes
Redoes
EndRedoes
EndUndoRedoHistory
Fore
SplineSet
551 -23 m 0
 668 -23 819 13 909 166 c 1
 936 46 1054 -4 1141 -4 c 1
 1175 139 l 1
 1123 139 1050 170 1050 286 c 2
 1050 519 l 2
 1050 928 850 1052 610 1052 c 0
 293 1052 98 844 98 494 c 0
 98 192 290 -23 551 -23 c 0
569 117 m 0
 391 117 265 278 265 504 c 0
 265 761 395 913 613 913 c 0
 787 913 886 814 886 524 c 0
 886 272 815 117 569 117 c 0
EndSplineSet
EndChar

StartChar: acute
Encoding: 180 180 129
Width: 617
VWidth: 0
GlyphClass: 2
Flags: HW
HStem: 1172 320<185 623 185 623>
VStem: 185 438<1172 1492>
AnchorPoint: "top" 182 1026 mark 0
LayerCount: 2
UndoRedoHistory
Layer: 0
Undoes
EndUndoes
Redoes
EndRedoes
EndUndoRedoHistory
UndoRedoHistory
Layer: 1
Undoes
EndUndoes
Redoes
EndRedoes
EndUndoRedoHistory
Fore
SplineSet
185 1172 m 1
 411 1492 l 1
 623 1492 l 1
 315 1172 l 1
 185 1172 l 1
EndSplineSet
EndChar

StartChar: ae
Encoding: 230 230 131
Width: 1817
VWidth: 0
GlyphClass: 2
Flags: HW
HStem: -22 137<410.5 561 1148 1329.5> 489 117<953 953 953 1544> 907 141<475.5 633 1177.5 1355>
VStem: 91 169<226.5 375.5 226.5 446.5> 781 172<606 606 606 628 605 606>
LayerCount: 2
UndoRedoHistory
Layer: 0
Undoes
EndUndoes
Redoes
EndRedoes
EndUndoRedoHistory
UndoRedoHistory
Layer: 1
Undoes
EndUndoes
Redoes
EndRedoes
EndUndoRedoHistory
Fore
SplineSet
451 -22 m 0
 671 -22 795 95 863 230 c 1
 908 80 1054 -22 1242 -22 c 0
 1456 -22 1592 65 1674 206 c 1
 1587 292 l 1
 1521 193 1407 115 1252 115 c 0
 1039 115 951 253 951 463 c 0
 951 468 952 485 952 489 c 1
 1707 489 l 1
 1707 524 l 2
 1707 845 1553 1048 1261 1048 c 0
 1094 1048 943 941 887 806 c 1
 845 956 726 1048 560 1048 c 0
 363 1048 227 985 158 856 c 1
 248 763 l 1
 308 864 401 907 550 907 c 0
 716 907 781 793 781 628 c 2
 781 605 l 1
 453 605 91 611 91 282 c 0
 91 92 232 -22 451 -22 c 0
474 115 m 0
 347 115 260 163 260 290 c 0
 260 461 452 481 637 486 c 1
 783 489 l 1
 783 272 694 115 474 115 c 0
953 606 m 1
 965 761 1065 907 1260 907 c 0
 1450 907 1527 780 1544 606 c 1
 953 606 l 1
EndSplineSet
EndChar

StartChar: ampersand
Encoding: 38 38 134
Width: 1616
VWidth: 0
GlyphClass: 2
Flags: HW
HStem: -27 143<627.5 744 627.5 768> -12 21<1456 1456> 1340 133<611 716>
VStem: 125 180<368 427.5 332.5 462.5> 309 166<1164.5 1233 1132.5 1281.5> 852 164<1164 1212.5 1142 1232.5> 1266 167<863 884>
LayerCount: 2
UndoRedoHistory
Layer: 0
Undoes
EndUndoes
Redoes
EndRedoes
EndUndoRedoHistory
UndoRedoHistory
Layer: 1
Undoes
EndUndoes
Redoes
EndRedoes
EndUndoRedoHistory
Fore
SplineSet
656 -27 m 0
 880 -27 1027 70 1141 186 c 1
 1227 100 1308 10 1456 -12 c 1
 1588 86 l 1
 1546 95 1509 104 1478 114 c 0
 1369 150 1304 208 1231 284 c 1
 1341 427 1424 625 1433 863 c 1
 1266 884 l 1
 1266 842 1262 800 1255 756 c 0
 1233 618 1184 493 1120 398 c 1
 722 822 l 1
 797 864 871 915 926 977 c 0
 972 1029 1016 1096 1016 1188 c 0
 1016 1237 1007 1278 986 1314 c 0
 927 1414 809 1473 656 1473 c 0
 465 1473 309 1381 309 1182 c 0
 309 1147 313 1115 324 1086 c 0
 359 988 430 921 496 852 c 1
 406 802 314 744 243 672 c 0
 179 607 125 523 125 402 c 0
 125 334 138 273 166 220 c 0
 249 62 426 -27 656 -27 c 0
653 116 m 0
 602 116 555 123 513 138 c 0
 404 176 305 259 305 406 c 0
 305 449 313 488 329 522 c 0
 381 632 487 694 592 750 c 1
 812 523 l 2
 878 454 950 375 1014 311 c 0
 1027 298 1035 291 1037 291 c 1
 944 197 835 116 653 116 c 0
622 918 m 1
 600 939 580 959 562 979 c 0
 518 1028 475 1087 475 1178 c 0
 475 1288 558 1340 664 1340 c 0
 768 1340 852 1287 852 1178 c 0
 852 1150 845 1124 832 1099 c 0
 789 1017 704 963 622 918 c 1
EndSplineSet
EndChar

StartChar: approxequal
Encoding: 8776 8776 136
Width: 1328
VWidth: 0
GlyphClass: 2
Flags: HW
HStem: 262 118<875 937 875 966.5> 426 120<400.5 465.5> 634 118<874 935.5 874 964> 799 118<398 462.5>
VStem: 164 114<261 289> 1055 110<518 546>
LayerCount: 2
UndoRedoHistory
Layer: 0
Undoes
EndUndoes
Redoes
EndRedoes
EndUndoRedoHistory
UndoRedoHistory
Layer: 1
Undoes
EndUndoes
Redoes
EndRedoes
EndUndoRedoHistory
Fore
SplineSet
278 261 m 1
 303 349 349 426 452 426 c 0
 479 426 506 420 535 407 c 0
 585 385 651 343 699 317 c 0
 752 289 807 262 883 262 c 0
 1050 262 1132 375 1165 518 c 1
 1055 546 l 1
 1025 463 985 380 889 380 c 0
 861 380 831 389 798 406 c 0
 765 423 731 442 695 463 c 0
 631 500 549 546 455 546 c 0
 293 546 199 433 164 289 c 1
 278 261 l 1
277 634 m 1
 302 721 347 799 449 799 c 0
 476 799 503 793 531 780 c 0
 581 757 648 715 697 689 c 0
 752 660 804 634 881 634 c 0
 1047 634 1133 745 1163 890 c 1
 1053 918 l 1
 1024 832 984 752 887 752 c 0
 861 752 833 759 802 772 c 0
 698 816 594 917 453 917 c 0
 289 917 195 808 162 661 c 1
 277 634 l 1
EndSplineSet
EndChar

StartChar: asciicircum
Encoding: 94 94 138
Width: 1443
VWidth: 0
GlyphClass: 2
Flags: HW
LayerCount: 2
UndoRedoHistory
Layer: 0
Undoes
EndUndoes
Redoes
EndRedoes
EndUndoRedoHistory
UndoRedoHistory
Layer: 1
Undoes
EndUndoes
Redoes
EndRedoes
EndUndoRedoHistory
Fore
SplineSet
194 550 m 1
 666 1432 l 1
 763 1432 l 1
 1242 550 l 1
 1087 550 l 1
 713 1260 l 1
 350 550 l 1
 194 550 l 1
EndSplineSet
EndChar

StartChar: asciitilde
Encoding: 126 126 139
Width: 1434
VWidth: 0
GlyphClass: 2
Flags: HW
HStem: 410 135<933.5 959> 571 134<474 506>
VStem: 199 115<385 440> 1108 125<684 723>
LayerCount: 2
UndoRedoHistory
Layer: 0
Undoes
EndUndoes
Redoes
EndRedoes
EndUndoRedoHistory
UndoRedoHistory
Layer: 1
Undoes
EndUndoes
Redoes
EndRedoes
EndUndoRedoHistory
Fore
SplineSet
314 385 m 1
 334 475 390 571 496 571 c 0
 516 571 539 567 564 559 c 0
 647 532 724 487 800 452 c 0
 840 433 890 410 940 410 c 0
 978 410 1013 416 1045 430 c 0
 1144 473 1205 566 1233 684 c 1
 1108 723 l 1
 1090 641 1037 545 941 545 c 0
 926 545 907 549 886 557 c 0
 808 587 732 632 654 664 c 0
 607 683 553 705 494 705 c 0
 454 705 417 698 384 683 c 0
 290 641 223 553 199 440 c 1
 314 385 l 1
EndSplineSet
EndChar

StartChar: asterisk
Encoding: 42 42 140
Width: 1250
VWidth: 0
GlyphClass: 2
Flags: HW
HStem: 1436 20<545 682 682 682>
VStem: 545 137<1158 1456>
LayerCount: 2
UndoRedoHistory
Layer: 0
Undoes
EndUndoes
Redoes
EndRedoes
EndUndoRedoHistory
UndoRedoHistory
Layer: 1
Undoes
EndUndoes
Redoes
EndRedoes
EndUndoRedoHistory
Fore
SplineSet
790 742 m 1
 636 1008 l 1
 488 750 l 1
 364 825 l 1
 554 1063 l 1
 282 1141 l 1
 303 1276 l 1
 585 1153 l 1
 573 1253 557 1356 545 1456 c 1
 682 1456 l 1
 682 1158 l 1
 914 1279 l 1
 978 1154 l 1
 716 1066 l 1
 916 815 l 1
 790 742 l 1
EndSplineSet
EndChar

StartChar: at
Encoding: 64 64 141
Width: 1859
VWidth: 0
GlyphClass: 2
Flags: HW
HStem: -109 121 225 125 257 128 1007 131 1357 119
VStem: 143 151 502 157 1126 82 1573 153
LayerCount: 2
UndoRedoHistory
Layer: 0
Undoes
EndUndoes
Redoes
EndRedoes
EndUndoRedoHistory
UndoRedoHistory
Layer: 1
Undoes
EndUndoes
Redoes
EndRedoes
EndUndoRedoHistory
Fore
SplineSet
959 -109 m 0
 1211 -109 1411 -17 1534 122 c 1
 1477 182 l 1
 1358 76 1225 -8 964 -8 c 0
 558 -8 270 261 270 677 c 0
 270 1080 566 1382 961 1382 c 0
 1304 1382 1614 1159 1614 794 c 0
 1614 525 1475 337 1304 337 c 0
 1246 337 1225 367 1225 423 c 0
 1225 493 1278 708 1364 1104 c 1
 1224 1104 l 1
 1206 1019 l 1
 1169 1088 1088 1135 986 1135 c 0
 744 1135 519 893 519 607 c 0
 519 445 600 254 819 254 c 0
 930 254 1070 344 1126 477 c 1
 1126 351 1186 262 1304 262 c 0
 1525 262 1726 477 1726 791 c 0
 1726 1205 1377 1476 963 1476 c 0
 513 1476 143 1143 143 679 c 0
 143 216 501 -109 959 -109 c 0
845 362 m 0
 734 362 658 440 658 587 c 0
 658 830 806 1040 989 1040 c 0
 1100 1040 1154 933 1154 818 c 0
 1154 619 1025 362 845 362 c 0
EndSplineSet
EndChar

StartChar: b
Encoding: 98 98 143
Width: 1174
VWidth: 0
GlyphClass: 2
Flags: HW
HStem: -22 136<484 670 484 716> 912 136<603.5 719> 1505 20<166 331 166 166>
VStem: 162 165 898 170
AnchorPoint: "top" 696 1249 basechar 0
AnchorPoint: "bottom" 799 0 basechar 0
LayerCount: 2
UndoRedoHistory
Layer: 0
Undoes
EndUndoes
Redoes
EndRedoes
EndUndoRedoHistory
UndoRedoHistory
Layer: 1
Undoes
EndUndoes
Redoes
EndRedoes
EndUndoRedoHistory
Fore
SplineSet
564 -22 m 0
 868 -22 1072 215 1072 545 c 0
 1072 865 894 1048 671 1048 c 0
 536 1048 423 998 331 864 c 1
 331 1525 l 1
 166 1525 l 1
 166 71 l 1
 166 71 331 -22 564 -22 c 0
558 114 m 0
 410 114 331 151 331 151 c 1
 331 597 l 2
 331 787 495 912 648 912 c 0
 790 912 902 793 902 550 c 0
 902 318 782 114 558 114 c 0
EndSplineSet
EndChar

StartChar: backslash
Encoding: 92 92 144
Width: 703
VWidth: 0
GlyphClass: 2
Flags: HW
HStem: 1431 20<-37 130 130 130>
LayerCount: 2
UndoRedoHistory
Layer: 0
Undoes
EndUndoes
Redoes
EndRedoes
EndUndoRedoHistory
UndoRedoHistory
Layer: 1
Undoes
EndUndoes
Redoes
EndRedoes
EndUndoRedoHistory
Fore
SplineSet
592 -215 m 1
 -37 1451 l 1
 130 1451 l 1
 755 -215 l 1
 592 -215 l 1
EndSplineSet
EndChar

StartChar: bar
Encoding: 124 124 145
Width: 964
VWidth: 0
GlyphClass: 2
Flags: HW
HStem: -482 21
VStem: 399 176
LayerCount: 2
UndoRedoHistory
Layer: 0
Undoes
EndUndoes
Redoes
EndRedoes
EndUndoRedoHistory
UndoRedoHistory
Layer: 1
Undoes
EndUndoes
Redoes
EndRedoes
EndUndoRedoHistory
Fore
SplineSet
399.489257812 -482.4296875 m 1
 399.489257812 1535.94042969 l 1
 575.314453125 1535.94042969 l 1
 575.314453125 -482.4296875 l 1
 399.489257812 -482.4296875 l 1
EndSplineSet
EndChar

StartChar: braceleft
Encoding: 123 123 146
Width: 744
VWidth: 0
GlyphClass: 2
Flags: HW
HStem: -230 142 555 135 1332 143
VStem: 271 186
LayerCount: 2
UndoRedoHistory
Layer: 0
Undoes
EndUndoes
Redoes
EndRedoes
EndUndoRedoHistory
UndoRedoHistory
Layer: 1
Undoes
EndUndoes
Redoes
EndRedoes
EndUndoRedoHistory
Fore
SplineSet
653.276367188 -229.768554688 m 1
 429.276367188 -223.947265625 271.276367188 -132.80078125 271.276367188 63.9052734375 c 2
 271.276367188 313.62890625 l 2
 271.276367188 444.37109375 219.154296875 542.510742188 79.2724609375 554.803710938 c 1
 79.2724609375 689.587890625 l 1
 193.758789062 697.567382812 270.483398438 777.647460938 271.1328125 906.94140625 c 2
 271.1328125 1150.66992188 l 2
 271.1328125 1345.16015625 391.88671875 1474.6796875 654.119140625 1474.6796875 c 1
 654.119140625 1332.04003906 l 1
 540.706054688 1329.87988281 457.62890625 1276.0703125 457.62890625 1143.16992188 c 2
 457.62890625 870.471679688 l 2
 457.62890625 730.612304688 364.041992188 652.368164062 258.825195312 620.017578125 c 1
 376.177734375 576.825195312 457.62890625 461.513671875 457.62890625 354.8671875 c 2
 457.62890625 122.748046875 l 2
 457.62890625 -46.7626953125 541.90234375 -87.1220703125 653.276367188 -87.4716796875 c 1
 653.276367188 -229.768554688 l 1
EndSplineSet
EndChar

StartChar: braceright
Encoding: 125 125 147
Width: 764
VWidth: 0
GlyphClass: 2
Flags: HW
HStem: -230 143 555 135 1332 142
VStem: 313 187
LayerCount: 2
UndoRedoHistory
Layer: 0
Undoes
EndUndoes
Redoes
EndRedoes
EndUndoRedoHistory
UndoRedoHistory
Layer: 1
Undoes
EndUndoes
Redoes
EndRedoes
EndUndoRedoHistory
Fore
SplineSet
116.684570312 -229.768554688 m 1
 378.916992188 -229.768554688 499.877929688 -100.45703125 499.877929688 94.0361328125 c 2
 499.877929688 337.765625 l 2
 500.528320312 467.059570312 577.044921875 547.139648438 691.53125 555.119140625 c 1
 691.53125 689.90234375 l 1
 551.650390625 702.196289062 499.528320312 800.334960938 499.528320312 931.077148438 c 2
 499.528320312 1180.79980469 l 2
 499.528320312 1377.50976562 341.528320312 1468.86035156 117.528320312 1474.6796875 c 1
 117.528320312 1332.1796875 l 1
 228.90234375 1331.83007812 313.174804688 1291.46972656 313.174804688 1121.95996094 c 2
 313.174804688 889.83984375 l 2
 313.174804688 783.193359375 394.625976562 667.880859375 511.978515625 624.689453125 c 1
 406.76171875 592.338867188 313.174804688 514.094726562 313.174804688 374.235351562 c 2
 313.174804688 101.532226562 l 2
 313.174804688 -31.3671875 230.09765625 -84.9638671875 116.684570312 -87.1220703125 c 1
 116.684570312 -229.768554688 l 1
EndSplineSet
EndChar

StartChar: bracketleft
Encoding: 91 91 148
Width: 638
VWidth: 0
GlyphClass: 2
Flags: HW
HStem: -259 122<364 558 364 558> 1329 122<364 557 364 364>
VStem: 201 357<-259 -137 -259 1451> 201 163<-137 1329 -137 1451 -137 1451>
LayerCount: 2
UndoRedoHistory
Layer: 0
Undoes
EndUndoes
Redoes
EndRedoes
EndUndoRedoHistory
UndoRedoHistory
Layer: 1
Undoes
EndUndoes
Redoes
EndRedoes
EndUndoRedoHistory
Fore
SplineSet
201 -259 m 1
 201 1451 l 1
 557 1451 l 1
 557 1329 l 1
 364 1329 l 1
 364 -137 l 1
 558 -137 l 1
 558 -259 l 1
 201 -259 l 1
EndSplineSet
EndChar

StartChar: bracketright
Encoding: 93 93 149
Width: 638
VWidth: 0
GlyphClass: 2
Flags: HW
HStem: -259 122<97 288 97 288 97 452> 1329 122<98 288 98 98>
VStem: 97 355<-259 -137 -137 -137> 288 164<-137 1329 1329 1329>
LayerCount: 2
UndoRedoHistory
Layer: 0
Undoes
EndUndoes
Redoes
EndRedoes
EndUndoRedoHistory
UndoRedoHistory
Layer: 1
Undoes
EndUndoes
Redoes
EndRedoes
EndUndoRedoHistory
Fore
SplineSet
97 -259 m 1
 97 -137 l 1
 288 -137 l 1
 288 1329 l 1
 98 1329 l 1
 88 1451 l 1
 452 1451 l 1
 452 -259 l 1
 97 -259 l 1
EndSplineSet
EndChar

StartChar: breve
Encoding: 728 728 150
Width: 639
VWidth: 0
GlyphClass: 2
Flags: HW
HStem: 1218 107<268 370 268 409> 1434 20<42 129 129 129 520 606 606 606>
VStem: 42 87<1454 1454> 520 86<1454 1454>
AnchorPoint: "top" 337 1026 mark 0
LayerCount: 2
UndoRedoHistory
Layer: 0
Undoes
EndUndoes
Redoes
EndRedoes
EndUndoRedoHistory
UndoRedoHistory
Layer: 1
Undoes
EndUndoes
Redoes
EndRedoes
EndUndoRedoHistory
Fore
SplineSet
326 1218 m 0
 155 1218 55 1294 42 1454 c 1
 129 1454 l 1
 144 1366 217 1325 319 1325 c 0
 421 1325 500 1370 520 1454 c 1
 606 1454 l 1
 593 1300 492 1218 326 1218 c 0
EndSplineSet
EndChar

StartChar: brokenbar
Encoding: 166 166 151
Width: 510
VWidth: 0
GlyphClass: 2
Flags: HW
HStem: -491 21<178 178 178 335>
VStem: 178 157<-491 393 -491 393 677 1545>
LayerCount: 2
UndoRedoHistory
Layer: 0
Undoes
EndUndoes
Redoes
EndRedoes
EndUndoRedoHistory
UndoRedoHistory
Layer: 1
Undoes
EndUndoes
Redoes
EndRedoes
EndUndoRedoHistory
Fore
SplineSet
178 -491 m 1
 178 393 l 1
 335 393 l 1
 335 -491 l 1
 178 -491 l 1
178 677 m 1
 178 1545 l 1
 335 1545 l 1
 335 677 l 1
 178 677 l 1
EndSplineSet
EndChar

StartChar: bullet
Encoding: 8226 8226 152
Width: 991
VWidth: 0
GlyphClass: 2
Flags: HW
HStem: 385 625<482.5 547.5>
VStem: 167 669<673 722 652.5 768>
LayerCount: 2
UndoRedoHistory
Layer: 0
Undoes
EndUndoes
Redoes
EndRedoes
EndUndoRedoHistory
UndoRedoHistory
Layer: 1
Undoes
EndUndoes
Redoes
EndRedoes
EndUndoRedoHistory
Fore
SplineSet
499 385 m 0
 596 385 680 426 735 478 c 0
 789 528 836 604 836 701 c 0
 836 743 827 782 809 820 c 0
 760 925 652 1010 504 1010 c 0
 461 1010 419 1002 378 985 c 0
 269 941 167 842 167 694 c 0
 167 652 176 612 193 575 c 0
 242 469 350 385 499 385 c 0
EndSplineSet
EndChar

StartChar: c
Encoding: 99 99 153
Width: 1032
VWidth: 0
GlyphClass: 2
Flags: HW
HStem: -22 136<527 667.5> 912 136<536.5 668>
VStem: 110 170
AnchorPoint: "top" 607 1026 basechar 0
AnchorPoint: "bottom" 609 0 basechar 0
LayerCount: 2
UndoRedoHistory
Layer: 0
Undoes
EndUndoes
Redoes
EndRedoes
EndUndoRedoHistory
UndoRedoHistory
Layer: 1
Undoes
EndUndoes
Redoes
EndRedoes
EndUndoRedoHistory
Fore
SplineSet
605 -22 m 0
 730 -22 857 21 960 102 c 1
 904 227 l 1
 828 158 719 114 619 114 c 0
 435 114 282 251 282 508 c 0
 282 776 449 912 624 912 c 0
 712 912 807 874 877 806 c 1
 939 924 l 1
 849 1011 726 1048 611 1048 c 0
 349 1048 112 849 112 509 c 0
 112 177 340 -22 605 -22 c 0
EndSplineSet
EndChar

StartChar: caron
Encoding: 711 711 155
Width: 709
VWidth: 0
GlyphClass: 2
Flags: HW
HStem: 1170 323<39 278 39 434>
VStem: 39 633<1493 1493>
AnchorPoint: "top" 362 1025 mark 0
LayerCount: 2
UndoRedoHistory
Layer: 0
Undoes
EndUndoes
Redoes
EndRedoes
EndUndoRedoHistory
UndoRedoHistory
Layer: 1
Undoes
EndUndoes
Redoes
EndRedoes
EndUndoRedoHistory
Fore
SplineSet
278 1170 m 1
 39 1493 l 1
 186 1493 l 1
 350 1278 l 1
 518 1493 l 1
 672 1493 l 1
 434 1170 l 1
 278 1170 l 1
EndSplineSet
EndChar

StartChar: cedilla
Encoding: 184 184 160
Width: 539
VWidth: 0
GlyphClass: 2
Flags: HW
HStem: -396 83<207 254 194 297.5> -168 78<221.5 278>
VStem: 335 143<-269 -211.5>
AnchorPoint: "bottom" 290 0 mark 0
LayerCount: 2
UndoRedoHistory
Layer: 0
Undoes
EndUndoes
Redoes
EndRedoes
EndUndoRedoHistory
UndoRedoHistory
Layer: 1
Undoes
EndUndoes
Redoes
EndRedoes
EndUndoRedoHistory
Fore
SplineSet
237 -396 m 0
 358 -396 478 -359 478 -239 c 0
 478 -131 382 -95 278 -90 c 1
 269 -90 l 1
 287 17 l 1
 190 17 l 1
 157 -173 l 1
 189 -171 l 2
 200 -170 217 -168 226 -168 c 0
 286 -168 335 -182 335 -241 c 0
 335 -297 287 -313 221 -313 c 0
 167 -313 120 -301 70 -289 c 1
 62 -374 l 1
 116 -385 177 -396 237 -396 c 0
EndSplineSet
EndChar

StartChar: cent
Encoding: 162 162 161
Width: 1180
VWidth: 0
GlyphClass: 2
Flags: HW
HStem: -20 142<552 552 552 660> 904 145<552 552>
VStem: 104 173<396.5 611 396.5 654> 552 108<-235 -20 -235 -20 122 904 904 904 1049 1281>
LayerCount: 2
UndoRedoHistory
Layer: 0
Undoes
EndUndoes
Redoes
EndRedoes
EndUndoRedoHistory
UndoRedoHistory
Layer: 1
Undoes
EndUndoes
Redoes
EndRedoes
EndUndoRedoHistory
Fore
SplineSet
552 -235 m 1
 552 -20 l 1
 297 6 104 213 104 503 c 0
 104 805 276 1024 552 1049 c 1
 552 1281 l 1
 660 1281 l 1
 660 1049 l 1
 789 1039 891 991 951 912 c 1
 874 801 l 1
 825 862 752 898 660 907 c 1
 660 120 l 1
 742 129 835 159 931 225 c 1
 967 87 l 1
 861 23 755 -10 660 -20 c 1
 660 -235 l 1
 552 -235 l 1
552 122 m 1
 552 904 l 1
 372 874 277 714 277 508 c 0
 277 285 389 148 552 122 c 1
EndSplineSet
EndChar

StartChar: circumflex
Encoding: 710 710 162
Width: 709
VWidth: 0
GlyphClass: 2
Flags: HW
HStem: 1170 324<45 273 171 273 273 659>
VStem: 45 614<1170 1170>
AnchorPoint: "top" 365 1025 mark 0
LayerCount: 2
UndoRedoHistory
Layer: 0
Undoes
EndUndoes
Redoes
EndRedoes
EndUndoRedoHistory
UndoRedoHistory
Layer: 1
Undoes
EndUndoes
Redoes
EndRedoes
EndUndoRedoHistory
Fore
SplineSet
273 1494 m 1
 45 1170 l 1
 171 1170 l 1
 349 1386 l 1
 527 1170 l 1
 659 1170 l 1
 430 1494 l 1
 273 1494 l 1
EndSplineSet
EndChar

StartChar: colon
Encoding: 58 58 163
Width: 550
VWidth: 0
GlyphClass: 2
Flags: HW
HStem: -11 210<169 386 169 386> 841 210<169 386 169 386>
VStem: 169 217<-11 199 -11 199 841 1051>
LayerCount: 2
UndoRedoHistory
Layer: 0
Undoes
EndUndoes
Redoes
EndRedoes
EndUndoRedoHistory
UndoRedoHistory
Layer: 1
Undoes
EndUndoes
Redoes
EndRedoes
EndUndoRedoHistory
Fore
SplineSet
169 -11 m 1
 169 199 l 1
 386 199 l 1
 386 -11 l 1
 169 -11 l 1
169 841 m 1
 169 1051 l 1
 386 1051 l 1
 386 841 l 1
 169 841 l 1
EndSplineSet
EndChar

StartChar: comma
Encoding: 44 44 164
Width: 550
VWidth: 0
GlyphClass: 2
Flags: HW
HStem: -310 517<88 382 195 219>
VStem: 88 294
LayerCount: 2
UndoRedoHistory
Layer: 0
Undoes
EndUndoes
Redoes
EndRedoes
EndUndoRedoHistory
UndoRedoHistory
Layer: 1
Undoes
EndUndoes
Redoes
EndRedoes
EndUndoRedoHistory
Fore
SplineSet
88 -310 m 1
 195 207 l 1
 382 207 l 1
 219 -310 l 1
 88 -310 l 1
EndSplineSet
EndChar

StartChar: copyright
Encoding: 169 169 166
Width: 1790
VWidth: 0
GlyphClass: 2
Flags: HW
HStem: -32 117<802 1001.5 802 1022.5> 249 131<929.5 985.5> 1080 128<902.5 983.5> 1366 117<799 997.5>
VStem: 113 127<691.5 826.5 627 846.5> 461 153<695.5 757 649.5 844> 1552 127<624.5 759.5 605 824>
LayerCount: 2
UndoRedoHistory
Layer: 0
Undoes
EndUndoes
Redoes
EndRedoes
EndUndoRedoHistory
UndoRedoHistory
Layer: 1
Undoes
EndUndoes
Redoes
EndRedoes
EndUndoRedoHistory
Fore
SplineSet
928 249 m 0
 1043 249 1141 279 1224 339 c 1
 1187 460 l 1
 1129 411 1055 380 958 380 c 0
 901 380 852 390 809 408 c 0
 693 458 614 566 614 733 c 0
 614 781 622 826 636 868 c 0
 678 989 776 1080 932 1080 c 0
 1035 1080 1121 1048 1191 985 c 1
 1221 1105 l 1
 1143 1174 1048 1208 938 1208 c 0
 867 1208 803 1196 745 1172 c 0
 583 1106 461 959 461 729 c 0
 461 662 473 600 497 542 c 0
 564 378 710 249 928 249 c 0
903 -32 m 0
 1142 -32 1319 67 1446 192 c 0
 1570 313 1679 485 1679 725 c 0
 1679 794 1669 860 1650 924 c 0
 1609 1059 1535 1170 1446 1258 c 0
 1318 1383 1139 1483 897 1483 c 0
 658 1483 475 1385 347 1260 c 0
 223 1139 113 967 113 726 c 0
 113 657 123 590 142 526 c 0
 183 391 256 280 346 192 c 0
 474 67 661 -32 903 -32 c 0
902 85 m 0
 702 85 539 164 428 270 c 1
 323 373 240 527 240 727 c 0
 240 926 323 1080 428 1182 c 1
 538 1286 700 1366 898 1366 c 0
 1097 1366 1257 1285 1364 1180 c 0
 1469 1077 1552 924 1552 724 c 0
 1552 525 1469 372 1365 270 c 0
 1258 165 1101 85 902 85 c 0
EndSplineSet
EndChar

StartChar: currency
Encoding: 164 164 167
Width: 1223
VWidth: 0
GlyphClass: 2
Flags: HW
HStem: 274 77<519.5 612> 965 83
VStem: 185 88<610 707.5> 851 92<651 651>
LayerCount: 2
UndoRedoHistory
Layer: 0
Undoes
EndUndoes
Redoes
EndRedoes
EndUndoRedoHistory
UndoRedoHistory
Layer: 1
Undoes
EndUndoes
Redoes
EndRedoes
EndUndoRedoHistory
Fore
SplineSet
980 210 m 1
 814 371 l 1
 748 310 660 274 564 274 c 0
 475 274 392 308 327 363 c 1
 167 195 l 1
 131 232 l 1
 290 398 l 1
 226 467 185 559 185 661 c 0
 185 754 221 840 279 908 c 1
 116 1065 l 1
 155 1104 l 1
 315 947 l 1
 384 1011 476 1050 573 1048 c 0
 661 1046 743 1012 806 956 c 1
 962 1120 l 1
 1002 1081 l 1
 844 917 l 1
 908 846 945 753 943 651 c 0
 941 557 906 473 849 408 c 1
 1017 246 l 1
 980 210 l 1
562 351 m 0
 724 351 847 482 851 651 c 0
 855 820 731 961 570 965 c 0
 408 969 273 827 273 658 c 0
 273 489 400 351 562 351 c 0
EndSplineSet
EndChar

StartChar: d
Encoding: 100 100 168
Width: 1209
VWidth: 0
GlyphClass: 2
Flags: HW
HStem: -22 136<465.5 605.5> 912 136<540.5 683.5 513 690> 1506 20<851 1016 851 851>
VStem: 110 171 849 165
AnchorPoint: "top" 800 1456 basechar 0
AnchorPoint: "bottom" 836 0 basechar 0
LayerCount: 2
UndoRedoHistory
Layer: 0
Undoes
EndUndoes
Redoes
EndRedoes
EndUndoRedoHistory
UndoRedoHistory
Layer: 1
Undoes
EndUndoes
Redoes
EndRedoes
EndUndoRedoHistory
Fore
SplineSet
283 459 m 0
 283 714 420 912 661 912 c 0
 719 912 782 901 852 876 c 1
 852 497 l 2
 852 258 726 114 537 114 c 0
 394 114 283 229 283 459 c 0
871 161 m 1
 898 44 982 -14 1132 -14 c 1
 1161 121 l 1
 1030 121 1016 189 1016 314 c 2
 1016 1526 l 1
 851 1526 l 1
 851 1010 l 1
 786 1033 716 1048 651 1048 c 0
 375 1048 112 855 112 460 c 0
 112 145 290 -22 524 -22 c 0
 687 -22 802 44 871 161 c 1
EndSplineSet
EndChar

StartChar: dagger
Encoding: 8224 8224 169
Width: 1024
VWidth: 0
GlyphClass: 2
Flags: HW
HStem: 934 132<117 440 117 440 117 568 581 921> 1431 20<440 581 581 581>
VStem: 440 128<113 934 113 934>
LayerCount: 2
UndoRedoHistory
Layer: 0
Undoes
EndUndoes
Redoes
EndRedoes
EndUndoRedoHistory
UndoRedoHistory
Layer: 1
Undoes
EndUndoes
Redoes
EndRedoes
EndUndoRedoHistory
Fore
SplineSet
440 113 m 1
 440 934 l 1
 117 934 l 1
 117 1066 l 1
 440 1066 l 1
 440 1451 l 1
 581 1451 l 1
 581 1066 l 1
 921 1066 l 1
 921 934 l 1
 568 934 l 1
 568 113 l 1
 440 113 l 1
EndSplineSet
EndChar

StartChar: daggerdbl
Encoding: 8225 8225 170
Width: 1023
VWidth: 0
GlyphClass: 2
Flags: HW
HStem: 435 127<108 448 108 448 108 571 571 911> 983 132<114 448 114 454 114 571 578 918> 1431 20<429 598 598 598>
VStem: 448 123<435 435 562 983>
LayerCount: 2
UndoRedoHistory
Layer: 0
Undoes
EndUndoes
Redoes
EndRedoes
EndUndoRedoHistory
UndoRedoHistory
Layer: 1
Undoes
EndUndoes
Redoes
EndRedoes
EndUndoRedoHistory
Fore
SplineSet
427 113 m 1
 448 435 l 1
 108 435 l 1
 108 562 l 1
 448 562 l 1
 448 983 l 1
 114 983 l 1
 114 1115 l 1
 454 1115 l 1
 429 1451 l 1
 598 1451 l 1
 578 1115 l 1
 918 1115 l 1
 918 983 l 1
 571 983 l 1
 571 562 l 1
 911 562 l 1
 911 435 l 1
 571 435 l 1
 596 113 l 1
 427 113 l 1
EndSplineSet
EndChar

StartChar: degree
Encoding: 176 176 172
Width: 854
VWidth: 0
GlyphClass: 2
Flags: HW
HStem: 855 116<410.5 445.5> 1328 116<402.5 437>
VStem: 105 125<1129.5 1163.5 1107.5 1219.5> 618 125<1138.5 1170.5 1080 1194>
LayerCount: 2
UndoRedoHistory
Layer: 0
Undoes
EndUndoes
Redoes
EndRedoes
EndUndoRedoHistory
UndoRedoHistory
Layer: 1
Undoes
EndUndoes
Redoes
EndRedoes
EndUndoRedoHistory
Fore
SplineSet
424 971 m 0
 397 971 371 976 348 985 c 0
 285 1010 230 1064 230 1151 c 0
 230 1176 236 1200 246 1222 c 0
 275 1282 337 1328 424 1328 c 0
 450 1328 474 1323 498 1314 c 0
 561 1290 618 1237 618 1151 c 0
 618 1126 613 1102 603 1080 c 0
 575 1019 512 971 424 971 c 0
424 855 m 0
 467 855 507 862 546 878 c 0
 648 919 743 1010 743 1150 c 0
 743 1191 735 1228 718 1264 c 0
 671 1363 568 1444 424 1444 c 0
 381 1444 340 1436 301 1421 c 0
 199 1380 105 1289 105 1150 c 0
 105 1109 113 1072 130 1036 c 0
 177 937 281 855 424 855 c 0
EndSplineSet
EndChar

StartChar: dieresis
Encoding: 168 168 173
Width: 753
VWidth: 0
GlyphClass: 2
Flags: HW
HStem: 1183 163<131 295 131 295 463 627>
VStem: 131 164<1183 1346 1183 1346> 463 164<1183 1346 1183 1346>
AnchorPoint: "top" 378 1026 mark 0
LayerCount: 2
UndoRedoHistory
Layer: 0
Undoes
EndUndoes
Redoes
EndRedoes
EndUndoRedoHistory
UndoRedoHistory
Layer: 1
Undoes
EndUndoes
Redoes
EndRedoes
EndUndoRedoHistory
Fore
SplineSet
131 1183 m 1
 131 1346 l 1
 295 1346 l 1
 295 1183 l 1
 131 1183 l 1
463 1183 m 1
 463 1346 l 1
 627 1346 l 1
 627 1183 l 1
 463 1183 l 1
EndSplineSet
EndChar

StartChar: divide
Encoding: 247 247 174
Width: 1445
VWidth: 0
GlyphClass: 2
Flags: HW
HStem: 21 210<622 830 622 830> 485 139<208 1234 208 1234> 873 210<622 830 622 830>
VStem: 622 208<21 231 21 231 873 1083>
LayerCount: 2
UndoRedoHistory
Layer: 0
Undoes
EndUndoes
Redoes
EndRedoes
EndUndoRedoHistory
UndoRedoHistory
Layer: 1
Undoes
EndUndoes
Redoes
EndRedoes
EndUndoRedoHistory
Fore
SplineSet
622 873 m 1
 830 873 l 1
 830 1083 l 1
 622 1083 l 1
 622 873 l 1
208 485 m 1
 1234 485 l 1
 1234 624 l 1
 208 624 l 1
 208 485 l 1
622 21 m 1
 830 21 l 1
 830 231 l 1
 622 231 l 1
 622 21 l 1
EndSplineSet
EndChar

StartChar: dollar
Encoding: 36 36 175
Width: 1238
VWidth: 0
GlyphClass: 2
Flags: HW
HStem: -16 143<551 552> 1299 140<672 673>
VStem: 163 189<1019 1105.5> 554 119<605 648> 906 179<341.5 419 269 432.5>
LayerCount: 2
UndoRedoHistory
Layer: 0
Undoes
EndUndoes
Redoes
EndRedoes
EndUndoRedoHistory
UndoRedoHistory
Layer: 1
Undoes
EndUndoes
Redoes
EndRedoes
EndUndoRedoHistory
Fore
SplineSet
556 -172 m 1
 674 -172 l 1
 671 -11 l 1
 726 -6 779 5 828 24 c 0
 963 74 1085 177 1085 361 c 0
 1085 477 1043 547 977 604 c 0
 894 677 789 722 671 770 c 1
 673 1299 l 1
 791 1295 884 1261 953 1198 c 1
 1002 1326 l 1
 922 1394 807 1436 672 1439 c 1
 669 1575 l 1
 550 1575 l 1
 554 1437 l 1
 446 1428 351 1377 285 1315 c 0
 221 1254 163 1164 163 1047 c 0
 163 991 174 944 195 904 c 0
 266 772 416 712 554 648 c 1
 551 127 l 1
 445 132 351 173 277 223 c 1
 228 89 l 1
 317 25 419 -13 552 -16 c 1
 556 -172 l 1
669 131 m 1
 673 605 l 1
 776 559 906 507 906 358 c 0
 906 325 899 296 887 270 c 0
 849 192 769 145 669 131 c 1
552 818 m 1
 449 858 352 913 352 1059 c 0
 352 1193 439 1278 554 1293 c 1
 552 818 l 1
EndSplineSet
EndChar

StartChar: dotaccent
Encoding: 729 729 176
Width: 534
VWidth: 0
GlyphClass: 2
Flags: HW
HStem: 1246 163<194 354 194 354>
VStem: 194 160<1246 1409 1246 1409>
AnchorPoint: "top" 325 1030 mark 0
LayerCount: 2
UndoRedoHistory
Layer: 0
Undoes
EndUndoes
Redoes
EndRedoes
EndUndoRedoHistory
UndoRedoHistory
Layer: 1
Undoes
EndUndoes
Redoes
EndRedoes
EndUndoRedoHistory
Fore
SplineSet
194 1246 m 1
 194 1409 l 1
 354 1409 l 1
 354 1246 l 1
 194 1246 l 1
EndSplineSet
EndChar

StartChar: dotlessi
Encoding: 305 305 177
Width: 513
VWidth: 0
GlyphClass: 2
Flags: HW
HStem: -5 123<433 467.5> 1006 20<177 342 177 177>
VStem: 177 165<172.5 1026 283 1026 283 1026>
AnchorPoint: "top" 258 1023 basechar 0
LayerCount: 2
UndoRedoHistory
Layer: 0
Undoes
EndUndoes
Redoes
EndRedoes
EndUndoRedoHistory
UndoRedoHistory
Layer: 1
Undoes
EndUndoes
Redoes
EndRedoes
EndUndoRedoHistory
Fore
SplineSet
444 -5 m 0
 491 -5 560 10 610 30 c 1
 590 141 l 1
 555 128 497 118 467 118 c 0
 399 118 342 143 342 283 c 2
 342 1026 l 1
 177 1026 l 1
 177 278 l 2
 177 67 302 -5 444 -5 c 0
EndSplineSet
EndChar

StartChar: e
Encoding: 101 101 178
Width: 1080
VWidth: 0
GlyphClass: 2
Flags: W
HStem: -22 136<467.917 822.053> 912 136<459.726 746.637>
VStem: 112 178<496.306 736.624> 794 163<646.654 863.371>
AnchorPoint: "top" 618 1026 basechar 0
AnchorPoint: "bottom" 666 0 basechar 0
AnchorPoint: "ogonek" 891 66 basechar 0
LayerCount: 2
UndoRedoHistory
Layer: 0
Undoes
EndUndoes
Redoes
EndRedoes
EndUndoRedoHistory
UndoRedoHistory
Layer: 1
Undoes
EndUndoes
Redoes
EndRedoes
EndUndoRedoHistory
Fore
SplineSet
618 -22 m 0
 744 -22 880 22 1000 119 c 1
 928 233 l 1
 843 152 738 114 638 114 c 0
 488 114 348 205 304 371 c 1
 673 425 957 506 957 751 c 0
 957 918 820 1048 613 1048 c 0
 302 1048 112 791 112 512 c 0
 112 175 345 -22 618 -22 c 0
293 490 m 1
 291 506 290 525 290 539 c 0
 290 789 457 912 614 912 c 0
 729 912 794 848 794 754 c 0
 794 593 587 534 293 490 c 1
EndSplineSet
EndChar

StartChar: e.alt
Encoding: 65540 -1 179
Width: 1062
VWidth: 0
GlyphClass: 2
Flags: HW
HStem: -19 142<528.5 659.5 528.5 667> 913 143<493.5 648>
VStem: 104 180<531 637 531 660.5> 773 163<674.5 800.5>
LayerCount: 2
UndoRedoHistory
Layer: 0
Undoes
EndUndoes
Redoes
EndRedoes
EndUndoRedoHistory
UndoRedoHistory
Layer: 1
Undoes
EndUndoes
Redoes
EndRedoes
EndUndoRedoHistory
Fore
SplineSet
586 -19 m 0
 748 -19 885 46 1003 170 c 1
 920 276 l 1
 846 187 726 123 593 123 c 0
 464 123 341 192 298 371 c 1
 649 425 936 506 936 751 c 0
 936 918 797 1056 589 1056 c 0
 279 1056 104 805 104 516 c 0
 104 176 333 -19 586 -19 c 0
287 490 m 1
 285 507 284 523 284 539 c 0
 284 735 397 913 590 913 c 0
 706 913 773 846 773 755 c 0
 773 594 562 534 287 490 c 1
EndSplineSet
EndChar

StartChar: eight
Encoding: 56 56 187
Width: 1232
VWidth: 0
GlyphClass: 2
Flags: HW
HStem: -22 142<534.5 712 534.5 753.5> 1347 136<540.5 696>
VStem: 140 177<300.5 476.5 300.5 483.5> 175 171<1031.5 1187.5 1031.5 1251> 897 171<1031.5 1194> 926 177<304.5 483.5>
LayerCount: 2
UndoRedoHistory
Layer: 0
Undoes
EndUndoes
Redoes
EndRedoes
EndUndoRedoHistory
UndoRedoHistory
Layer: 1
Undoes
EndUndoes
Redoes
EndRedoes
EndUndoRedoHistory
Fore
SplineSet
621 -22 m 0
 345 -22 140 133 140 377 c 0
 140 590 277 714 450 767 c 1
 298 816 175 928 175 1121 c 0
 175 1381 395 1483 621 1483 c 0
 880 1483 1068 1345 1068 1121 c 0
 1068 928 944 816 792 767 c 1
 965 714 1103 590 1103 377 c 0
 1103 101 886 -22 621 -22 c 0
621 120 m 0
 803 120 926 219 926 390 c 0
 926 577 772 661 621 693 c 1
 458 659 317 563 317 390 c 0
 317 211 448 120 621 120 c 0
621 840 m 1
 772 869 897 947 897 1116 c 0
 897 1272 771 1347 621 1347 c 0
 460 1347 346 1259 346 1116 c 0
 346 947 470 869 621 840 c 1
EndSplineSet
EndChar

StartChar: ellipsis
Encoding: 8230 8230 188
Width: 1604
VWidth: 0
GlyphClass: 2
Flags: HW
HStem: -11 210<169 386 169 386 696 913 1223 1440>
VStem: 169 217<-11 199 -11 199> 696 217<-11 199 -11 199> 1223 217<-11 199 -11 199>
LayerCount: 2
UndoRedoHistory
Layer: 0
Undoes
EndUndoes
Redoes
EndRedoes
EndUndoRedoHistory
UndoRedoHistory
Layer: 1
Undoes
EndUndoes
Redoes
EndRedoes
EndUndoRedoHistory
Fore
SplineSet
169 -11 m 1
 169 199 l 1
 386 199 l 1
 386 -11 l 1
 169 -11 l 1
696 -11 m 1
 696 199 l 1
 913 199 l 1
 913 -11 l 1
 696 -11 l 1
1223 -11 m 1
 1223 199 l 1
 1440 199 l 1
 1440 -11 l 1
 1223 -11 l 1
EndSplineSet
EndChar

StartChar: emdash
Encoding: 8212 8212 190
Width: 2114
VWidth: 0
GlyphClass: 2
Flags: HW
HStem: 489 137<7 2103 7 2103>
LayerCount: 2
UndoRedoHistory
Layer: 0
Undoes
EndUndoes
Redoes
EndRedoes
EndUndoRedoHistory
UndoRedoHistory
Layer: 1
Undoes
EndUndoes
Redoes
EndRedoes
EndUndoRedoHistory
Fore
SplineSet
7 489 m 1
 7 626 l 1
 2103 626 l 1
 2103 489 l 1
 7 489 l 1
EndSplineSet
EndChar

StartChar: endash
Encoding: 8211 8211 191
Width: 1071
VWidth: 0
GlyphClass: 2
Flags: HW
HStem: 489 137<4 1070 4 1070>
LayerCount: 2
UndoRedoHistory
Layer: 0
Undoes
EndUndoes
Redoes
EndRedoes
EndUndoRedoHistory
UndoRedoHistory
Layer: 1
Undoes
EndUndoes
Redoes
EndRedoes
EndUndoRedoHistory
Fore
SplineSet
4 489 m 1
 4 626 l 1
 1070 626 l 1
 1070 489 l 1
 4 489 l 1
EndSplineSet
EndChar

StartChar: equal
Encoding: 61 61 193
Width: 1242
VWidth: 0
GlyphClass: 2
Flags: HW
HStem: 403 137<190 1063 190 1063> 809 138<189 1062 189 1062>
LayerCount: 2
UndoRedoHistory
Layer: 0
Undoes
EndUndoes
Redoes
EndRedoes
EndUndoRedoHistory
UndoRedoHistory
Layer: 1
Undoes
EndUndoes
Redoes
EndRedoes
EndUndoRedoHistory
Fore
SplineSet
190 403 m 1
 1063 403 l 1
 1063 540 l 1
 190 540 l 1
 190 403 l 1
189 809 m 1
 1062 809 l 1
 1062 947 l 1
 189 947 l 1
 189 809 l 1
EndSplineSet
EndChar

StartChar: eth
Encoding: 240 240 194
Width: 1173
VWidth: 0
GlyphClass: 2
Flags: HW
HStem: -23 141<548.5 617> 757 140<510.5 630.5 510.5 651.5> 1026 137<616 814 616 867 616 867 1029 1174> 1470 20<647 647>
VStem: 98 176<413 539.5 366 554> 902 175<723 733 723 723>
LayerCount: 2
UndoRedoHistory
Layer: 0
Undoes
EndUndoes
Redoes
EndRedoes
EndUndoRedoHistory
UndoRedoHistory
Layer: 1
Undoes
EndUndoes
Redoes
EndRedoes
EndUndoRedoHistory
Fore
SplineSet
578 -23 m 0
 656 -23 726 -8 787 22 c 0
 990 121 1077 361 1077 672 c 0
 1077 805 1059 921 1029 1026 c 1
 1174 1026 l 1
 1174 1163 l 1
 977 1163 l 1
 904 1315 800 1428 647 1490 c 1
 572 1406 l 1
 678 1344 756 1271 814 1163 c 1
 616 1163 l 1
 616 1026 l 1
 867 1026 l 1
 890 937 901 847 902 733 c 1
 902 723 l 1
 833 838 717 897 544 897 c 0
 477 897 416 886 362 864 c 0
 209 802 98 662 98 446 c 0
 98 380 109 318 132 261 c 0
 199 93 353 -23 578 -23 c 0
571 118 m 0
 526 118 485 126 449 142 c 0
 346 188 274 291 274 441 c 0
 274 638 379 757 570 757 c 0
 733 757 845 664 887 536 c 1
 887 512 l 2
 887 290 787 118 571 118 c 0
EndSplineSet
EndChar

StartChar: exclam
Encoding: 33 33 195
Width: 747
VWidth: 0
GlyphClass: 2
Flags: HW
HStem: -6 223<350.5 406.5> 1436 20<280 467 280 280>
VStem: 265 227<76 135 70 141> 280 187<1456 1456> 331 86<373 373>
LayerCount: 2
UndoRedoHistory
Layer: 0
Undoes
EndUndoes
Redoes
EndRedoes
EndUndoRedoHistory
UndoRedoHistory
Layer: 1
Undoes
EndUndoes
Redoes
EndRedoes
EndUndoRedoHistory
Fore
SplineSet
378 -6 m 0
 435 -6 492 35 492 105 c 0
 492 165 452 217 379 217 c 0
 322 217 265 176 265 106 c 0
 265 46 305 -6 378 -6 c 0
331 373 m 1
 417 373 l 1
 467 1456 l 1
 280 1456 l 1
 331 373 l 1
EndSplineSet
EndChar

StartChar: exclamdown
Encoding: 161 161 196
Width: 747
VWidth: 0
GlyphClass: 2
Flags: HW
HStem: -6 21<264 451 451 451> 1233 223<334.5 390.5 325.5 399.5>
VStem: 249 227<1315 1374> 264 187<-6 -6> 315 86<1077 1077>
LayerCount: 2
UndoRedoHistory
Layer: 0
Undoes
EndUndoes
Redoes
EndRedoes
EndUndoRedoHistory
UndoRedoHistory
Layer: 1
Undoes
EndUndoes
Redoes
EndRedoes
EndUndoRedoHistory
Fore
SplineSet
264 -6 m 1
 451 -6 l 1
 401 1077 l 1
 315 1077 l 1
 264 -6 l 1
363 1233 m 0
 436 1233 476 1285 476 1345 c 0
 476 1415 419 1456 362 1456 c 0
 289 1456 249 1404 249 1344 c 0
 249 1274 306 1233 363 1233 c 0
EndSplineSet
EndChar

StartChar: f
Encoding: 102 102 197
Width: 711
VWidth: 0
GlyphClass: 2
Flags: HW
HStem: -404 135<153 173> 919 107<64 266 64 266 425 671> 1406 120<631.5 667 667 721>
VStem: 263 159
AnchorPoint: "top" 553 1464 basechar 0
AnchorPoint: "bottom" 376 0 basechar 0
LayerCount: 2
UndoRedoHistory
Layer: 0
Undoes
EndUndoes
Redoes
EndRedoes
EndUndoRedoHistory
UndoRedoHistory
Layer: 1
Undoes
EndUndoes
Redoes
EndRedoes
EndUndoRedoHistory
Fore
SplineSet
173 -404 m 1
 403 -393 425 -215 425 -83 c 2
 425 919 l 1
 671 919 l 1
 671 1026 l 1
 425 1026 l 1
 425 1196 l 2
 425 1393 542 1406 721 1406 c 1
 721 1526 l 1
 667 1526 l 2
 404 1526 266 1447 266 1194 c 2
 266 1026 l 1
 64 1026 l 1
 64 919 l 1
 266 919 l 1
 266 -76 l 2
 266 -227 239 -255 153 -269 c 1
 173 -404 l 1
EndSplineSet
EndChar

StartChar: five
Encoding: 53 53 198
Width: 1240
VWidth: 0
GlyphClass: 2
Flags: HW
HStem: -23 164 764 168 1292 164
VStem: 245 164 920 197
LayerCount: 2
UndoRedoHistory
Layer: 0
Undoes
EndUndoes
Redoes
EndRedoes
EndUndoRedoHistory
UndoRedoHistory
Layer: 1
Undoes
EndUndoes
Redoes
EndRedoes
EndUndoRedoHistory
Fore
SplineSet
619.213867188 -23 m 0
 458.37109375 -23 294.842773438 24.0419921875 175.665039062 146.413085938 c 1
 267.448242188 288.374023438 l 1
 365.60546875 179.196289062 496.583984375 140.647460938 616.37109375 140.647460938 c 0
 818.352539062 140.647460938 920.2734375 277.077148438 920.2734375 464.26953125 c 0
 920.2734375 629.20703125 828.45703125 763.592773438 652.454101562 763.592773438 c 0
 565.49609375 763.592773438 464.80078125 727.333984375 424.487304688 665.198242188 c 1
 245.448242188 673.275390625 l 1
 245.448242188 1456 l 1
 1029.83007812 1456 l 1
 1029.83007812 1291.70019531 l 1
 422.709960938 1291.70019531 l 1
 409.41015625 834.41796875 l 1
 471.07421875 900.295898438 574.388671875 931.575195312 669.059570312 931.575195312 c 0
 942.5703125 931.575195312 1117.29003906 731.1484375 1117.29003906 461.126953125 c 0
 1117.29003906 175.0078125 927.251953125 -23 619.213867188 -23 c 0
EndSplineSet
EndChar

StartChar: florin
Encoding: 402 402 199
Width: 1182
VWidth: 0
GlyphClass: 2
Flags: HW
HStem: -332 138<171.5 217.5> 803 140<351 490 490 490 677 864 864 864> 1294 142<825.5 882 748.5 903>
LayerCount: 2
UndoRedoHistory
Layer: 0
Undoes
EndUndoes
Redoes
EndRedoes
EndUndoRedoHistory
UndoRedoHistory
Layer: 1
Undoes
EndUndoes
Redoes
EndRedoes
EndUndoRedoHistory
Fore
SplineSet
187 -332 m 0
 248 -332 300 -320 340 -295 c 0
 462 -218 501 -52 533 120 c 1
 655 803 l 1
 864 803 l 1
 874 943 l 1
 677 943 l 1
 712 1139 l 2
 729 1236 768 1294 883 1294 c 0
 923 1294 959 1285 992 1272 c 1
 1000 1417 l 1
 956 1428 907 1436 857 1436 c 0
 640 1436 560 1288 535 1094 c 1
 513 943 l 1
 351 943 l 1
 341 803 l 1
 490 803 l 1
 441 538 403 260 343 7 c 0
 322 -84 285 -194 173 -194 c 0
 148 -194 122 -189 95 -178 c 1
 83 -316 l 1
 121 -327 156 -332 187 -332 c 0
EndSplineSet
EndChar

StartChar: four
Encoding: 52 52 200
Width: 1240
VWidth: 0
GlyphClass: 2
Flags: HW
HStem: 0 21<753.557 753.557 753.557 946.326> 386 150 1436 20<697.876 945.341 945.341 945.341>
VStem: 754 191
LayerCount: 2
UndoRedoHistory
Layer: 0
Undoes
EndUndoes
Redoes
EndRedoes
EndUndoRedoHistory
UndoRedoHistory
Layer: 1
Undoes
EndUndoes
Redoes
EndRedoes
EndUndoRedoHistory
Fore
SplineSet
753.556640625 0 m 1
 753.556640625 385.665039062 l 1
 114.842773438 385.665039062 l 1
 114.842773438 541.059570312 l 1
 697.875976562 1456 l 1
 945.340820312 1456 l 1
 945.340820312 535.735351562 l 1
 1162.65039062 535.735351562 l 1
 1162.65039062 385.665039062 l 1
 946.326171875 385.665039062 l 1
 946.326171875 0 l 1
 753.556640625 0 l 1
317.290039062 535.735351562 m 1
 754.400390625 535.735351562 l 1
 754.400390625 1247.29003906 l 1
 650.897460938 1080.66992188 l 1
 317.290039062 535.735351562 l 1
EndSplineSet
EndChar

StartChar: fraction
Encoding: 8260 8260 201
Width: 355
VWidth: 0
GlyphClass: 2
Flags: HW
HStem: 0 21<-327 -327 -327 -176>
LayerCount: 2
UndoRedoHistory
Layer: 0
Undoes
EndUndoes
Redoes
EndRedoes
EndUndoRedoHistory
UndoRedoHistory
Layer: 1
Undoes
EndUndoes
Redoes
EndRedoes
EndUndoRedoHistory
Fore
SplineSet
-327 0 m 1
 556 1436 l 1
 705 1436 l 1
 -176 0 l 1
 -327 0 l 1
EndSplineSet
EndChar

StartChar: g
Encoding: 103 103 202
Width: 1167
VWidth: 0
GlyphClass: 2
Flags: HW
HStem: -494 137<481.5 617.5 474.5 673.5> -22 136<463 588> 912 136<547 699.5>
VStem: 110 170 849 164
AnchorPoint: "top" 584 1027 basechar 0
AnchorPoint: "bottom" 592 -512 basechar 0
LayerCount: 2
UndoRedoHistory
Layer: 0
Undoes
EndUndoes
Redoes
EndRedoes
EndUndoRedoHistory
UndoRedoHistory
Layer: 1
Undoes
EndUndoes
Redoes
EndRedoes
EndUndoRedoHistory
Fore
SplineSet
530 -494 m 0
 817 -494 1015 -306 1015 -23 c 2
 1015 962 l 1
 935 1014 795 1048 666 1048 c 0
 334 1048 112 820 112 438 c 0
 112 162 280 -22 520 -22 c 0
 656 -22 775 28 851 153 c 1
 851 -44 l 2
 851 -232 718 -357 517 -357 c 0
 432 -357 312 -326 221 -280 c 1
 205 -433 l 1
 305 -470 433 -494 530 -494 c 0
541 114 m 0
 385 114 282 248 282 448 c 0
 282 734 431 912 663 912 c 0
 736 912 811 889 851 877 c 1
 851 476 l 2
 851 273 745 114 541 114 c 0
EndSplineSet
EndChar

StartChar: gcommaaccent
Encoding: 291 291 205
Width: 1129
VWidth: 0
GlyphClass: 2
Flags: HW
HStem: -494 137<475.5 611.5 468.5 667.5> -22 138<452 574> 907 141<541 693.5>
VStem: 100 170<348.5 585.5 348.5 621> 845 164<-44 -23 -23 133 133 133 453 872 872 872>
LayerCount: 2
UndoRedoHistory
Layer: 0
Undoes
EndUndoes
Redoes
EndRedoes
EndUndoRedoHistory
UndoRedoHistory
Layer: 1
Undoes
EndUndoes
Redoes
EndRedoes
EndUndoRedoHistory
Fore
SplineSet
524 -494 m 0
 427 -494 299 -470 199 -433 c 1
 218 -280 l 1
 308 -326 426 -357 511 -357 c 0
 712 -357 845 -232 845 -44 c 2
 845 133 l 1
 773 39 642 -22 506 -22 c 0
 266 -22 100 162 100 438 c 0
 100 804 328 1048 660 1048 c 0
 789 1048 929 1014 1009 962 c 1
 1009 -23 l 2
 1009 -306 811 -494 524 -494 c 0
530 116 m 0
 719 116 845 261 845 453 c 2
 845 872 l 1
 805 893 730 907 657 907 c 0
 425 907 270 723 270 448 c 0
 270 249 374 116 530 116 c 0
426 1162 m 1
 583 1625 l 1
 709 1625 l 1
 606 1162 l 1
 426 1162 l 1
EndSplineSet
EndChar

StartChar: germandbls
Encoding: 223 223 207
Width: 1267
VWidth: 0
GlyphClass: 2
Flags: HW
HStem: -23 132<743.5 826.5> 0 21<186 351 351 351> 1382 129<579.5 677>
VStem: 184 163<1071 1133 987.5 1176.5> 833 188<1174 1214 1142.5 1254.5> 996 187<259.5 374 252.5 379.5>
LayerCount: 2
UndoRedoHistory
Layer: 0
Undoes
EndUndoes
Redoes
EndRedoes
EndUndoRedoHistory
UndoRedoHistory
Layer: 1
Undoes
EndUndoes
Redoes
EndRedoes
EndUndoRedoHistory
Fore
SplineSet
802 -23 m 0
 851 -23 898 -14 944 3 c 0
 1074 52 1183 164 1183 341 c 0
 1183 407 1170 464 1143 514 c 0
 1064 661 906 747 732 798 c 0
 713 804 703 810 703 816 c 0
 703 827 720 834 729 838 c 0
 798 868 862 916 913 968 c 0
 965 1020 1021 1093 1021 1192 c 0
 1021 1236 1012 1277 994 1316 c 0
 935 1440 798 1511 614 1511 c 0
 545 1511 484 1501 430 1480 c 0
 277 1420 184 1282 184 1071 c 2
 186 0 l 1
 351 0 l 1
 351 101 350 217 350 326 c 0
 350 450 348 587 348 711 c 0
 348 820 347 937 347 1038 c 0
 347 1228 423 1382 613 1382 c 0
 741 1382 833 1318 833 1191 c 0
 833 1157 827 1125 814 1095 c 0
 773 1001 691 934 598 892 c 1
 582 756 l 1
 682 699 787 641 868 570 c 0
 934 512 996 437 996 322 c 0
 996 197 921 109 798 109 c 0
 689 109 607 173 546 243 c 1
 481 138 l 1
 553 47 658 -23 802 -23 c 0
EndSplineSet
EndChar

StartChar: grave
Encoding: 96 96 208
Width: 603
VWidth: 0
GlyphClass: 2
Flags: HW
HStem: 1172 320<11 343 11 472>
VStem: 11 461<1172 1492>
AnchorPoint: "top" 458 1022 mark 0
LayerCount: 2
UndoRedoHistory
Layer: 0
Undoes
EndUndoes
Redoes
EndRedoes
EndUndoRedoHistory
UndoRedoHistory
Layer: 1
Undoes
EndUndoes
Redoes
EndRedoes
EndUndoRedoHistory
Fore
SplineSet
343 1172 m 1
 11 1492 l 1
 225 1492 l 1
 472 1172 l 1
 343 1172 l 1
EndSplineSet
EndChar

StartChar: greater
Encoding: 62 62 209
Width: 1447
VWidth: 0
GlyphClass: 2
Flags: HW
LayerCount: 2
UndoRedoHistory
Layer: 0
Undoes
EndUndoes
Redoes
EndRedoes
EndUndoRedoHistory
UndoRedoHistory
Layer: 1
Undoes
EndUndoes
Redoes
EndRedoes
EndUndoRedoHistory
Fore
SplineSet
225 58 m 1
 225 212 l 1
 993 555 l 1
 230 926 l 1
 230 1078 l 1
 1214 594 l 1
 1214 505 l 1
 225 58 l 1
EndSplineSet
EndChar

StartChar: greaterequal
Encoding: 8805 8805 210
Width: 1339
VWidth: 0
GlyphClass: 2
Flags: HW
HStem: 9 122<171 1160 171 1160>
LayerCount: 2
UndoRedoHistory
Layer: 0
Undoes
EndUndoes
Redoes
EndRedoes
EndUndoRedoHistory
UndoRedoHistory
Layer: 1
Undoes
EndUndoes
Redoes
EndRedoes
EndUndoRedoHistory
Fore
SplineSet
171 9 m 1
 171 131 l 1
 1160 131 l 1
 1160 9 l 1
 171 9 l 1
206 1221 m 1
 1141 748 l 1
 1141 668 l 1
 202 218 l 1
 202 359 l 1
 963 707 l 1
 206 1081 l 1
 206 1221 l 1
EndSplineSet
EndChar

StartChar: guillemotleft
Encoding: 171 171 211
Width: 1153
VWidth: 0
GlyphClass: 2
Flags: HW
LayerCount: 2
UndoRedoHistory
Layer: 0
Undoes
EndUndoes
Redoes
EndRedoes
EndUndoRedoHistory
UndoRedoHistory
Layer: 1
Undoes
EndUndoes
Redoes
EndRedoes
EndUndoRedoHistory
Fore
SplineSet
524 171 m 1
 256 541 l 1
 530 914 l 1
 683 914 l 1
 426 541 l 1
 675 171 l 1
 524 171 l 1
883 171 m 1
 621 541 l 1
 888 914 l 1
 1047 914 l 1
 784 541 l 1
 1040 171 l 1
 883 171 l 1
EndSplineSet
EndChar

StartChar: guillemotright
Encoding: 187 187 212
Width: 1152
VWidth: 0
GlyphClass: 2
Flags: HW
LayerCount: 2
UndoRedoHistory
Layer: 0
Undoes
EndUndoes
Redoes
EndRedoes
EndUndoRedoHistory
UndoRedoHistory
Layer: 1
Undoes
EndUndoes
Redoes
EndRedoes
EndUndoRedoHistory
Fore
SplineSet
723 914 m 1
 992 542 l 1
 718 171 l 1
 567 171 l 1
 820 542 l 1
 574 914 l 1
 723 914 l 1
340 914 m 1
 602 542 l 1
 335 171 l 1
 175 171 l 1
 439 542 l 1
 182 914 l 1
 340 914 l 1
EndSplineSet
EndChar

StartChar: guilsinglleft
Encoding: 8249 8249 213
Width: 652
VWidth: 0
GlyphClass: 2
Flags: HW
VStem: 115 433<541 914>
LayerCount: 2
UndoRedoHistory
Layer: 0
Undoes
EndUndoes
Redoes
EndRedoes
EndUndoRedoHistory
UndoRedoHistory
Layer: 1
Undoes
EndUndoes
Redoes
EndRedoes
EndUndoRedoHistory
Fore
SplineSet
384 171 m 1
 115 541 l 1
 389 914 l 1
 548 914 l 1
 285 541 l 1
 540 171 l 1
 384 171 l 1
EndSplineSet
EndChar

StartChar: guilsinglright
Encoding: 8250 8250 214
Width: 652
VWidth: 0
GlyphClass: 2
Flags: HW
VStem: 113 434<171 542>
LayerCount: 2
UndoRedoHistory
Layer: 0
Undoes
EndUndoes
Redoes
EndRedoes
EndUndoRedoHistory
UndoRedoHistory
Layer: 1
Undoes
EndUndoes
Redoes
EndRedoes
EndUndoRedoHistory
Fore
SplineSet
276 914 m 1
 547 542 l 1
 270 171 l 1
 113 171 l 1
 375 542 l 1
 121 914 l 1
 276 914 l 1
EndSplineSet
EndChar

StartChar: h
Encoding: 104 104 215
Width: 1233
VWidth: 0
GlyphClass: 2
Flags: HW
HStem: -20 130<1155 1165 1165 1168 1168 1168> 0 21<164 328 328 328> 912 136<593 716> 1506 20<164 328 164 164>
VStem: 162 164 854 164
AnchorPoint: "top" 747 1260 basechar 0
AnchorPoint: "bottom" 655 0 basechar 0
LayerCount: 2
UndoRedoHistory
Layer: 0
Undoes
EndUndoes
Redoes
EndRedoes
EndUndoRedoHistory
UndoRedoHistory
Layer: 1
Undoes
EndUndoes
Redoes
EndRedoes
EndUndoRedoHistory
Fore
SplineSet
1168 -20 m 1
 1189 110 l 1
 1165 110 l 2
 1062 110 1030 172 1030 320 c 2
 1030 565 l 2
 1030 903 890 1048 666 1048 c 0
 520 1048 394 980 328 865 c 1
 328 1526 l 1
 164 1526 l 1
 164 0 l 1
 328 0 l 1
 328 541 l 2
 328 790 496 912 642 912 c 0
 790 912 866 808 866 562 c 2
 866 294 l 2
 866 74 947 -20 1155 -20 c 2
 1168 -20 l 1
EndSplineSet
EndChar

StartChar: hbar
Encoding: 295 295 216
Width: 1210
VWidth: 0
GlyphClass: 2
Flags: HW
HStem: -19 138<1118 1134> 0 21<162 326 162 162> 907 141<608 722> 1506 20 1624 134<340 891 340 891>
VStem: 162 164<0 532 875 1506 1506 1506> 853 165<284 320>
LayerCount: 2
UndoRedoHistory
Layer: 0
Undoes
EndUndoes
Redoes
EndRedoes
EndUndoRedoHistory
UndoRedoHistory
Layer: 1
Undoes
EndUndoes
Redoes
EndRedoes
EndUndoRedoHistory
Fore
SplineSet
1118 -19 m 1
 900 -51 851 48 853 284 c 2
 855 562 l 1
 855 804 796 907 648 907 c 0
 502 907 326 795 326 532 c 2
 326 0 l 1
 162 0 l 1
 162 1506 l 1
 326 1526 l 1
 326 875 l 1
 391 980 535 1048 681 1048 c 0
 906 1048 1023 903 1020 565 c 2
 1018 320 l 2
 1017 167 1010 95 1134 119 c 1
 1118 -19 l 1
340 1624 m 1
 340 1758 l 1
 891 1758 l 1
 891 1624 l 1
 340 1624 l 1
EndSplineSet
EndChar

StartChar: hungarumlaut
Encoding: 733 733 218
Width: 972
VWidth: 0
GlyphClass: 2
Flags: HW
HStem: 1174 313<172 559 172 559 438 553 438 438>
VStem: 172 656<1174 1487>
AnchorPoint: "top" 326 1026 mark 0
LayerCount: 2
UndoRedoHistory
Layer: 0
Undoes
EndUndoes
Redoes
EndRedoes
EndUndoRedoHistory
UndoRedoHistory
Layer: 1
Undoes
EndUndoes
Redoes
EndRedoes
EndUndoRedoHistory
Fore
SplineSet
172 1174 m 1
 389 1487 l 1
 559 1487 l 1
 290 1174 l 1
 172 1174 l 1
438 1174 m 1
 652 1487 l 1
 828 1487 l 1
 553 1174 l 1
 438 1174 l 1
EndSplineSet
EndChar

StartChar: hyphen
Encoding: 45 45 219
Width: 1247
VWidth: 0
GlyphClass: 2
Flags: HW
HStem: 637 143<229 1028 229 1028>
LayerCount: 2
UndoRedoHistory
Layer: 0
Undoes
EndUndoes
Redoes
EndRedoes
EndUndoRedoHistory
UndoRedoHistory
Layer: 1
Undoes
EndUndoes
Redoes
EndRedoes
EndUndoRedoHistory
Fore
SplineSet
229 637 m 1
 229 780 l 1
 1028 780 l 1
 1028 637 l 1
 229 637 l 1
EndSplineSet
EndChar

StartChar: i
Encoding: 105 105 220
Width: 621
VWidth: 0
GlyphClass: 2
Flags: HW
HStem: 1006 20<185 349 185 185> 1245 199<243 296>
VStem: 162 215<1312 1377 1311 1378> 185 164<121.5 1026 267 1026 267 1026>
AnchorPoint: "bottom" 266 1 basechar 0
LayerCount: 2
UndoRedoHistory
Layer: 0
Undoes
EndUndoes
Redoes
EndRedoes
EndUndoRedoHistory
UndoRedoHistory
Layer: 1
Undoes
EndUndoes
Redoes
EndRedoes
EndUndoRedoHistory
Fore
SplineSet
651 26 m 1
 628 145 l 1
 492 96 349 74 349 267 c 2
 349 1026 l 1
 185 1026 l 1
 185 262 l 2
 185 -19 419 -69 651 26 c 1
269 1245 m 0
 323 1245 377 1278 377 1344 c 0
 377 1410 324 1444 270 1444 c 0
 216 1444 162 1411 162 1345 c 0
 162 1279 215 1245 269 1245 c 0
EndSplineSet
EndChar

StartChar: ij
Encoding: 307 307 226
Width: 1137
VWidth: 0
GlyphClass: 2
Flags: HW
HStem: -435 128<449 467> 1006 20<177 341 341 341 805 969 969 969> 1245 199<235 288 862 915>
VStem: 154 215<1312 1377 1311 1378> 177 164<262 267 267 1026> 781 215<1312 1377 1311 1378> 805 164<29 35 35 1026>
LayerCount: 2
UndoRedoHistory
Layer: 0
Undoes
EndUndoes
Redoes
EndRedoes
EndUndoRedoHistory
UndoRedoHistory
Layer: 1
Undoes
EndUndoes
Redoes
EndRedoes
EndUndoRedoHistory
Fore
SplineSet
626 26 m 1
 403 -69 177 -19 177 262 c 2
 177 1026 l 1
 341 1026 l 1
 341 267 l 2
 341 74 473 96 604 145 c 1
 626 26 l 1
449 -435 m 1
 467 -307 l 1
 640 -367 805 -340 805 29 c 2
 805 1026 l 1
 969 1026 l 1
 969 35 l 2
 969 -416 725 -523 449 -435 c 1
261 1245 m 0
 207 1245 154 1279 154 1345 c 0
 154 1411 208 1444 262 1444 c 0
 316 1444 369 1410 369 1344 c 0
 369 1278 315 1245 261 1245 c 0
888 1245 m 0
 834 1245 781 1279 781 1345 c 0
 781 1411 835 1444 889 1444 c 0
 943 1444 996 1410 996 1344 c 0
 996 1278 942 1245 888 1245 c 0
EndSplineSet
EndChar

StartChar: infinity
Encoding: 8734 8734 228
Width: 1683
VWidth: 0
GlyphClass: 2
Flags: HW
HStem: 236 119<446.5 480 1197 1252> 829 115<405.5 471 1210.5 1243>
VStem: 106 130<586.5 608 538.5 663.5> 1442 139<542 620.5 510 667.5>
LayerCount: 2
UndoRedoHistory
Layer: 0
Undoes
EndUndoes
Redoes
EndRedoes
EndUndoRedoHistory
UndoRedoHistory
Layer: 1
Undoes
EndUndoes
Redoes
EndRedoes
EndUndoRedoHistory
Fore
SplineSet
461 236 m 0
 499 236 535 242 570 254 c 0
 689 297 773 391 845 488 c 1
 908 404 971 341 1031 299 c 0
 1091 257 1158 236 1229 236 c 0
 1275 236 1319 245 1361 262 c 0
 1482 311 1581 425 1581 595 c 0
 1581 646 1573 692 1556 735 c 0
 1507 859 1396 944 1231 944 c 0
 1190 944 1152 938 1117 926 c 0
 997 884 918 789 847 692 c 1
 819 730 790 765 760 796 c 0
 687 873 595 944 456 944 c 0
 355 944 271 900 214 847 c 1
 156 795 106 715 106 612 c 0
 106 561 114 512 132 467 c 0
 182 339 293 236 461 236 c 0
464 355 m 0
 429 355 398 362 370 375 c 0
 297 410 236 485 236 592 c 0
 236 624 241 654 251 683 c 0
 280 766 346 829 454 829 c 0
 488 829 519 822 549 810 c 0
 651 768 718 679 778 589 c 1
 736 529 688 468 633 424 c 0
 589 388 536 355 464 355 c 0
1232 355 m 0
 1162 355 1114 380 1070 415 c 0
 1009 463 962 523 911 592 c 1
 950 652 997 712 1051 756 c 0
 1096 793 1154 829 1227 829 c 0
 1259 829 1286 823 1313 812 c 0
 1382 782 1442 717 1442 618 c 0
 1442 466 1377 355 1232 355 c 0
EndSplineSet
EndChar

StartChar: integral
Encoding: 8747 8747 229
Width: 709
VWidth: 0
GlyphClass: 2
Flags: HW
HStem: -399 135<240.5 310 223.5 381> 1481 21<838 838> 1496 135<660 727.5 589 746.5>
VStem: 402 164<-47 -23 -23 1255 1255 1279>
LayerCount: 2
UndoRedoHistory
Layer: 0
Undoes
EndUndoes
Redoes
EndRedoes
EndUndoRedoHistory
UndoRedoHistory
Layer: 1
Undoes
EndUndoes
Redoes
EndRedoes
EndUndoRedoHistory
Fore
SplineSet
270 -399 m 0
 211 -399 182 -391 134 -378 c 1
 132 -249 l 1
 158 -259 205 -264 242 -264 c 0
 378 -264 402 -183 402 -47 c 2
 402 1255 l 2
 402 1477 478 1631 700 1631 c 0
 755 1631 792 1620 836 1610 c 1
 838 1481 l 1
 812 1491 765 1496 728 1496 c 0
 592 1496 566 1415 566 1279 c 2
 566 -23 l 2
 566 -245 492 -399 270 -399 c 0
EndSplineSet
EndChar

StartChar: j
Encoding: 106 106 232
Width: 549
VWidth: 0
GlyphClass: 2
Flags: HW
HStem: -463 131 1006 20<216 381 216 216> 1245 199<274 327>
VStem: 193 215<1312 1377 1311 1378> 217 164
AnchorPoint: "top" 710 1456 basechar 0
AnchorPoint: "bottom" 686 0 basechar 0
LayerCount: 2
UndoRedoHistory
Layer: 0
Undoes
EndUndoes
Redoes
EndRedoes
EndUndoRedoHistory
UndoRedoHistory
Layer: 1
Undoes
EndUndoes
Redoes
EndRedoes
EndUndoRedoHistory
Fore
SplineSet
101 -464 m 0
 302 -464 381 -360 381 -84 c 2
 381 1026 l 1
 216 1026 l 1
 216 -76 l 2
 216 -269 189 -329 78 -329 c 0
 20 -329 -35 -311 -35 -311 c 1
 -50 -443 l 1
 -17 -452 44 -464 101 -464 c 0
300 1245 m 0
 354 1245 408 1278 408 1344 c 0
 408 1410 355 1444 301 1444 c 0
 247 1444 193 1411 193 1345 c 0
 193 1279 246 1245 300 1245 c 0
EndSplineSet
EndChar

StartChar: k
Encoding: 107 107 234
Width: 1118
VWidth: 0
GlyphClass: 2
Flags: HW
HStem: 1006 20<852 852> 1506 20<164 328 164 164>
VStem: 162 164
AnchorPoint: "top" 777 1026 basechar 0
AnchorPoint: "bottom" 626 -1 basechar 0
LayerCount: 2
UndoRedoHistory
Layer: 0
Undoes
EndUndoes
Redoes
EndRedoes
EndUndoRedoHistory
UndoRedoHistory
Layer: 1
Undoes
EndUndoes
Redoes
EndRedoes
EndUndoRedoHistory
Fore
SplineSet
1112 129 m 1
 985 58 904 183 823 293 c 2
 663 512 l 1
 1000 976 l 1
 852 1026 l 1
 328 288 l 1
 328 1526 l 1
 164 1526 l 1
 164 60 l 2
 164 -24 254 -40 309 27 c 1
 574 390 l 1
 710 204 l 2
 827 44 931 -74 1100 -6 c 1
 1112 129 l 1
EndSplineSet
EndChar

StartChar: k.alt
Encoding: 65541 -1 235
Width: 1068
VWidth: 0
GlyphClass: 2
Flags: HW
HStem: 0 21<188 313 313 313 872 1053 1053 1053> 1006 20<808 985 808 808> 1506 20<188 351 188 188>
VStem: 188 163<308 1526 308 1526>
LayerCount: 2
UndoRedoHistory
Layer: 0
Undoes
EndUndoes
Redoes
EndRedoes
EndUndoRedoHistory
UndoRedoHistory
Layer: 1
Undoes
EndUndoes
Redoes
EndRedoes
EndUndoRedoHistory
Fore
SplineSet
188 0 m 1
 313 0 l 1
 409 149 506 297 602 445 c 1
 872 0 l 1
 1053 0 l 1
 689 580 l 1
 786 729 884 877 985 1026 c 1
 808 1026 l 1
 351 308 l 1
 351 1526 l 1
 188 1526 l 1
 188 0 l 1
EndSplineSet
EndChar

StartChar: kgreenlandic
Encoding: 312 312 237
Width: 1071
VWidth: 0
GlyphClass: 2
Flags: HW
HStem: 0 21<188 188 188 353 843 843 843 1062> 1006 20<188 353 353 353 800 1024 1024 1024>
VStem: 188 165<0 471 557 1026>
LayerCount: 2
UndoRedoHistory
Layer: 0
Undoes
EndUndoes
Redoes
EndRedoes
EndUndoRedoHistory
UndoRedoHistory
Layer: 1
Undoes
EndUndoes
Redoes
EndRedoes
EndUndoRedoHistory
Fore
SplineSet
188 0 m 1
 188 1026 l 1
 353 1026 l 1
 353 557 l 1
 800 1026 l 1
 1024 1026 l 1
 508 512 l 1
 691 338 871 174 1062 0 c 1
 843 0 l 1
 353 471 l 1
 353 0 l 1
 188 0 l 1
EndSplineSet
EndChar

StartChar: l
Encoding: 108 108 238
Width: 686
VWidth: 0
GlyphClass: 2
Flags: HW
HStem: -18 126<458.5 521> 1506 20<168 332 168 168>
VStem: 178 164
AnchorPoint: "top" 276 1474 basechar 0
AnchorPoint: "bottom" 274 0 basechar 0
LayerCount: 2
UndoRedoHistory
Layer: 0
Undoes
EndUndoes
Redoes
EndRedoes
EndUndoRedoHistory
UndoRedoHistory
Layer: 1
Undoes
EndUndoes
Redoes
EndRedoes
EndUndoRedoHistory
Fore
SplineSet
695 152 m 1
 631 125 566 108 509 108 c 0
 408 108 332 159 332 292 c 2
 332 1526 l 1
 168 1526 l 1
 168 300 l 2
 168 83 307 -18 484 -18 c 0
 558 -18 640 0 720 35 c 1
 695 152 l 1
EndSplineSet
EndChar

StartChar: less
Encoding: 60 60 243
Width: 1447
VWidth: 0
GlyphClass: 2
Flags: HW
LayerCount: 2
UndoRedoHistory
Layer: 0
Undoes
EndUndoes
Redoes
EndRedoes
EndUndoRedoHistory
UndoRedoHistory
Layer: 1
Undoes
EndUndoes
Redoes
EndRedoes
EndUndoRedoHistory
Fore
SplineSet
1212 48 m 1
 229 508 l 1
 229 595 l 1
 1216 1067 l 1
 1216 914 l 1
 448 552 l 1
 1212 200 l 1
 1212 48 l 1
EndSplineSet
EndChar

StartChar: lessequal
Encoding: 8804 8804 244
Width: 1340
VWidth: 0
GlyphClass: 2
Flags: HW
HStem: 9 122<171 1164 171 1164>
LayerCount: 2
UndoRedoHistory
Layer: 0
Undoes
EndUndoes
Redoes
EndRedoes
EndUndoRedoHistory
UndoRedoHistory
Layer: 1
Undoes
EndUndoes
Redoes
EndRedoes
EndUndoRedoHistory
Fore
SplineSet
1135 216 m 1
 207 666 l 1
 207 747 l 1
 1135 1219 l 1
 1135 1079 l 1
 382 710 l 1
 1135 357 l 1
 1135 216 l 1
171 9 m 1
 171 131 l 1
 1164 131 l 1
 1164 9 l 1
 171 9 l 1
EndSplineSet
EndChar

StartChar: logicalnot
Encoding: 172 172 245
Width: 1441
VWidth: 0
GlyphClass: 2
Flags: HW
HStem: 659 139<210 1082 210 1232>
VStem: 1082 150<238 659 659 659>
LayerCount: 2
UndoRedoHistory
Layer: 0
Undoes
EndUndoes
Redoes
EndRedoes
EndUndoRedoHistory
UndoRedoHistory
Layer: 1
Undoes
EndUndoes
Redoes
EndRedoes
EndUndoRedoHistory
Fore
SplineSet
1082 238 m 1
 1082 659 l 1
 210 659 l 1
 210 798 l 1
 1232 798 l 1
 1232 238 l 1
 1082 238 l 1
EndSplineSet
EndChar

StartChar: lozenge
Encoding: 9674 9674 246
Width: 1236
VWidth: 0
GlyphClass: 2
Flags: HW
HStem: 1450 20<572 674 674 674>
LayerCount: 2
UndoRedoHistory
Layer: 0
Undoes
EndUndoes
Redoes
EndRedoes
EndUndoRedoHistory
UndoRedoHistory
Layer: 1
Undoes
EndUndoes
Redoes
EndRedoes
EndUndoRedoHistory
Fore
SplineSet
615 98 m 1
 726 307 848 506 968 711 c 1
 851 916 733 1116 624 1324 c 1
 514 1114 391 917 271 713 c 1
 388 508 505 306 615 98 c 1
564 -45 m 1
 122 711 l 1
 572 1470 l 1
 674 1470 l 1
 1119 712 l 1
 666 -45 l 1
 564 -45 l 1
EndSplineSet
EndChar

StartChar: lslash
Encoding: 322 322 247
Width: 513
VWidth: 0
GlyphClass: 2
Flags: HW
HStem: 0 21<178 178 178 343> 1007 20<514 514> 1472 20<178 343 343 343>
VStem: 178 165<0 689 689 689 925 1492>
LayerCount: 2
UndoRedoHistory
Layer: 0
Undoes
EndUndoes
Redoes
EndRedoes
EndUndoRedoHistory
UndoRedoHistory
Layer: 1
Undoes
EndUndoes
Redoes
EndRedoes
EndUndoRedoHistory
Fore
SplineSet
178 0 m 1
 178 689 l 1
 10 589 l 1
 10 726 l 1
 178 826 l 1
 178 1492 l 1
 343 1492 l 1
 343 925 l 1
 514 1027 l 1
 514 890 l 1
 343 788 l 1
 343 0 l 1
 178 0 l 1
EndSplineSet
EndChar

StartChar: m
Encoding: 109 109 248
Width: 1932
VWidth: 0
GlyphClass: 2
Flags: HW
HStem: -20 131 0 21<209 373 373 373 891 1055 1055 1055> 912 136<633 754 1312.5 1433>
VStem: 209 164<0 525 525 652.5 0 676 0 525> 890 165 1561 164<210 565 353 562>
AnchorPoint: "top" 962 1024 basechar 0
AnchorPoint: "bottom" 956 0 basechar 0
LayerCount: 2
UndoRedoHistory
Layer: 0
Undoes
EndUndoes
Redoes
EndRedoes
EndUndoRedoHistory
UndoRedoHistory
Layer: 1
Undoes
EndUndoes
Redoes
EndRedoes
EndUndoRedoHistory
Fore
SplineSet
1857 -14 m 1
 1884 121 l 1
 1861 121 l 2
 1739 121 1725 180 1725 353 c 2
 1725 565 l 2
 1725 903 1616 1048 1391 1048 c 0
 1234 1048 1085 973 1006 827 c 1
 977 945 880 1048 722 1048 c 0
 544 1048 418 967 336 829 c 1
 329 902 275 981 228 1018 c 1
 86 937 l 1
 140 890 209 809 209 676 c 2
 209 0 l 1
 373 0 l 1
 373 525 l 2
 373 780 510 912 680 912 c 0
 828 912 891 808 891 562 c 2
 891 0 l 1
 1055 0 l 1
 1055 532 l 2
 1055 799 1213 912 1359 912 c 0
 1507 912 1561 808 1561 562 c 2
 1561 324 l 2
 1561 96 1629 -14 1840 -14 c 2
 1857 -14 l 1
EndSplineSet
EndChar

StartChar: macron
Encoding: 175 175 249
Width: 738
VWidth: 0
GlyphClass: 2
Flags: HW
HStem: 1183 134<89 661 89 661>
VStem: 89 572<1183 1317 1183 1317>
AnchorPoint: "top" 383 1026 mark 0
LayerCount: 2
UndoRedoHistory
Layer: 0
Undoes
EndUndoes
Redoes
EndRedoes
EndUndoRedoHistory
UndoRedoHistory
Layer: 1
Undoes
EndUndoes
Redoes
EndRedoes
EndUndoRedoHistory
Fore
SplineSet
89 1183 m 1
 89 1317 l 1
 661 1317 l 1
 661 1183 l 1
 89 1183 l 1
EndSplineSet
EndChar

StartChar: minus
Encoding: 8722 8722 250
Width: 1445
VWidth: 0
GlyphClass: 2
Flags: HW
HStem: 496 137<208 1235 208 1235>
LayerCount: 2
UndoRedoHistory
Layer: 0
Undoes
EndUndoes
Redoes
EndRedoes
EndUndoRedoHistory
UndoRedoHistory
Layer: 1
Undoes
EndUndoes
Redoes
EndRedoes
EndUndoRedoHistory
Fore
SplineSet
208 496 m 1
 208 633 l 1
 1235 633 l 1
 1235 496 l 1
 208 496 l 1
EndSplineSet
EndChar

StartChar: multiply
Encoding: 215 215 251
Width: 1455
VWidth: 0
GlyphClass: 2
Flags: HW
LayerCount: 2
UndoRedoHistory
Layer: 0
Undoes
EndUndoes
Redoes
EndRedoes
EndUndoRedoHistory
UndoRedoHistory
Layer: 1
Undoes
EndUndoes
Redoes
EndRedoes
EndUndoRedoHistory
Fore
SplineSet
435 154 m 1
 332 257 l 1
 626 554 l 1
 332 851 l 1
 435 954 l 1
 726 657 l 1
 1016 954 l 1
 1120 850 l 1
 825 554 l 1
 1120 258 l 1
 1016 154 l 1
 726 450 l 1
 435 154 l 1
EndSplineSet
EndChar

StartChar: n
Encoding: 110 110 252
Width: 1268
VWidth: 0
GlyphClass: 2
Flags: W
HStem: -14 135<1092.99 1193> 912 136<523.013 805.558>
VStem: 210 164<518 740.956> 901 164<148.75 338 576 802.346>
AnchorPoint: "top" 710 1456 basechar 0
AnchorPoint: "bottom" 686 0 basechar 0
LayerCount: 2
UndoRedoHistory
Layer: 0
Undoes
EndUndoes
Redoes
EndRedoes
EndUndoRedoHistory
UndoRedoHistory
Layer: 1
Undoes
EndUndoes
Redoes
EndRedoes
EndUndoRedoHistory
Fore
SplineSet
1224 121 m 1
 1193 121 l 2
 1088 121 1065 181 1065 311 c 2
 1065 584 l 2
 1065 904 912 1048 716 1048 c 0
 542 1048 399 960 337 829 c 1
 326 907 281 974 229 1019 c 1
 87 937 l 1
 135 897 210 813 210 679 c 2
 210 0 l 1
 374 0 l 1
 374 518 l 2
 374 796 522 912 670 912 c 0
 815 912 901 822 901 576 c 2
 901 338 l 2
 901 112 955 -14 1177 -14 c 2
 1197 -14 l 1
 1224 121 l 1
EndSplineSet
EndChar

StartChar: n.alt
Encoding: 65542 -1 253
Width: 1251
VWidth: 0
GlyphClass: 2
Flags: HW
HStem: -24 126<1085 1121> 0 21<190 355 355 355> 911 140<583.5 738.5> 1006 20<164 331 164 164>
VStem: 164 167<1026 1026> 190 165<0 652 652 699 0 652> 870 165<155 270 255 265>
LayerCount: 2
UndoRedoHistory
Layer: 0
Undoes
EndUndoes
Redoes
EndRedoes
EndUndoRedoHistory
UndoRedoHistory
Layer: 1
Undoes
EndUndoes
Redoes
EndRedoes
EndUndoRedoHistory
Fore
SplineSet
1085 -24 m 1
 1121 102 l 1
 1046 117 1035 142 1035 255 c 2
 1035 270 l 1
 1037 567 l 1
 1037 577 l 2
 1037 867 948 1051 664 1051 c 0
 503 1051 423 988 353 884 c 1
 331 1026 l 1
 164 1026 l 1
 170 977 190 784 190 699 c 2
 190 0 l 1
 355 0 l 1
 355 652 l 2
 355 799 489 911 637 911 c 0
 840 911 872 790 872 585 c 2
 872 572 l 1
 870 265 l 1
 870 248 l 2
 870 62 897 -2 1085 -24 c 1
EndSplineSet
EndChar

StartChar: nine
Encoding: 57 57 257
Width: 1236
VWidth: 0
GlyphClass: 2
Flags: HW
HStem: 515 136<511 667> 1334 149<535.5 751>
VStem: 134 172<907.5 1099.5 907.5 1138.5> 963 167<928 1097>
LayerCount: 2
UndoRedoHistory
Layer: 0
Undoes
EndUndoes
Redoes
EndRedoes
EndUndoRedoHistory
UndoRedoHistory
Layer: 1
Undoes
EndUndoes
Redoes
EndRedoes
EndUndoRedoHistory
Fore
SplineSet
537 -76 m 1
 991 598 l 1
 1082 729 1130 865 1130 991 c 0
 1130 1243 971 1483 627 1483 c 0
 348 1483 134 1282 134 995 c 0
 134 724 316 515 614 515 c 0
 720 515 792 569 800 575 c 1
 407 0 l 1
 537 -76 l 1
633 651 m 0
 389 651 306 821 306 994 c 0
 306 1205 433 1334 638 1334 c 0
 864 1334 963 1202 963 992 c 0
 963 791 852 651 633 651 c 0
EndSplineSet
EndChar

StartChar: nine.alt
Encoding: 65543 -1 258
Width: 1176
VWidth: 0
GlyphClass: 2
Flags: HW
HStem: -22 142<464.5 561.5> 533 140<476.5 633.5> 1312 141<545 598.5>
VStem: 98 176<951 1012 890.5 1096> 905 175<683 707 683 683>
LayerCount: 2
UndoRedoHistory
Layer: 0
Undoes
EndUndoes
Redoes
EndRedoes
EndUndoRedoHistory
UndoRedoHistory
Layer: 1
Undoes
EndUndoes
Redoes
EndRedoes
EndUndoRedoHistory
Fore
SplineSet
517 -22 m 0
 606 -22 685 -4 754 34 c 0
 971 152 1080 416 1080 758 c 0
 1080 870 1069 970 1046 1056 c 0
 987 1282 848 1453 581 1453 c 0
 509 1453 443 1441 384 1417 c 0
 221 1352 98 1208 98 984 c 0
 98 918 109 857 130 802 c 0
 192 642 336 533 547 533 c 0
 720 533 836 592 905 707 c 1
 905 683 l 1
 902 527 865 386 804 288 c 0
 747 196 656 120 520 120 c 0
 409 120 318 157 247 234 c 1
 193 121 l 1
 261 34 371 -22 517 -22 c 0
572 673 m 0
 381 673 274 792 274 989 c 0
 274 1035 281 1078 296 1117 c 0
 337 1228 429 1312 573 1312 c 0
 624 1312 670 1302 709 1283 c 0
 812 1232 893 1125 893 971 c 0
 893 925 884 884 867 847 c 0
 819 744 716 673 572 673 c 0
EndSplineSet
EndChar

StartChar: notequal
Encoding: 8800 8800 259
Width: 1339
VWidth: 0
GlyphClass: 2
Flags: HW
HStem: 325 120<180 471 180 180 171 599 656 1162> 728 121<180 670 180 180 170 798 854 1161>
LayerCount: 2
UndoRedoHistory
Layer: 0
Undoes
EndUndoes
Redoes
EndRedoes
EndUndoRedoHistory
UndoRedoHistory
Layer: 1
Undoes
EndUndoes
Redoes
EndRedoes
EndUndoRedoHistory
Fore
SplineSet
465 46 m 1
 345 64 l 1
 471 325 l 1
 180 325 l 1
 171 445 l 1
 529 445 l 1
 670 728 l 1
 180 728 l 1
 170 849 l 1
 725 849 l 1
 856 1123 l 1
 978 1105 l 1
 854 849 l 1
 1161 849 l 1
 1171 728 l 1
 798 728 l 1
 656 445 l 1
 1162 445 l 1
 1171 325 l 1
 599 325 l 1
 465 46 l 1
EndSplineSet
EndChar

StartChar: numbersign
Encoding: 35 35 261
Width: 1231
VWidth: 0
GlyphClass: 2
Flags: HW
HStem: 485 126<74 315 63 338 74 453 474 704 867 1102> 886 124<141 386 128 407 141 526 549 777 938 1165>
LayerCount: 2
UndoRedoHistory
Layer: 0
Undoes
EndUndoes
Redoes
EndRedoes
EndUndoRedoHistory
UndoRedoHistory
Layer: 1
Undoes
EndUndoes
Redoes
EndRedoes
EndUndoRedoHistory
Fore
SplineSet
231 60 m 1
 315 485 l 1
 63 485 l 1
 74 611 l 1
 338 611 l 1
 353 705 370 793 386 886 c 1
 128 886 l 1
 141 1010 l 1
 407 1010 l 1
 483 1420 l 1
 623 1420 l 1
 549 1010 l 1
 800 1010 l 1
 873 1420 l 1
 1016 1420 l 1
 938 1010 l 1
 1179 1010 l 1
 1165 886 l 1
 916 886 l 1
 867 611 l 1
 1116 611 l 1
 1102 485 l 1
 846 485 l 1
 766 60 l 1
 627 60 l 1
 704 485 l 1
 453 485 l 1
 374 60 l 1
 231 60 l 1
474 611 m 1
 728 611 l 1
 777 886 l 1
 526 886 l 1
 474 611 l 1
EndSplineSet
EndChar

StartChar: o
Encoding: 111 111 262
Width: 1208
VWidth: 0
GlyphClass: 2
Flags: W
HStem: -22 136<442.858 765.382> 912 136<448.414 764.766>
VStem: 107 170<300.403 722.491> 930 171<295.401 729.812>
AnchorPoint: "top" 603 1026 basechar 0
AnchorPoint: "bottom" 590 0 basechar 0
AnchorPoint: "ogonek" 680 0 basechar 0
LayerCount: 2
UndoRedoHistory
Layer: 0
Undoes
EndUndoes
Redoes
EndRedoes
EndUndoRedoHistory
UndoRedoHistory
Layer: 1
Undoes
EndUndoes
Redoes
EndRedoes
EndUndoRedoHistory
Fore
SplineSet
609 114 m 0
 803 114 930 273 930 511 c 0
 930 752 803 912 608 912 c 0
 410 912 277 751 277 509 c 0
 277 272 410 114 609 114 c 0
609 -22 m 0
 316 -22 107 191 107 511 c 0
 107 833 316 1048 608 1048 c 0
 896 1048 1101 834 1101 513 c 0
 1101 192 897 -22 609 -22 c 0
EndSplineSet
EndChar

StartChar: oe
Encoding: 339 339 267
Width: 1929
VWidth: 0
GlyphClass: 2
Flags: HW
HStem: -28 137<586.5 707.5 1379 1480.5> 470 139<1096 1096> 917 136<575.5 717 575.5 720.5 1323 1481.5>
VStem: 102 173<472 534.5 417 635> 928 168<450 470 450 609 450 628> 1655 173<609 680 472 701>
LayerCount: 2
UndoRedoHistory
Layer: 0
Undoes
EndUndoes
Redoes
EndRedoes
EndUndoRedoHistory
UndoRedoHistory
Layer: 1
Undoes
EndUndoes
Redoes
EndRedoes
EndUndoRedoHistory
Fore
SplineSet
606 -28 m 0
 809 -28 944 57 1005 209 c 1
 1065 62 1196 -28 1393 -28 c 0
 1599 -28 1740 63 1819 206 c 1
 1731 292 l 1
 1668 192 1557 109 1404 109 c 0
 1354 109 1311 118 1273 135 c 0
 1164 185 1100 296 1096 450 c 1
 1096 470 l 1
 1828 472 l 1
 1828 525 l 2
 1828 835 1686 1053 1388 1053 c 0
 1195 1053 1078 963 1010 821 c 1
 935 964 818 1053 616 1053 c 0
 535 1053 464 1039 401 1010 c 0
 227 932 102 761 102 509 c 0
 102 435 114 365 137 300 c 0
 205 110 360 -28 606 -28 c 0
616 109 m 0
 557 109 506 120 464 141 c 0
 345 200 275 327 275 507 c 0
 275 562 283 614 297 663 c 0
 337 802 436 917 608 917 c 0
 833 917 928 745 928 511 c 0
 928 287 832 109 616 109 c 0
1096 609 m 1
 1099 649 1108 688 1122 725 c 0
 1163 830 1253 917 1393 917 c 0
 1570 917 1655 793 1655 609 c 1
 1096 609 l 1
EndSplineSet
EndChar

StartChar: ogonek
Encoding: 731 731 268
Width: 518
VWidth: 0
GlyphClass: 2
Flags: HW
HStem: -390 109<273.5 308>
VStem: 58 141<-224.5 -196>
AnchorPoint: "ogonek" 318 0 mark 0
LayerCount: 2
UndoRedoHistory
Layer: 0
Undoes
EndUndoes
Redoes
EndRedoes
EndUndoRedoHistory
UndoRedoHistory
Layer: 1
Undoes
EndUndoes
Redoes
EndRedoes
EndUndoRedoHistory
Fore
SplineSet
276 -390 m 0
 340 -390 407 -380 453 -361 c 1
 453 -250 l 1
 407 -268 363 -281 299 -281 c 0
 248 -281 199 -250 199 -199 c 0
 199 -183 204 -167 214 -151 c 0
 256 -86 333 -42 402 0 c 1
 273 12 l 1
 219 -14 165 -49 125 -89 c 0
 92 -122 58 -167 58 -225 c 0
 58 -252 64 -276 75 -296 c 0
 109 -357 182 -390 276 -390 c 0
EndSplineSet
EndChar

StartChar: one
Encoding: 49 49 272
Width: 1258
VWidth: 0
GlyphClass: 2
Flags: HW
HStem: 0 21<668 840 840 840> 1436 20<675 840 675 675>
VStem: 668 172<0 1456 0 1288>
LayerCount: 2
UndoRedoHistory
Layer: 0
Undoes
EndUndoes
Redoes
EndRedoes
EndUndoRedoHistory
UndoRedoHistory
Layer: 1
Undoes
EndUndoes
Redoes
EndRedoes
EndUndoRedoHistory
Fore
SplineSet
668 0 m 1
 840 0 l 1
 840 1456 l 1
 675 1456 l 1
 607 1405 485 1330 369 1277 c 1
 410 1146 l 1
 516 1190 602 1238 668 1288 c 1
 668 0 l 1
EndSplineSet
EndChar

StartChar: onehalf
Encoding: 189 189 273
Width: 2676
VWidth: 0
GlyphClass: 2
Flags: HW
HStem: 0 21<-327 -176 -176 -176> 604 118<806 1155 806 1155 806 1155> 1323 117<852.5 936>
VStem: 1033 124<1197 1230.5 1160.5 1248.5> 1878 121<723 1008 723 723>
LayerCount: 2
UndoRedoHistory
Layer: 0
Undoes
EndUndoes
Redoes
EndRedoes
EndUndoRedoHistory
UndoRedoHistory
Layer: 1
Undoes
EndUndoes
Redoes
EndRedoes
EndUndoRedoHistory
Fore
SplineSet
631 604 m 1
 1155 604 l 1
 1155 722 l 1
 806 722 l 1
 894 802 984 879 1055 968 c 0
 1107 1033 1157 1108 1157 1213 c 0
 1157 1248 1149 1279 1137 1307 c 0
 1100 1388 1017 1440 904 1440 c 0
 772 1440 680 1370 639 1270 c 1
 721 1192 l 1
 753 1262 807 1323 898 1323 c 0
 974 1323 1033 1286 1033 1211 c 0
 1033 1183 1023 1152 1003 1118 c 0
 983 1084 956 1047 920 1006 c 0
 835 908 733 812 631 715 c 1
 631 604 l 1
1761 604 m 1
 2121 604 l 1
 2121 720 l 1
 1999 720 l 1
 1999 1427 l 1
 1894 1412 l 1
 1843 1381 1796 1354 1732 1333 c 1
 1731 1203 l 1
 1779 1222 1835 1248 1877 1271 c 1
 1877 1168 l 2
 1877 1116 1878 1067 1878 1008 c 2
 1878 723 l 1
 1761 723 l 1
 1761 604 l 1
-327 0 m 1
 -176 0 l 1
 695 1436 l 1
 552 1436 l 1
 -327 0 l 1
EndSplineSet
EndChar

StartChar: onequarter
Encoding: 188 188 274
Width: 2384
VWidth: 0
GlyphClass: 2
Flags: HW
HStem: 0 21<-327 -176 -176 -176> 604 119<619 736 619 969> 803 107<1614 1614 1614 1844 1966 2075>
VStem: 736 116<723 1008 723 723> 1844 122<615 1412 910 1412 910 1244>
LayerCount: 2
UndoRedoHistory
Layer: 0
Undoes
EndUndoes
Redoes
EndRedoes
EndUndoRedoHistory
UndoRedoHistory
Layer: 1
Undoes
EndUndoes
Redoes
EndRedoes
EndUndoRedoHistory
Fore
SplineSet
-327 0 m 1
 -176 0 l 1
 589 1262 l 1
 589 1203 l 1
 637 1222 693 1248 735 1271 c 1
 735 1168 l 2
 735 1116 736 1067 736 1008 c 2
 736 723 l 1
 619 723 l 1
 619 604 l 1
 969 604 l 1
 969 720 l 1
 852 720 l 1
 852 1427 l 1
 751 1412 l 1
 716 1391 683 1371 645 1354 c 1
 695 1436 l 1
 552 1436 l 1
 -327 0 l 1
1844 615 m 1
 1964 615 l 1
 1964 803 l 1
 2085 803 l 1
 2075 910 l 1
 1966 910 l 1
 1966 1412 l 1
 1832 1412 l 1
 1481 894 l 1
 1481 803 l 1
 1844 803 l 1
 1844 615 l 1
1614 910 m 1
 1844 1244 l 1
 1844 910 l 1
 1614 910 l 1
EndSplineSet
EndChar

StartChar: ordfeminine
Encoding: 170 170 275
Width: 755
VWidth: 0
GlyphClass: 2
Flags: HW
HStem: 768 103<309 377> 1369 108<348.5 453>
VStem: 76 136<959.5 1043.5> 546 131
LayerCount: 2
UndoRedoHistory
Layer: 0
Undoes
EndUndoes
Redoes
EndRedoes
EndUndoRedoHistory
UndoRedoHistory
Layer: 1
Undoes
EndUndoes
Redoes
EndRedoes
EndUndoRedoHistory
Fore
SplineSet
327 768 m 0
 427 768 502 805 547 860 c 1
 553 786 l 1
 684 786 l 1
 679 846 677 870 677 914 c 2
 679 1235 l 1
 679 1400 568 1477 404 1477 c 0
 272 1477 172 1436 121 1350 c 1
 188 1275 l 1
 232 1340 299 1369 398 1369 c 0
 508 1369 546 1329 546 1219 c 2
 546 1211 l 1
 472 1201 393 1202 319 1192 c 1
 199 1174 76 1112 76 975 c 0
 76 944 82 916 95 890 c 0
 132 814 215 768 327 768 c 0
348 871 m 0
 270 871 212 899 212 977 c 0
 212 1115 434 1088 546 1110 c 1
 546 1085 l 1
 540 962 478 871 348 871 c 0
EndSplineSet
EndChar

StartChar: ordmasculine
Encoding: 186 186 276
Width: 824
VWidth: 0
GlyphClass: 2
Flags: HW
HStem: 767 108<350 449> 1369 107<392 488>
VStem: 63 140<1050 1193.5 1050 1207.5> 637 138<1049 1146 1037.5 1191.5>
LayerCount: 2
UndoRedoHistory
Layer: 0
Undoes
EndUndoes
Redoes
EndRedoes
EndUndoRedoHistory
UndoRedoHistory
Layer: 1
Undoes
EndUndoes
Redoes
EndRedoes
EndUndoRedoHistory
Fore
SplineSet
421 767 m 0
 477 767 527 776 571 795 c 0
 691 845 775 954 775 1121 c 0
 775 1171 767 1217 752 1260 c 0
 706 1390 591 1476 420 1476 c 0
 364 1476 316 1466 271 1448 c 0
 150 1398 63 1291 63 1124 c 0
 63 901 201 767 421 767 c 0
421 875 m 0
 279 875 203 977 203 1123 c 0
 203 1264 281 1369 418 1369 c 0
 558 1369 637 1264 637 1119 c 0
 637 979 558 875 421 875 c 0
EndSplineSet
EndChar

StartChar: oslash
Encoding: 248 248 277
Width: 1219
VWidth: 0
GlyphClass: 2
Flags: HW
HStem: -22 138<599.5 719 599.5 768> 907 141<514 634.5>
VStem: 102 170<434 628.5 434 672> 954 170<392.5 587>
LayerCount: 2
UndoRedoHistory
Layer: 0
Undoes
EndUndoes
Redoes
EndRedoes
EndUndoRedoHistory
UndoRedoHistory
Layer: 1
Undoes
EndUndoes
Redoes
EndRedoes
EndUndoRedoHistory
Fore
SplineSet
353 -261 m 1
 257 -229 l 1
 365 37 l 1
 202 121 102 290 102 511 c 0
 102 833 313 1048 617 1048 c 0
 671 1048 721 1041 768 1028 c 1
 869 1277 l 1
 969 1245 l 1
 863 990 l 1
 1023 906 1124 735 1124 513 c 0
 1124 192 918 -22 618 -22 c 0
 561 -22 508 -15 459 -1 c 1
 353 -261 l 1
422 175 m 1
 714 894 l 1
 684 903 652 907 617 907 c 0
 411 907 272 748 272 509 c 0
 272 359 328 241 422 175 c 1
618 116 m 0
 820 116 954 274 954 511 c 0
 954 663 898 783 806 849 c 1
 513 131 l 1
 546 121 581 116 618 116 c 0
EndSplineSet
EndChar

StartChar: p
Encoding: 112 112 279
Width: 1185
VWidth: 0
GlyphClass: 2
Flags: HW
HStem: -457 21 -22 136<552 661.5 529 736> 912 136<605 723>
VStem: 183 164 920 169
AnchorPoint: "top" 800 1456 basechar 0
AnchorPoint: "bottom" 836 0 basechar 0
LayerCount: 2
UndoRedoHistory
Layer: 0
Undoes
EndUndoes
Redoes
EndRedoes
EndUndoRedoHistory
UndoRedoHistory
Layer: 1
Undoes
EndUndoes
Redoes
EndRedoes
EndUndoRedoHistory
Fore
SplineSet
177 -439 m 1
 341 -439 l 1
 341 24 l 1
 429 -7 513 -22 591 -22 c 0
 881 -22 1083 186 1083 543 c 0
 1083 853 926 1048 669 1048 c 0
 541 1048 396 989 304 829 c 1
 289 923 233 989 195 1018 c 1
 54 937 l 1
 103 899 177 812 177 646 c 2
 177 -439 l 1
340 166 m 1
 340 508 l 2
 340 790 488 912 634 912 c 0
 812 912 914 785 914 541 c 0
 914 239 758 114 565 114 c 0
 493 114 416 132 340 166 c 1
EndSplineSet
EndChar

StartChar: paragraph
Encoding: 182 182 280
Width: 1207
VWidth: 0
GlyphClass: 2
Flags: HW
HStem: 1327 124<586 622 622 787 787 787 916 1003>
VStem: 117 469<1104.5 1262> 448 138<-148 1327 -148 786> 787 129<-148 1327 -148 1327>
LayerCount: 2
UndoRedoHistory
Layer: 0
Undoes
EndUndoes
Redoes
EndRedoes
EndUndoRedoHistory
UndoRedoHistory
Layer: 1
Undoes
EndUndoes
Redoes
EndRedoes
EndUndoRedoHistory
Fore
SplineSet
448 -148 m 1
 586 -148 l 1
 586 1327 l 1
 787 1327 l 1
 787 -148 l 1
 916 -148 l 1
 916 1327 l 1
 1003 1327 l 1
 1003 1451 l 1
 622 1451 l 2
 369 1451 117 1394 117 1130 c 0
 117 1079 126 1032 144 990 c 0
 192 877 296 788 448 786 c 1
 448 -148 l 1
EndSplineSet
EndChar

StartChar: parenleft
Encoding: 40 40 281
Width: 636
VWidth: 0
GlyphClass: 2
Flags: HW
LayerCount: 2
UndoRedoHistory
Layer: 0
Undoes
EndUndoes
Redoes
EndRedoes
EndUndoRedoHistory
UndoRedoHistory
Layer: 1
Undoes
EndUndoes
Redoes
EndRedoes
EndUndoRedoHistory
Fore
SplineSet
431 -214 m 1
 70 355 58 956 437 1551 c 1
 584 1551 l 1
 229 993 245 320 580 -214 c 1
 431 -214 l 1
EndSplineSet
EndChar

StartChar: parenright
Encoding: 41 41 282
Width: 636
VWidth: 0
GlyphClass: 2
Flags: HW
LayerCount: 2
UndoRedoHistory
Layer: 0
Undoes
EndUndoes
Redoes
EndRedoes
EndUndoRedoHistory
UndoRedoHistory
Layer: 1
Undoes
EndUndoes
Redoes
EndRedoes
EndUndoRedoHistory
Fore
SplineSet
66 -214 m 1
 401 320 417 993 62 1551 c 1
 209 1551 l 1
 588 956 576 355 215 -214 c 1
 66 -214 l 1
EndSplineSet
EndChar

StartChar: partialdiff
Encoding: 8706 8706 283
Width: 1153
VWidth: 0
GlyphClass: 2
Flags: HW
HStem: -24 135<477 523> 869 133<550 622> 1399 134<526.5 587.5>
VStem: 93 169<388.5 482 348.5 550.5> 890 171<900.5 910.5 731.5 1017>
LayerCount: 2
UndoRedoHistory
Layer: 0
Undoes
EndUndoes
Redoes
EndRedoes
EndUndoRedoHistory
UndoRedoHistory
Layer: 1
Undoes
EndUndoes
Redoes
EndRedoes
EndUndoRedoHistory
Fore
SplineSet
492 -24 m 0
 554 -24 613 -12 665 11 c 0
 774 60 857 146 918 252 c 0
 1007 407 1061 611 1061 852 c 0
 1061 969 1050 1070 1027 1156 c 0
 970 1373 840 1533 585 1533 c 0
 468 1533 361 1492 289 1442 c 1
 299 1304 l 1
 366 1351 453 1399 562 1399 c 0
 613 1399 658 1388 698 1366 c 0
 829 1293 890 1123 890 911 c 0
 890 890 889 856 889 836 c 1
 819 927 727 1002 583 1002 c 0
 516 1002 453 987 394 957 c 0
 223 870 93 681 93 420 c 0
 93 357 102 299 119 245 c 0
 170 87 292 -24 492 -24 c 0
495 111 m 0
 459 111 427 118 398 133 c 0
 310 178 262 280 262 417 c 0
 262 547 304 658 361 734 c 0
 413 804 495 869 605 869 c 0
 639 869 669 864 697 852 c 0
 781 817 840 744 872 655 c 1
 855 507 808 369 745 271 c 0
 692 190 613 111 495 111 c 0
EndSplineSet
EndChar

StartChar: percent
Encoding: 37 37 284
Width: 1978
VWidth: 0
GlyphClass: 2
Flags: HW
HStem: -27 113<1436.5 1477.5> -5 21<450 604 604 604> 622 113<1429.5 1525> 686 113<460 557.5> 1335 112<508.5 552.5>
VStem: 178 144<1037.5 1138.5 991 1152> 744 143<996 1127.5> 1107 144<324.5 423.5 292 439.5> 1655 144<284 430.5>
LayerCount: 2
UndoRedoHistory
Layer: 0
Undoes
EndUndoes
Redoes
EndRedoes
EndUndoRedoHistory
UndoRedoHistory
Layer: 1
Undoes
EndUndoes
Redoes
EndRedoes
EndUndoRedoHistory
Fore
SplineSet
530 686 m 0
 585 686 634 696 678 716 c 0
 801 772 887 892 887 1068 c 0
 887 1294 763 1447 536 1447 c 0
 481 1447 431 1438 387 1418 c 0
 263 1363 178 1240 178 1064 c 0
 178 1011 186 961 202 915 c 0
 247 783 354 686 530 686 c 0
1451 -27 m 0
 1504 -27 1551 -17 1593 3 c 0
 1713 59 1799 180 1799 356 c 0
 1799 582 1675 735 1456 735 c 0
 1403 735 1355 725 1313 705 c 0
 1192 649 1107 528 1107 351 c 0
 1107 298 1115 248 1131 202 c 0
 1177 70 1282 -27 1451 -27 c 0
534 799 m 0
 386 799 322 917 322 1065 c 0
 322 1212 387 1335 535 1335 c 0
 570 1335 602 1328 628 1314 c 0
 705 1273 744 1186 744 1069 c 0
 744 923 680 799 534 799 c 0
1454 86 m 0
 1419 86 1388 93 1363 107 c 0
 1289 148 1251 234 1251 350 c 0
 1251 497 1313 622 1455 622 c 0
 1595 622 1655 504 1655 357 c 0
 1655 211 1595 86 1454 86 c 0
450 -5 m 1
 604 -5 l 1
 1499 1436 l 1
 1350 1436 l 1
 450 -5 l 1
EndSplineSet
EndChar

StartChar: period
Encoding: 46 46 285
Width: 550
VWidth: 0
GlyphClass: 2
Flags: HW
HStem: -16 211<235 288>
VStem: 154 215<61.5 117.5 56 123>
LayerCount: 2
UndoRedoHistory
Layer: 0
Undoes
EndUndoes
Redoes
EndRedoes
EndUndoRedoHistory
UndoRedoHistory
Layer: 1
Undoes
EndUndoes
Redoes
EndRedoes
EndUndoRedoHistory
Fore
SplineSet
261 -16 m 0
 192 -16 154 33 154 90 c 0
 154 156 208 195 262 195 c 0
 331 195 369 146 369 89 c 0
 369 23 315 -16 261 -16 c 0
EndSplineSet
EndChar

StartChar: periodcentered
Encoding: 183 183 286
Width: 454
VWidth: 0
GlyphClass: 2
Flags: HW
HStem: 513 210<86 303 86 303>
VStem: 86 217<513 723 513 723>
LayerCount: 2
UndoRedoHistory
Layer: 0
Undoes
EndUndoes
Redoes
EndRedoes
EndUndoRedoHistory
UndoRedoHistory
Layer: 1
Undoes
EndUndoes
Redoes
EndRedoes
EndUndoRedoHistory
Fore
SplineSet
86 513 m 1
 86 723 l 1
 303 723 l 1
 303 513 l 1
 86 513 l 1
EndSplineSet
EndChar

StartChar: perthousand
Encoding: 8240 8240 287
Width: 2360
VWidth: 0
GlyphClass: 2
Flags: HW
HStem: -27 113<1112 1200 1880 1967> 567 114<1151.5 1241 1919.5 2008.5> 740 113<356 446.5> 1335 112<395 488>
VStem: 83 146<1028 1161.5 1028 1177.5> 614 145<1028 1160.5> 845 145<260 394.5 260 411> 1362 144<261.5 395> 1613 145<260 394.5 260 411> 2131 143<261 394>
LayerCount: 2
UndoRedoHistory
Layer: 0
Undoes
EndUndoes
Redoes
EndRedoes
EndUndoRedoHistory
UndoRedoHistory
Layer: 1
Undoes
EndUndoes
Redoes
EndRedoes
EndUndoRedoHistory
Fore
SplineSet
420 740 m 0
 473 740 521 748 563 766 c 0
 680 815 759 928 759 1092 c 0
 759 1312 642 1447 422 1447 c 0
 368 1447 320 1438 278 1420 c 0
 160 1371 83 1260 83 1095 c 0
 83 878 202 740 420 740 c 0
1174 -27 m 0
 1226 -27 1273 -18 1313 0 c 0
 1429 50 1506 160 1506 325 c 0
 1506 544 1389 681 1178 681 c 0
 1125 681 1078 672 1038 654 c 0
 921 604 845 494 845 328 c 0
 845 111 964 -27 1174 -27 c 0
1941 -27 m 0
 1993 -27 2040 -18 2080 0 c 0
 2195 49 2274 161 2274 325 c 0
 2274 545 2158 681 1946 681 c 0
 1893 681 1846 672 1806 654 c 0
 1689 604 1613 494 1613 328 c 0
 1613 112 1732 -27 1941 -27 c 0
424 853 m 0
 288 853 229 960 229 1096 c 0
 229 1227 290 1335 421 1335 c 0
 555 1335 614 1228 614 1093 c 0
 614 963 555 853 424 853 c 0
255 -21 m 1
 408 -21 l 1
 1328 1436 l 1
 1185 1436 l 1
 255 -21 l 1
1177 86 m 0
 1047 86 990 192 990 328 c 0
 990 461 1048 567 1176 567 c 0
 1306 567 1362 463 1362 327 c 0
 1362 196 1303 86 1177 86 c 0
1945 86 m 0
 1815 86 1758 192 1758 328 c 0
 1758 461 1816 567 1944 567 c 0
 2073 567 2131 461 2131 327 c 0
 2131 195 2072 86 1945 86 c 0
EndSplineSet
EndChar

StartChar: pi
Encoding: 960 960 288
Width: 1278
VWidth: 0
GlyphClass: 2
Flags: HW
HStem: -8 155<1057 1075.5> 907 133<486 842 842 842 1001 1205>
VStem: 182 202 842 159<191.5 907 288 907 288 907>
LayerCount: 2
UndoRedoHistory
Layer: 0
Undoes
EndUndoes
Redoes
EndRedoes
EndUndoRedoHistory
UndoRedoHistory
Layer: 1
Undoes
EndUndoes
Redoes
EndRedoes
EndUndoRedoHistory
Fore
SplineSet
1052 -8 m 0
 1099 -8 1144 -2 1189 6 c 1
 1179 35 1176 65 1176 100 c 0
 1176 110 1176 120 1177 130 c 2
 1179 160 l 1
 1150 151 1124 147 1099 147 c 0
 1015 147 1001 206 1001 288 c 2
 1001 907 l 1
 1205 907 l 1
 1205 1040 l 1
 379 1040 l 2
 237 1040 106 1037 27 977 c 1
 44 846 l 1
 121 887 204 904 321 907 c 1
 316 739 306 567 286 411 c 0
 267 263 242 105 182 0 c 1
 351 0 l 1
 363 21 374 51 384 88 c 0
 446 335 465 619 486 907 c 1
 842 907 l 1
 842 279 l 2
 842 104 879 -8 1052 -8 c 0
EndSplineSet
EndChar

StartChar: plus
Encoding: 43 43 289
Width: 1243
VWidth: 0
GlyphClass: 2
Flags: HW
HStem: 675 139<130 551 130 554 702 1123>
VStem: 551 149<202 675 202 675>
LayerCount: 2
UndoRedoHistory
Layer: 0
Undoes
EndUndoes
Redoes
EndRedoes
EndUndoRedoHistory
UndoRedoHistory
Layer: 1
Undoes
EndUndoes
Redoes
EndRedoes
EndUndoRedoHistory
Fore
SplineSet
551 202 m 1
 551 675 l 1
 130 675 l 1
 130 814 l 1
 554 814 l 1
 554 1282 l 1
 702 1282 l 1
 702 814 l 1
 1123 814 l 1
 1123 675 l 1
 700 675 l 1
 700 202 l 1
 551 202 l 1
EndSplineSet
EndChar

StartChar: plusminus
Encoding: 177 177 290
Width: 1451
VWidth: 0
GlyphClass: 2
Flags: HW
HStem: 0 138<210 1242 210 1242> 595 138<210 647 198 649 210 210 799 799 799 1238>
VStem: 647 149<733 1107 733 1107>
LayerCount: 2
UndoRedoHistory
Layer: 0
Undoes
EndUndoes
Redoes
EndRedoes
EndUndoRedoHistory
UndoRedoHistory
Layer: 1
Undoes
EndUndoes
Redoes
EndRedoes
EndUndoRedoHistory
Fore
SplineSet
649 223 m 1
 649 595 l 1
 210 595 l 1
 198 733 l 1
 647 733 l 1
 647 1107 l 1
 796 1107 l 1
 796 733 l 1
 1238 733 l 1
 1238 595 l 1
 799 595 l 1
 799 223 l 1
 649 223 l 1
210 0 m 1
 210 138 l 1
 1242 138 l 1
 1242 0 l 1
 210 0 l 1
EndSplineSet
EndChar

StartChar: product
Encoding: 8719 8719 291
Width: 1549
VWidth: 0
GlyphClass: 2
Flags: HW
HStem: 1278 145<136 261 136 136 436 436 436 1130 1308 1308 1308 1421>
VStem: 261 175<-329 1278 -329 1278> 1130 178<-329 1278 -329 1278>
LayerCount: 2
UndoRedoHistory
Layer: 0
Undoes
EndUndoes
Redoes
EndRedoes
EndUndoRedoHistory
UndoRedoHistory
Layer: 1
Undoes
EndUndoes
Redoes
EndRedoes
EndUndoRedoHistory
Fore
SplineSet
261 -329 m 1
 261 1278 l 1
 136 1278 l 1
 120 1423 l 1
 1437 1423 l 1
 1421 1278 l 1
 1308 1278 l 1
 1308 -329 l 1
 1130 -329 l 1
 1130 1278 l 1
 436 1278 l 1
 436 -329 l 1
 261 -329 l 1
EndSplineSet
EndChar

StartChar: q
Encoding: 113 113 292
Width: 1191
VWidth: 0
GlyphClass: 2
Flags: HW
HStem: -22 136<463 588> 912 136<547 699.5> 1006 20
VStem: 110 170 901 164
LayerCount: 2
UndoRedoHistory
Layer: 0
Undoes
EndUndoes
Redoes
EndRedoes
EndUndoRedoHistory
UndoRedoHistory
Layer: 1
Undoes
EndUndoes
Redoes
EndRedoes
EndUndoRedoHistory
Fore
SplineSet
1005 -519 m 2
 1339 -343 l 1
 1267 -221 l 1
 1015 -355 l 1
 1015 950 l 1
 935 1002 795 1048 666 1048 c 0
 334 1048 112 820 112 438 c 0
 112 162 280 -22 520 -22 c 0
 656 -22 775 28 851 153 c 1
 851 -406 l 2
 851 -523 952 -547 1005 -519 c 2
541 114 m 0
 385 114 282 248 282 448 c 0
 282 734 431 912 663 912 c 0
 736 912 811 889 851 877 c 1
 851 476 l 2
 851 273 745 114 541 114 c 0
EndSplineSet
EndChar

StartChar: question
Encoding: 63 63 293
Width: 1035
VWidth: 0
GlyphClass: 2
Flags: HW
HStem: 0 211<402 455> 1330 153
VStem: 321 213<77.5 133.5 72 139> 359 125<368 523 368 549> 726 169<957 1198>
LayerCount: 2
UndoRedoHistory
Layer: 0
Undoes
EndUndoes
Redoes
EndRedoes
EndUndoRedoHistory
UndoRedoHistory
Layer: 1
Undoes
EndUndoes
Redoes
EndRedoes
EndUndoRedoHistory
Fore
SplineSet
359 368 m 1
 484 368 l 1
 484 678 895 760 895 1133 c 0
 895 1338 744 1483 467 1483 c 0
 361 1483 266 1452 186 1413 c 1
 186 1262 l 1
 262 1305 371 1332 471 1330 c 0
 605 1328 726 1271 726 1125 c 0
 726 789 359 730 359 368 c 1
428 0 m 0
 482 0 534 39 534 105 c 0
 534 162 497 211 429 211 c 0
 375 211 321 172 321 106 c 0
 321 49 359 0 428 0 c 0
EndSplineSet
EndChar

StartChar: questiondown
Encoding: 191 191 294
Width: 1029
VWidth: 0
GlyphClass: 2
Flags: HW
HStem: -16 21<480.5 669.5> 1256 211<629 681>
VStem: 193 169<231.5 482 216 507> 551 211<1333.5 1389.5 1328 1395> 607 127<871.5 962 810 1031.5>
LayerCount: 2
UndoRedoHistory
Layer: 0
Undoes
EndUndoes
Redoes
EndRedoes
EndUndoRedoHistory
UndoRedoHistory
Layer: 1
Undoes
EndUndoes
Redoes
EndRedoes
EndUndoRedoHistory
Fore
SplineSet
617 -16 m 0
 344 -16 193 129 193 334 c 0
 193 680 607 723 607 1020 c 0
 607 1043 605 1069 601 1099 c 1
 724 1099 l 1
 729 1051 734 987 734 937 c 0
 734 683 362 622 362 342 c 0
 362 90 716 103 897 205 c 1
 897 54 l 1
 817 15 722 -16 617 -16 c 0
654 1256 m 0
 588 1256 551 1305 551 1362 c 0
 551 1428 603 1467 655 1467 c 0
 724 1467 762 1418 762 1361 c 0
 762 1295 708 1256 654 1256 c 0
EndSplineSet
EndChar

StartChar: quotedbl
Encoding: 34 34 295
Width: 730
VWidth: 0
GlyphClass: 2
Flags: HW
HStem: 931 525<160 160 160 269 449 557 449 449>
VStem: 124 455<1456 1456>
LayerCount: 2
UndoRedoHistory
Layer: 0
Undoes
EndUndoes
Redoes
EndRedoes
EndUndoRedoHistory
UndoRedoHistory
Layer: 1
Undoes
EndUndoes
Redoes
EndRedoes
EndUndoRedoHistory
Fore
SplineSet
160 931 m 1
 124 1456 l 1
 291 1456 l 1
 269 931 l 1
 160 931 l 1
449 931 m 1
 413 1456 l 1
 579 1456 l 1
 557 931 l 1
 449 931 l 1
EndSplineSet
EndChar

StartChar: quotedblbase
Encoding: 8222 8222 296
Width: 1034
VWidth: 0
GlyphClass: 2
Flags: HW
HStem: -238 439<188 475 293 322 651 680 293 547>
VStem: 188 646<-238 201>
LayerCount: 2
UndoRedoHistory
Layer: 0
Undoes
EndUndoes
Redoes
EndRedoes
EndUndoRedoHistory
UndoRedoHistory
Layer: 1
Undoes
EndUndoes
Redoes
EndRedoes
EndUndoRedoHistory
Fore
SplineSet
188 -238 m 1
 293 201 l 1
 475 201 l 1
 322 -238 l 1
 188 -238 l 1
547 -238 m 1
 651 201 l 1
 834 201 l 1
 680 -238 l 1
 547 -238 l 1
EndSplineSet
EndChar

StartChar: quotedblleft
Encoding: 8220 8220 297
Width: 1034
VWidth: 0
GlyphClass: 2
Flags: HW
HStem: 1023 440<189 476 343 371 692 721 343 538>
VStem: 189 636<1023 1463>
LayerCount: 2
UndoRedoHistory
Layer: 0
Undoes
EndUndoes
Redoes
EndRedoes
EndUndoRedoHistory
UndoRedoHistory
Layer: 1
Undoes
EndUndoes
Redoes
EndRedoes
EndUndoRedoHistory
Fore
SplineSet
189 1023 m 1
 343 1463 l 1
 476 1463 l 1
 371 1023 l 1
 189 1023 l 1
538 1023 m 1
 692 1463 l 1
 825 1463 l 1
 721 1023 l 1
 538 1023 l 1
EndSplineSet
EndChar

StartChar: quotedblright
Encoding: 8221 8221 298
Width: 1034
VWidth: 0
GlyphClass: 2
Flags: HW
HStem: 1023 440<218 504 322 351 649 677 322 544>
VStem: 218 613<1023 1463>
LayerCount: 2
UndoRedoHistory
Layer: 0
Undoes
EndUndoes
Redoes
EndRedoes
EndUndoRedoHistory
UndoRedoHistory
Layer: 1
Undoes
EndUndoes
Redoes
EndRedoes
EndUndoRedoHistory
Fore
SplineSet
218 1023 m 1
 322 1463 l 1
 504 1463 l 1
 351 1023 l 1
 218 1023 l 1
544 1023 m 1
 649 1463 l 1
 831 1463 l 1
 677 1023 l 1
 544 1023 l 1
EndSplineSet
EndChar

StartChar: quoteleft
Encoding: 8216 8216 299
Width: 563
VWidth: 0
GlyphClass: 2
Flags: HW
HStem: 1023 440<294 322 140 426>
VStem: 140 286
LayerCount: 2
UndoRedoHistory
Layer: 0
Undoes
EndUndoes
Redoes
EndRedoes
EndUndoRedoHistory
UndoRedoHistory
Layer: 1
Undoes
EndUndoes
Redoes
EndRedoes
EndUndoRedoHistory
Fore
SplineSet
426 1463 m 1
 322 1023 l 1
 140 1023 l 1
 294 1463 l 1
 426 1463 l 1
EndSplineSet
EndChar

StartChar: quoteright
Encoding: 8217 8217 300
Width: 563
VWidth: 0
GlyphClass: 2
Flags: HW
HStem: 1023 440<150 436 255 282>
VStem: 150 286
LayerCount: 2
UndoRedoHistory
Layer: 0
Undoes
EndUndoes
Redoes
EndRedoes
EndUndoRedoHistory
UndoRedoHistory
Layer: 1
Undoes
EndUndoes
Redoes
EndRedoes
EndUndoRedoHistory
Fore
SplineSet
150 1023 m 1
 255 1463 l 1
 436 1463 l 1
 282 1023 l 1
 150 1023 l 1
EndSplineSet
EndChar

StartChar: quotesinglbase
Encoding: 8218 8218 301
Width: 563
VWidth: 0
GlyphClass: 2
Flags: HW
HStem: -238 439<135 422 241 268>
VStem: 135 287
LayerCount: 2
UndoRedoHistory
Layer: 0
Undoes
EndUndoes
Redoes
EndRedoes
EndUndoRedoHistory
UndoRedoHistory
Layer: 1
Undoes
EndUndoes
Redoes
EndRedoes
EndUndoRedoHistory
Fore
SplineSet
135 -238 m 1
 241 201 l 1
 422 201 l 1
 268 -238 l 1
 135 -238 l 1
EndSplineSet
EndChar

StartChar: quotesingle
Encoding: 39 39 302
Width: 564
VWidth: 0
GlyphClass: 2
Flags: HW
HStem: 989 462<222 222 222 352>
VStem: 186 166<989 1451> 222 130<989 1451>
LayerCount: 2
UndoRedoHistory
Layer: 0
Undoes
EndUndoes
Redoes
EndRedoes
EndUndoRedoHistory
UndoRedoHistory
Layer: 1
Undoes
EndUndoes
Redoes
EndRedoes
EndUndoRedoHistory
Fore
SplineSet
222 989 m 1
 186 1451 l 1
 352 1451 l 1
 352 989 l 1
 222 989 l 1
EndSplineSet
EndChar

StartChar: r
Encoding: 114 114 303
Width: 808
VWidth: 0
GlyphClass: 2
Flags: HW
HStem: 0 21<209 209 209 373> 907 141<578 678.5> 1005 20
VStem: 195 164
AnchorPoint: "top" 497 1026 basechar 0
AnchorPoint: "bottom" 348 -3 basechar 0
LayerCount: 2
UndoRedoHistory
Layer: 0
Undoes
EndUndoes
Redoes
EndRedoes
EndUndoRedoHistory
UndoRedoHistory
Layer: 1
Undoes
EndUndoes
Redoes
EndRedoes
EndUndoRedoHistory
Fore
SplineSet
209 0 m 1
 209 693 l 2
 209 809 136 895 86 937 c 1
 227 1019 l 1
 275 977 321 920 336 830 c 1
 388 958 515 1048 641 1048 c 0
 724 1048 759 1038 795 1028 c 1
 781 883 l 1
 764 889 721 907 636 907 c 0
 492 907 373 772 373 537 c 2
 373 0 l 1
 209 0 l 1
EndSplineSet
EndChar

StartChar: radical
Encoding: 8730 8730 305
Width: 1298
VWidth: 0
GlyphClass: 2
Flags: HW
VStem: 1067 130<1596 1596>
LayerCount: 2
UndoRedoHistory
Layer: 0
Undoes
EndUndoes
Redoes
EndRedoes
EndUndoRedoHistory
UndoRedoHistory
Layer: 1
Undoes
EndUndoes
Redoes
EndRedoes
EndUndoRedoHistory
Fore
SplineSet
610 -153 m 1
 739 -153 l 1
 1197 1596 l 1
 1067 1596 l 1
 704 217 l 1
 666 41 l 1
 610 214 l 1
 390 825 l 1
 97 774 l 1
 117 662 l 1
 289 690 l 1
 610 -153 l 1
EndSplineSet
EndChar

StartChar: registered
Encoding: 174 174 308
Width: 1784
VWidth: 0
GlyphClass: 2
Flags: HW
HStem: -32 117<796 998 796 1016.5> 664 119<734 852> 1072 120<732 851 851 854 592 924.5> 1366 117<793 991.5>
VStem: 113 127<691.5 826.5 627 846.5> 592 142<273 664 273 664 273 1192> 1119 149<855 976.5 855 995.5> 1546 127<621.5 759.5 605 824>
LayerCount: 2
UndoRedoHistory
Layer: 0
Undoes
EndUndoes
Redoes
EndRedoes
EndUndoRedoHistory
UndoRedoHistory
Layer: 1
Undoes
EndUndoes
Redoes
EndRedoes
EndUndoRedoHistory
Fore
SplineSet
592 273 m 1
 734 273 l 1
 734 664 l 1
 866 664 l 1
 925 625 967 557 1007 485 c 2
 1125 273 l 1
 1286 273 l 1
 1254 327 1227 375 1201 418 c 0
 1142 515 1088 609 1014 681 c 1
 1154 700 1268 775 1268 935 c 0
 1268 1018 1234 1082 1166 1126 c 0
 1098 1170 994 1192 854 1192 c 2
 592 1192 l 1
 592 273 l 1
897 -32 m 0
 1136 -32 1313 67 1440 192 c 0
 1564 313 1673 485 1673 725 c 0
 1673 794 1663 860 1644 924 c 0
 1603 1059 1529 1170 1440 1258 c 0
 1312 1383 1133 1483 891 1483 c 0
 652 1483 475 1385 347 1260 c 0
 223 1139 113 967 113 726 c 0
 113 657 123 590 142 526 c 0
 183 391 256 280 346 192 c 0
 474 67 655 -32 897 -32 c 0
896 85 m 0
 696 85 536 164 428 270 c 0
 323 373 240 527 240 727 c 0
 240 926 323 1079 428 1182 c 0
 535 1287 694 1366 892 1366 c 0
 1091 1366 1250 1285 1357 1180 c 0
 1462 1077 1546 924 1546 724 c 0
 1546 519 1464 372 1359 270 c 0
 1251 165 1100 85 896 85 c 0
732 783 m 1
 732 1072 l 1
 851 1072 l 2
 998 1072 1119 1071 1119 920 c 0
 1119 784 984 783 852 783 c 2
 732 783 l 1
EndSplineSet
EndChar

StartChar: ring
Encoding: 730 730 309
Width: 615
VWidth: 0
GlyphClass: 2
Flags: HW
HStem: 1149 86<276.5 325> 1445 85<295.5 340>
VStem: 100 99<1325.5 1370 1308 1385> 420 100<1310 1353 1294.5 1371>
AnchorPoint: "top" 326 1026 mark 0
LayerCount: 2
UndoRedoHistory
Layer: 0
Undoes
EndUndoes
Redoes
EndRedoes
EndUndoRedoHistory
UndoRedoHistory
Layer: 1
Undoes
EndUndoes
Redoes
EndRedoes
EndUndoRedoHistory
Fore
SplineSet
311 1149 m 0
 216 1149 147 1199 116 1264 c 0
 105 1287 100 1312 100 1339 c 0
 100 1431 160 1490 228 1516 c 0
 253 1526 281 1530 310 1530 c 0
 405 1530 474 1480 504 1414 c 0
 515 1391 520 1366 520 1340 c 0
 520 1249 458 1190 391 1164 c 0
 366 1154 339 1149 311 1149 c 0
309 1235 m 0
 369 1235 420 1280 420 1340 c 0
 420 1402 371 1445 309 1445 c 0
 249 1445 199 1400 199 1340 c 0
 199 1276 244 1235 309 1235 c 0
EndSplineSet
EndChar

StartChar: s
Encoding: 115 115 310
Width: 886
VWidth: 0
GlyphClass: 2
Flags: HW
HStem: -22 136<409 511 409 567> 912 136<411 512.5>
VStem: 121 164<726.5 818.5 726.5 864> 652 162<212 319.5>
AnchorPoint: "top" 510 1026 basechar 0
AnchorPoint: "bottom" 511 0 basechar 0
LayerCount: 2
UndoRedoHistory
Layer: 0
Undoes
EndUndoes
Redoes
EndRedoes
EndUndoRedoHistory
UndoRedoHistory
Layer: 1
Undoes
EndUndoes
Redoes
EndRedoes
EndUndoRedoHistory
Fore
SplineSet
472 -22 m 0
 306 -22 176 41 115 78 c 1
 166 208 l 1
 261 154 356 114 462 114 c 0
 560 114 652 157 652 267 c 0
 652 372 538 411 398 473 c 0
 258 534 121 598 121 773 c 0
 121 955 277 1048 455 1048 c 0
 597 1048 707 1006 779 965 c 1
 732 833 l 1
 670 868 558 912 467 912 c 0
 355 912 285 862 285 775 c 0
 285 678 385 647 533 581 c 1
 683 519 814 450 814 279 c 0
 814 85 662 -22 472 -22 c 0
EndSplineSet
EndChar

StartChar: s.alt
Encoding: 65544 -1 311
Width: 996
VWidth: 0
GlyphClass: 2
Flags: HW
HStem: -26 138<476 584 465 642.5> 917 139<441.5 549>
VStem: 124 171<713.5 827.5 713.5 869> 734 163<211 338>
LayerCount: 2
UndoRedoHistory
Layer: 0
Undoes
EndUndoes
Redoes
EndRedoes
EndUndoRedoHistory
UndoRedoHistory
Layer: 1
Undoes
EndUndoes
Redoes
EndRedoes
EndUndoRedoHistory
Fore
SplineSet
551 -26 m 0
 734 -26 897 52 897 284 c 0
 897 492 705 547 549 596 c 0
 458 625 295 653 295 774 c 0
 295 881 388 917 495 917 c 0
 603 917 727 880 782 844 c 1
 829 966 l 1
 731 1025 609 1056 496 1056 c 0
 304 1056 124 967 124 771 c 0
 124 570 293 512 451 463 c 0
 554 431 734 404 734 272 c 0
 734 150 639 112 529 112 c 0
 401 112 246 170 171 227 c 1
 124 90 l 1
 230 25 401 -26 551 -26 c 0
EndSplineSet
EndChar

StartChar: section
Encoding: 167 167 317
Width: 1092
VWidth: 0
GlyphClass: 2
Flags: HW
HStem: -48 137<438 530.5 432 541> 1356 137<555.5 647.5 507 648.5>
VStem: 195 177<713 786 697 794> 231 171<1180.5 1274.5 1180.5 1316.5> 711 172<232 282.5> 728 178<713 754.5 671.5 784.5>
LayerCount: 2
UndoRedoHistory
Layer: 0
Undoes
EndUndoes
Redoes
EndRedoes
EndUndoRedoHistory
UndoRedoHistory
Layer: 1
Undoes
EndUndoes
Redoes
EndRedoes
EndUndoRedoHistory
Fore
SplineSet
487 -48 m 0
 595 -48 692 -18 760 30 c 0
 826 76 883 146 883 252 c 0
 883 378 805 437 720 480 c 1
 803 531 906 606 906 737 c 0
 906 772 897 804 881 832 c 0
 807 957 635 1001 510 1072 c 0
 454 1104 402 1140 402 1221 c 0
 402 1328 503 1356 608 1356 c 0
 689 1356 769 1332 829 1304 c 1
 827 1452 l 1
 752 1475 692 1493 603 1493 c 0
 411 1493 231 1416 231 1217 c 0
 231 1090 299 1027 384 975 c 1
 296 931 195 859 195 729 c 0
 195 697 201 667 212 640 c 0
 250 547 337 494 429 454 c 1
 509 418 l 2
 541 404 570 391 595 379 c 0
 651 352 711 322 711 243 c 0
 711 221 707 201 696 182 c 0
 661 119 579 89 482 89 c 0
 382 89 303 116 220 153 c 1
 222 4 l 1
 298 -27 389 -48 487 -48 c 0
592 547 m 1
 559 561 530 574 503 587 c 0
 442 616 372 653 372 741 c 0
 372 831 442 880 500 912 c 1
 577 868 728 846 728 723 c 0
 728 703 725 685 716 668 c 0
 690 615 639 578 592 547 c 1
EndSplineSet
EndChar

StartChar: semicolon
Encoding: 59 59 318
Width: 550
VWidth: 0
GlyphClass: 2
Flags: HW
HStem: 816 210<169 386 169 386>
VStem: 169 217<816 1026 816 1026>
LayerCount: 2
UndoRedoHistory
Layer: 0
Undoes
EndUndoes
Redoes
EndRedoes
EndUndoRedoHistory
UndoRedoHistory
Layer: 1
Undoes
EndUndoes
Redoes
EndRedoes
EndUndoRedoHistory
Fore
SplineSet
110 -256 m 1
 216 207 l 1
 404 207 l 1
 241 -256 l 1
 110 -256 l 1
169 816 m 1
 169 1026 l 1
 386 1026 l 1
 386 816 l 1
 169 816 l 1
EndSplineSet
EndChar

StartChar: seven
Encoding: 55 55 319
Width: 1244
VWidth: 0
GlyphClass: 2
Flags: HW
HStem: 0 21<361 361 361 547> 1311 145<163 927 163 1119>
LayerCount: 2
UndoRedoHistory
Layer: 0
Undoes
EndUndoes
Redoes
EndRedoes
EndUndoRedoHistory
UndoRedoHistory
Layer: 1
Undoes
EndUndoes
Redoes
EndRedoes
EndUndoRedoHistory
Fore
SplineSet
361 0 m 1
 927 1311 l 1
 163 1311 l 1
 163 1456 l 1
 1119 1456 l 1
 1119 1365 l 1
 547 0 l 1
 361 0 l 1
EndSplineSet
EndChar

StartChar: six
Encoding: 54 54 320
Width: 1235
VWidth: 0
GlyphClass: 2
Flags: HW
HStem: -22 142<549 745.5 549 783.5> 810 136<618 744.5> 1351 133<879 913>
VStem: 944 167<356.5 555.5>
LayerCount: 2
UndoRedoHistory
Layer: 0
Undoes
EndUndoes
Redoes
EndRedoes
EndUndoRedoHistory
UndoRedoHistory
Layer: 1
Undoes
EndUndoes
Redoes
EndRedoes
EndUndoRedoHistory
Fore
SplineSet
659 -22 m 0
 908 -22 1111 175 1111 464 c 0
 1111 735 928 946 671 946 c 0
 565 946 391 890 326 768 c 1
 377 1072 576 1304 913 1351 c 1
 879 1484 l 1
 287 1391 124 890 152 501 c 0
 171 240 315 -22 659 -22 c 0
657 120 m 0
 441 120 319 292 319 469 c 0
 319 660 457 810 642 810 c 0
 847 810 944 652 944 459 c 0
 944 254 834 120 657 120 c 0
EndSplineSet
EndChar

StartChar: slash
Encoding: 47 47 321
Width: 863
VWidth: 0
GlyphClass: 2
Flags: HW
HStem: 0 21<41 41 41 204> 1436 20<666 833 833 833>
LayerCount: 2
UndoRedoHistory
Layer: 0
Undoes
EndUndoes
Redoes
EndRedoes
EndUndoRedoHistory
UndoRedoHistory
Layer: 1
Undoes
EndUndoes
Redoes
EndRedoes
EndUndoRedoHistory
Fore
SplineSet
41 0 m 1
 666 1456 l 1
 833 1456 l 1
 204 0 l 1
 41 0 l 1
EndSplineSet
EndChar

StartChar: sterling
Encoding: 163 163 323
Width: 1184
VWidth: 0
GlyphClass: 2
Flags: HW
HStem: 0 141<380 1076 380 1076 380 1076> 690 142<124 306 124 307 124 307 478 795> 1307 141<635 788.5>
VStem: 307 171<641 690 641 690>
LayerCount: 2
UndoRedoHistory
Layer: 0
Undoes
EndUndoes
Redoes
EndRedoes
EndUndoRedoHistory
UndoRedoHistory
Layer: 1
Undoes
EndUndoes
Redoes
EndRedoes
EndUndoRedoHistory
Fore
SplineSet
125 0 m 1
 1076 0 l 1
 1076 141 l 1
 380 141 l 1
 396 154 410 171 421 194 c 0
 476 305 478 476 478 641 c 2
 478 690 l 1
 795 690 l 1
 795 832 l 1
 476 832 l 1
 473 947 l 1
 473 1156 535 1307 735 1307 c 0
 842 1307 935 1280 1005 1237 c 1
 1057 1357 l 1
 980 1418 871 1448 732 1448 c 0
 390 1448 304 1211 304 861 c 0
 304 851 305 842 306 832 c 1
 124 832 l 1
 124 690 l 1
 307 690 l 1
 307 440 l 2
 307 272 228 199 124 138 c 1
 125 0 l 1
EndSplineSet
EndChar

StartChar: summation
Encoding: 8721 8721 324
Width: 1247
VWidth: 0
GlyphClass: 2
Flags: HW
HStem: -329 148<304 1203 304 1203> 1281 142<334 1158 334 334>
LayerCount: 2
UndoRedoHistory
Layer: 0
Undoes
EndUndoes
Redoes
EndRedoes
EndUndoRedoHistory
UndoRedoHistory
Layer: 1
Undoes
EndUndoes
Redoes
EndRedoes
EndUndoRedoHistory
Fore
SplineSet
67 -329 m 1
 67 -239 l 1
 691 552 l 1
 89 1328 l 1
 89 1423 l 1
 1158 1423 l 1
 1158 1281 l 1
 334 1281 l 1
 884 561 l 1
 304 -181 l 1
 1203 -181 l 1
 1203 -329 l 1
 67 -329 l 1
EndSplineSet
EndChar

StartChar: t
Encoding: 116 116 325
Width: 830
VWidth: 0
GlyphClass: 2
Flags: W
HStem: -8 127<452.621 786.357>
VStem: 243 161<168.148 300>
AnchorPoint: "top" 510 1026 basechar 0
AnchorPoint: "bottom" 511 0 basechar 0
LayerCount: 2
UndoRedoHistory
Layer: 0
Undoes
EndUndoes
Redoes
EndRedoes
EndUndoRedoHistory
UndoRedoHistory
Layer: 1
Undoes
EndUndoes
Redoes
EndRedoes
EndUndoRedoHistory
Fore
SplineSet
569 -8 m 0
 626 -8 737 13 800 35 c 1
 781 158 l 1
 734 140 634 119 588 119 c 0
 462 119 407 173 407 298 c 2
 404 919 l 1
 738 919 l 1
 738 1026 l 1
 404 1026 l 1
 404 1366 l 1
 248 1336 l 1
 248 1026 l 1
 40 1026 l 1
 40 919 l 1
 243 919 l 1
 243 300 l 2
 243 84 343 -8 569 -8 c 0
EndSplineSet
EndChar

StartChar: thorn
Encoding: 254 254 328
Width: 1223
VWidth: 0
GlyphClass: 2
Flags: HW
HStem: -23 132<616 702> 917 134<586.5 755> 1435 20<168 335 168 168>
VStem: 168 165<-427 135 -427 135 407.5 613> 947 176<408.5 562.5 405.5 633>
LayerCount: 2
UndoRedoHistory
Layer: 0
Undoes
EndUndoes
Redoes
EndRedoes
EndUndoRedoHistory
UndoRedoHistory
Layer: 1
Undoes
EndUndoes
Redoes
EndRedoes
EndUndoRedoHistory
Fore
SplineSet
168 -427 m 1
 333 -427 l 1
 333 135 l 1
 416 30 526 -23 664 -23 c 0
 740 -23 805 -8 862 22 c 0
 1021 106 1123 284 1123 527 c 0
 1123 598 1113 664 1094 728 c 0
 1038 916 898 1051 664 1051 c 0
 509 1051 406 982 335 882 c 1
 335 1455 l 1
 168 1455 l 1
 168 -427 l 1
641 109 m 0
 591 109 547 119 509 138 c 0
 397 195 333 321 333 494 c 0
 333 732 418 917 647 917 c 0
 863 917 947 745 947 521 c 0
 947 296 858 109 641 109 c 0
EndSplineSet
EndChar

StartChar: three
Encoding: 51 51 329
Width: 1236
VWidth: 0
GlyphClass: 2
Flags: HW
HStem: -23 164 683 161 1322 161
VStem: 884 187 919 188
LayerCount: 2
UndoRedoHistory
Layer: 0
Undoes
EndUndoes
Redoes
EndRedoes
EndUndoRedoHistory
UndoRedoHistory
Layer: 1
Undoes
EndUndoes
Redoes
EndRedoes
EndUndoRedoHistory
Fore
SplineSet
612.625976562 -23 m 0
 388.551757812 -23 226.080078125 72.0625 213.135742188 80.0419921875 c 1
 265.864257812 230.681640625 l 1
 310.723632812 206.745117188 445.786132812 140.647460938 602.37109375 140.647460938 c 0
 788.177734375 140.647460938 919.4296875 241.1328125 919.4296875 408.706054688 c 0
 919.4296875 603.944335938 766.251953125 685.4296875 524.745117188 683.745117188 c 2
 453.2734375 683.251953125 l 1
 451.2734375 844.041992188 l 1
 514.80078125 844.041992188 l 2
 747.03515625 844.041992188 884.39453125 903.848632812 884.39453125 1106.12011719 c 0
 884.39453125 1250.70996094 742.608398438 1321.50976562 594.528320312 1321.50976562 c 0
 430.03515625 1321.50976562 322.534179688 1250.33007812 255.432617188 1189.08007812 c 1
 167.706054688 1315.5703125 l 1
 275.311523438 1428.53027344 419.315429688 1483 617.041992188 1483 c 0
 845.413085938 1483 1071.75 1354.69042969 1071.75 1109.8203125 c 0
 1071.75 937.899414062 980.46875 809.944335938 808.077148438 765.650390625 c 1
 998.11328125 726.842773438 1107.91015625 592.978515625 1107.91015625 403.877929688 c 0
 1107.91015625 138 888.077148438 -23 612.625976562 -23 c 0
EndSplineSet
EndChar

StartChar: threequarters
Encoding: 190 190 330
Width: 2390
VWidth: 0
GlyphClass: 2
Flags: HW
HStem: 0 21<-327 -176 -176 -176> 586 115<786 840> 803 107<1620 1620 1620 1849 1971 2080> 970 119<724 749 749 753.5> 1322 119<799.5 864>
VStem: 961 132<1168.5 1231.5 1168.5 1250.5> 985 129<791 885.5 771 892.5> 1849 122<615 1412 910 1412 910 1244>
LayerCount: 2
UndoRedoHistory
Layer: 0
Undoes
EndUndoes
Redoes
EndRedoes
EndUndoRedoHistory
UndoRedoHistory
Layer: 1
Undoes
EndUndoes
Redoes
EndRedoes
EndUndoRedoHistory
Fore
SplineSet
-327 0 m 1
 -176 0 l 1
 610 1297 l 1
 641 1244 l 1
 688 1284 746 1322 825 1322 c 0
 903 1322 961 1291 961 1210 c 0
 961 1110 868 1089 771 1089 c 2
 724 1089 l 1
 724 970 l 1
 749 970 l 2
 758 970 771 971 778 971 c 0
 886 971 985 948 985 837 c 0
 985 745 907 701 817 701 c 0
 755 701 697 727 643 779 c 1
 585 683 l 1
 640 626 718 586 821 586 c 0
 859 586 897 592 932 603 c 0
 1028 634 1114 708 1114 834 c 0
 1114 937 1060 999 986 1032 c 1
 1048 1065 1093 1124 1093 1213 c 0
 1093 1250 1085 1282 1070 1310 c 0
 1028 1388 941 1441 827 1441 c 0
 772 1441 719 1427 675 1405 c 1
 695 1436 l 1
 552 1436 l 1
 -327 0 l 1
1849 615 m 1
 1969 615 l 1
 1969 803 l 1
 2090 803 l 1
 2080 910 l 1
 1971 910 l 1
 1971 1412 l 1
 1837 1412 l 1
 1486 894 l 1
 1486 803 l 1
 1849 803 l 1
 1849 615 l 1
1620 910 m 1
 1849 1244 l 1
 1849 910 l 1
 1620 910 l 1
EndSplineSet
EndChar

StartChar: tilde
Encoding: 732 732 331
Width: 673
VWidth: 0
GlyphClass: 2
Flags: HW
HStem: 1220 125<463.5 499.5 463.5 535> 1288 125<193 261 161 267.5>
VStem: 24 105<1203 1203> 560 108<1435 1435>
AnchorPoint: "top" 349 1026 mark 0
LayerCount: 2
UndoRedoHistory
Layer: 0
Undoes
EndUndoes
Redoes
EndRedoes
EndUndoRedoHistory
UndoRedoHistory
Layer: 1
Undoes
EndUndoes
Redoes
EndRedoes
EndUndoRedoHistory
Fore
SplineSet
24 1203 m 1
 129 1203 l 1
 136 1260 166 1288 220 1288 c 0
 315 1288 377 1220 473 1220 c 0
 597 1220 655 1322 668 1435 c 1
 560 1435 l 1
 553 1384 526 1345 473 1345 c 0
 454 1345 434 1349 414 1356 c 0
 356 1377 299 1413 223 1413 c 0
 99 1413 34 1319 24 1203 c 1
EndSplineSet
EndChar

StartChar: trademark
Encoding: 8482 8482 332
Width: 1839
VWidth: 0
GlyphClass: 2
Flags: HW
HStem: 1350 101<80 333 80 707 457 457 457 707>
VStem: 333 124<686 1350 686 1350> 814 121<686 1280 686 1451> 1524 122<686 1281 1281 1281>
LayerCount: 2
UndoRedoHistory
Layer: 0
Undoes
EndUndoes
Redoes
EndRedoes
EndUndoRedoHistory
UndoRedoHistory
Layer: 1
Undoes
EndUndoes
Redoes
EndRedoes
EndUndoRedoHistory
Fore
SplineSet
814 686 m 1
 814 1451 l 1
 1001 1451 l 1
 1228 900 l 1
 1468 1451 l 1
 1646 1451 l 1
 1646 686 l 1
 1524 686 l 1
 1524 1281 l 1
 1261 686 l 1
 1184 686 l 1
 935 1280 l 1
 935 686 l 1
 814 686 l 1
333 686 m 1
 333 1350 l 1
 80 1350 l 1
 80 1451 l 1
 707 1451 l 1
 707 1350 l 1
 457 1350 l 1
 457 686 l 1
 333 686 l 1
EndSplineSet
EndChar

StartChar: two
Encoding: 50 50 333
Width: 1254
VWidth: 0
GlyphClass: 2
Flags: HW
HStem: 0 176 1301 180
VStem: 841 208
LayerCount: 2
UndoRedoHistory
Layer: 0
Undoes
EndUndoes
Redoes
EndRedoes
EndUndoRedoHistory
UndoRedoHistory
Layer: 1
Undoes
EndUndoes
Redoes
EndRedoes
EndUndoRedoHistory
Fore
SplineSet
609.049804688 1481.65039062 m 0
 862.8671875 1481.65039062 1042.0703125 1311.5703125 1049.0703125 1053.33984375 c 0
 1055.37011719 840.827148438 946 683 762 485 c 2
 450 150 l 1
 1044 150 l 1
 1044 0 l 1
 213.099609375 0 l 1
 213 140 l 1
 641 613 l 2
 798 786 874 913 866 1054 c 1
 859 1208 741 1331 594 1331 c 0
 397 1331 233 1204 232 1204 c 2
 163.849609375 1339.95019531 l 1
 163.849609375 1339.95019531 338.549804688 1481.65039062 609.049804688 1481.65039062 c 0
EndSplineSet
EndChar

StartChar: u
Encoding: 117 117 334
Width: 1226
VWidth: 0
GlyphClass: 2
Flags: HW
HStem: -22 136<494 608> -3 138 1006 20<282 282 853 1017 853 853>
VStem: 171 165 854 164
AnchorPoint: "top" 622 1026 basechar 0
AnchorPoint: "bottom" 609 0 basechar 0
AnchorPoint: "ogonek" 969 0 basechar 0
LayerCount: 2
UndoRedoHistory
Layer: 0
Undoes
EndUndoes
Redoes
EndRedoes
EndUndoRedoHistory
UndoRedoHistory
Layer: 1
Undoes
EndUndoes
Redoes
EndRedoes
EndUndoRedoHistory
Fore
SplineSet
532 -22 m 0
 684 -22 797 37 872 161 c 1
 902 32 996 -14 1133 -14 c 1
 1162 121 l 1
 1036 121 1017 182 1017 328 c 2
 1017 1026 l 1
 853 1026 l 1
 853 482 l 2
 853 259 717 114 552 114 c 0
 436 114 330 167 335 365 c 2
 341 595 l 2
 350 941 282 1026 282 1026 c 1
 117 1000 l 1
 117 1000 185 901 176 582 c 2
 170 365 l 2
 162 80 346 -22 532 -22 c 0
EndSplineSet
EndChar

StartChar: u.alt
Encoding: 65545 -1 335
Width: 1203
VWidth: 0
GlyphClass: 2
Flags: HW
HStem: -24 142<498 608> -4 143<1051.5 1135> 1006 20<130 295 130 130 846 1011 846 846>
VStem: 169 165<236.5 595 379 582> 846 165<320 418 418 1026>
LayerCount: 2
UndoRedoHistory
Layer: 0
Undoes
EndUndoes
Redoes
EndRedoes
EndUndoRedoHistory
UndoRedoHistory
Layer: 1
Undoes
EndUndoes
Redoes
EndRedoes
EndUndoRedoHistory
Fore
SplineSet
532 -24 m 0
 684 -24 798 38 878 155 c 1
 905 44 1003 -4 1100 -4 c 1
 1135 139 l 1
 1083 139 1011 170 1011 286 c 2
 1011 1026 l 1
 846 1026 l 1
 846 418 l 2
 846 222 694 118 556 118 c 0
 440 118 334 183 334 379 c 2
 334 595 l 2
 334 911 295 1026 295 1026 c 1
 130 1026 l 1
 130 1026 169 871 169 582 c 2
 169 379 l 2
 169 94 346 -24 532 -24 c 0
EndSplineSet
EndChar

StartChar: underscore
Encoding: 95 95 343
Width: 987
VWidth: 0
GlyphClass: 2
Flags: HW
HStem: -273 128<5 988 5 988>
LayerCount: 2
UndoRedoHistory
Layer: 0
Undoes
EndUndoes
Redoes
EndRedoes
EndUndoRedoHistory
UndoRedoHistory
Layer: 1
Undoes
EndUndoes
Redoes
EndRedoes
EndUndoRedoHistory
Fore
SplineSet
5 -273 m 1
 5 -145 l 1
 988 -145 l 1
 988 -273 l 1
 5 -273 l 1
EndSplineSet
EndChar

StartChar: uni00B2
Encoding: 178 178 346
Width: 1200
VWidth: 0
GlyphClass: 2
Flags: HW
HStem: 604 118<475 839 475 839 475 839> 1323 117<523.5 610.5>
VStem: 711 129<1197 1230.5 1160.5 1248.5>
LayerCount: 2
UndoRedoHistory
Layer: 0
Undoes
EndUndoes
Redoes
EndRedoes
EndUndoRedoHistory
UndoRedoHistory
Layer: 1
Undoes
EndUndoes
Redoes
EndRedoes
EndUndoRedoHistory
Fore
SplineSet
293 604 m 1
 839 604 l 1
 839 722 l 1
 475 722 l 1
 567 802 660 879 734 968 c 0
 788 1033 840 1108 840 1213 c 0
 840 1248 833 1279 820 1307 c 0
 781 1388 695 1440 577 1440 c 0
 439 1440 344 1370 301 1270 c 1
 386 1192 l 1
 419 1262 476 1323 571 1323 c 0
 650 1323 711 1286 711 1211 c 0
 711 1183 701 1152 680 1118 c 0
 659 1084 631 1047 594 1006 c 0
 505 908 399 812 293 715 c 1
 293 604 l 1
EndSplineSet
EndChar

StartChar: uni00B3
Encoding: 179 179 347
Width: 1200
VWidth: 0
GlyphClass: 2
Flags: HW
HStem: 586 115<453.5 511> 970 119<390 416 416 420.5> 1322 119<454 535.5>
VStem: 636 133<1168.5 1231.5 1168.5 1250.5> 661 129<791 885.5 771 892.5>
LayerCount: 2
UndoRedoHistory
Layer: 0
Undoes
EndUndoes
Redoes
EndRedoes
EndUndoRedoHistory
UndoRedoHistory
Layer: 1
Undoes
EndUndoes
Redoes
EndRedoes
EndUndoRedoHistory
Fore
SplineSet
491 586 m 0
 531 586 570 592 606 603 c 0
 704 634 790 708 790 834 c 0
 790 937 736 999 662 1032 c 1
 724 1065 769 1124 769 1213 c 0
 769 1250 761 1282 746 1310 c 0
 704 1388 616 1441 497 1441 c 0
 393 1441 300 1394 245 1340 c 1
 303 1244 l 1
 352 1284 413 1322 495 1322 c 0
 576 1322 636 1291 636 1210 c 0
 636 1110 540 1089 439 1089 c 2
 390 1089 l 1
 390 970 l 1
 416 970 l 2
 425 970 439 971 446 971 c 0
 559 971 661 948 661 837 c 0
 661 745 580 701 486 701 c 0
 421 701 361 727 305 779 c 1
 245 683 l 1
 302 626 384 586 491 586 c 0
EndSplineSet
EndChar

StartChar: uni00B9
Encoding: 185 185 348
Width: 1200
VWidth: 0
GlyphClass: 2
Flags: HW
HStem: 604 119<280 402 280 645>
VStem: 402 121<723 1008 723 723>
LayerCount: 2
UndoRedoHistory
Layer: 0
Undoes
EndUndoes
Redoes
EndRedoes
EndUndoRedoHistory
UndoRedoHistory
Layer: 1
Undoes
EndUndoes
Redoes
EndRedoes
EndUndoRedoHistory
Fore
SplineSet
280 604 m 1
 645 604 l 1
 645 720 l 1
 523 720 l 1
 523 1427 l 1
 418 1412 l 1
 366 1381 317 1354 250 1333 c 1
 249 1203 l 1
 299 1222 357 1248 401 1271 c 1
 401 1168 l 2
 401 1116 402 1067 402 1008 c 2
 402 723 l 1
 280 723 l 1
 280 604 l 1
EndSplineSet
EndChar

StartChar: uni0237
Encoding: 567 567 375
Width: 513
VWidth: 0
GlyphClass: 2
Flags: HW
HStem: -429 146<9 54> 1006 20<185 350 185 185>
VStem: 185 165<-57.5 1026 73 1026 73 1026>
AnchorPoint: "top" 269 1026 basechar 0
LayerCount: 2
UndoRedoHistory
Layer: 0
Undoes
EndUndoes
Redoes
EndRedoes
EndUndoRedoHistory
UndoRedoHistory
Layer: 1
Undoes
EndUndoes
Redoes
EndRedoes
EndUndoRedoHistory
Fore
SplineSet
31 -429 m 0
 77 -429 116 -422 150 -407 c 0
 306 -339 350 -150 350 73 c 2
 350 1026 l 1
 185 1026 l 1
 185 31 l 2
 185 -146 148 -283 -8 -283 c 0
 -38 -283 -62 -278 -92 -273 c 1
 -91 -416 l 1
 -53 -425 -13 -429 31 -429 c 0
EndSplineSet
EndChar

StartChar: uni0307
Encoding: 775 775 376
Width: 534
VWidth: 0
GlyphClass: 2
Flags: HW
HStem: 1246 163<194 354 194 354>
VStem: 194 160<1246 1409 1246 1409>
AnchorPoint: "top" 325 1030 mark 0
LayerCount: 2
UndoRedoHistory
Layer: 0
Undoes
EndUndoes
Redoes
EndRedoes
EndUndoRedoHistory
UndoRedoHistory
Layer: 1
Undoes
EndUndoes
Redoes
EndRedoes
EndUndoRedoHistory
Fore
SplineSet
194 1246 m 1
 354 1246 l 1
 354 1409 l 1
 194 1409 l 1
 194 1246 l 1
EndSplineSet
EndChar

StartChar: uni030F
Encoding: 783 783 377
Width: 4
VWidth: 0
GlyphClass: 2
Flags: HW
HStem: 1174 313<-522 -522 -522 -407>
VStem: -797 656<1174 1487>
AnchorPoint: "top" 622 1026 mark 0
LayerCount: 2
UndoRedoHistory
Layer: 0
Undoes
EndUndoes
Redoes
EndRedoes
EndUndoRedoHistory
UndoRedoHistory
Layer: 1
Undoes
EndUndoes
Redoes
EndRedoes
EndUndoRedoHistory
Fore
SplineSet
-522 1174 m 1
 -797 1487 l 1
 -621 1487 l 1
 -407 1174 l 1
 -522 1174 l 1
-259 1174 m 1
 -528 1487 l 1
 -358 1487 l 1
 -141 1174 l 1
 -259 1174 l 1
EndSplineSet
EndChar

StartChar: uni0311
Encoding: 785 785 378
Width: 639
VWidth: 0
GlyphClass: 2
Flags: HW
HStem: 1347 107<268 370>
VStem: 42 87<1218 1218> 520 86<1218 1218>
AnchorPoint: "top" 328 1026 mark 0
LayerCount: 2
UndoRedoHistory
Layer: 0
Undoes
EndUndoes
Redoes
EndRedoes
EndUndoRedoHistory
UndoRedoHistory
Layer: 1
Undoes
EndUndoes
Redoes
EndRedoes
EndUndoRedoHistory
Fore
SplineSet
42 1218 m 1
 55 1378 155 1454 326 1454 c 0
 492 1454 593 1372 606 1218 c 1
 520 1218 l 1
 500 1302 421 1347 319 1347 c 0
 217 1347 144 1306 129 1218 c 1
 42 1218 l 1
EndSplineSet
EndChar

StartChar: uni0326
Encoding: 806 806 379
Width: 10
VWidth: 0
GlyphClass: 2
Flags: HW
HStem: -625 463<-452 -158 -345 -321>
VStem: -452 294
LayerCount: 2
UndoRedoHistory
Layer: 0
Undoes
EndUndoes
Redoes
EndRedoes
EndUndoRedoHistory
UndoRedoHistory
Layer: 1
Undoes
EndUndoes
Redoes
EndRedoes
EndUndoRedoHistory
Fore
SplineSet
-452 -625 m 1
 -345 -162 l 1
 -158 -162 l 1
 -321 -625 l 1
 -452 -625 l 1
EndSplineSet
EndChar

StartChar: uni03A9
Encoding: 937 937 380
Width: 1572
VWidth: 0
GlyphClass: 2
Flags: HW
HStem: 0 138<103 641> 1309 140<696 834>
VStem: 124 179<741.5 799.5 645 885> 1273 178<720.5 876 696.5 879>
LayerCount: 2
UndoRedoHistory
Layer: 0
Undoes
EndUndoes
Redoes
EndRedoes
EndUndoRedoHistory
UndoRedoHistory
Layer: 1
Undoes
EndUndoes
Redoes
EndRedoes
EndUndoRedoHistory
Fore
SplineSet
114 0 m 1
 641 0 l 1
 638 121 l 1
 588 155 543 195 502 240 c 0
 393 361 303 531 303 759 c 0
 303 840 315 914 339 982 c 0
 405 1168 555 1309 794 1309 c 0
 874 1309 943 1294 1003 1264 c 0
 1168 1181 1273 1004 1273 754 c 0
 1273 687 1264 622 1247 560 c 0
 1194 367 1077 221 933 121 c 1
 937 0 l 1
 1444 0 l 1
 1453 138 l 1
 1131 137 l 1
 1215 206 1293 296 1351 398 c 0
 1407 498 1451 621 1451 772 c 0
 1451 980 1376 1143 1270 1254 c 1
 1165 1368 1006 1449 798 1449 c 0
 594 1449 430 1374 321 1266 c 1
 206 1157 124 994 124 776 c 0
 124 707 132 640 148 578 c 0
 196 385 305 240 439 137 c 1
 103 138 l 1
 114 0 l 1
EndSplineSet
EndChar

StartChar: uni03BC
Encoding: 956 956 381
Width: 1227
VWidth: 0
GlyphClass: 2
Flags: HW
HStem: -23 132<504.5 624> 0 21<891 1061 1061 1061> 1006 20<167 332 167 167 888 1053 888 888>
VStem: 167 165<-202 31 -202 31 399 1026> 888 165<135 1026 414 436 436 1026>
LayerCount: 2
UndoRedoHistory
Layer: 0
Undoes
EndUndoes
Redoes
EndRedoes
EndUndoRedoHistory
UndoRedoHistory
Layer: 1
Undoes
EndUndoes
Redoes
EndRedoes
EndUndoRedoHistory
Fore
SplineSet
167 -202 m 1
 332 -202 l 1
 332 31 l 1
 389 -3 459 -23 550 -23 c 0
 698 -23 811 30 888 135 c 1
 891 0 l 1
 1061 0 l 1
 1054 84 1053 156 1053 246 c 2
 1053 1026 l 1
 888 1026 l 1
 888 436 l 2
 888 392 881 350 868 310 c 0
 830 196 739 109 588 109 c 0
 406 109 332 214 332 399 c 2
 332 1026 l 1
 167 1026 l 1
 167 -202 l 1
EndSplineSet
EndChar

StartChar: uni2074
Encoding: 8308 8308 396
Width: 907
VWidth: 0
GlyphClass: 2
Flags: HW
HStem: 803 107<127 366 127 366 488 597>
VStem: 366 122<615 1412 803 1412 910 1244 1244 1244>
LayerCount: 2
UndoRedoHistory
Layer: 0
Undoes
EndUndoes
Redoes
EndRedoes
EndUndoRedoHistory
UndoRedoHistory
Layer: 1
Undoes
EndUndoes
Redoes
EndRedoes
EndUndoRedoHistory
Fore
SplineSet
366 615 m 1
 366 803 l 1
 -12 803 l 1
 -12 894 l 1
 354 1412 l 1
 488 1412 l 1
 488 910 l 1
 597 910 l 1
 607 803 l 1
 486 803 l 1
 486 615 l 1
 366 615 l 1
127 910 m 1
 366 910 l 1
 366 1244 l 1
 127 910 l 1
EndSplineSet
EndChar

StartChar: uniF6C3
Encoding: 63171 63171 397
Width: 609
VWidth: 0
GlyphClass: 2
Flags: HW
HStem: -603 463<227 251 251 251>
VStem: 120 294
LayerCount: 2
UndoRedoHistory
Layer: 0
Undoes
EndUndoes
Redoes
EndRedoes
EndUndoRedoHistory
UndoRedoHistory
Layer: 1
Undoes
EndUndoes
Redoes
EndRedoes
EndUndoRedoHistory
Fore
SplineSet
120 -603 m 1
 251 -603 l 1
 414 -140 l 1
 227 -140 l 1
 120 -603 l 1
EndSplineSet
EndChar

StartChar: uniFB01
Encoding: 64257 64257 398
Width: 1196
VWidth: 0
GlyphClass: 2
Flags: HW
HStem: 0 21<256 421 421 421 861 1026 1026 1026> 919 107<55 256 55 256 421 861 861 861> 1307 155<869 1022 869 1022> 1379 135<512 576.5 441 595>
VStem: 256 165<0 919 0 919 0 1026> 861 165<0 919 0 1026>
LayerCount: 2
UndoRedoHistory
Layer: 0
Undoes
EndUndoes
Redoes
EndRedoes
EndUndoRedoHistory
UndoRedoHistory
Layer: 1
Undoes
EndUndoes
Redoes
EndRedoes
EndUndoRedoHistory
Fore
SplineSet
256 0 m 1
 421 0 l 1
 421 919 l 1
 861 919 l 1
 861 0 l 1
 1026 0 l 1
 1026 1026 l 1
 421 1026 l 1
 422 1162 l 2
 422 1297 447 1379 577 1379 c 0
 613 1379 657 1374 682 1364 c 1
 680 1493 l 1
 638 1503 603 1514 550 1514 c 0
 332 1514 261 1358 258 1138 c 2
 256 1026 l 1
 55 1026 l 1
 55 919 l 1
 256 919 l 1
 256 0 l 1
869 1307 m 1
 1022 1307 l 1
 1022 1462 l 1
 869 1462 l 1
 869 1307 l 1
EndSplineSet
EndChar

StartChar: uniFB02
Encoding: 64258 64258 399
Width: 1366
VWidth: 0
GlyphClass: 2
Flags: HW
HStem: -449 121<80 101> 919 107<61 263 61 263 422 660> 1409 123<527 567 444 600.5>
VStem: 263 159<-34 -11 -11 919 1026 1170 1170 1193> 854 164<188 1496>
LayerCount: 2
UndoRedoHistory
Layer: 0
Undoes
EndUndoes
Redoes
EndRedoes
EndUndoRedoHistory
UndoRedoHistory
Layer: 1
Undoes
EndUndoes
Redoes
EndRedoes
EndUndoRedoHistory
Fore
SplineSet
101 -449 m 1
 80 -328 l 1
 200 -299 263 -194 263 -34 c 2
 263 919 l 1
 61 919 l 1
 61 1026 l 1
 263 1026 l 1
 263 1170 l 2
 263 1423 347 1532 541 1532 c 0
 593 1532 651 1521 712 1499 c 1
 689 1392 l 1
 653 1401 618 1409 583 1409 c 0
 471 1409 422 1344 422 1193 c 2
 422 1026 l 1
 660 1026 l 1
 660 919 l 1
 422 919 l 1
 422 -11 l 2
 422 -261 339 -418 101 -449 c 1
1400 35 m 1
 1131 -82 854 -9 854 300 c 2
 854 1496 l 1
 1012 1526 l 1
 1018 292 l 1
 1018 84 1200 77 1376 152 c 1
 1400 35 l 1
EndSplineSet
EndChar

StartChar: v
Encoding: 118 118 403
Width: 1050
VWidth: 0
GlyphClass: 2
Flags: W
HStem: 0 21G<434.774 619.148> 1006 20G<21 210.942 844.435 1029>
LayerCount: 2
UndoRedoHistory
Layer: 0
Undoes
EndUndoes
Redoes
EndRedoes
EndUndoRedoHistory
UndoRedoHistory
Layer: 1
Undoes
EndUndoes
Redoes
EndRedoes
EndUndoRedoHistory
Fore
SplineSet
443 0 m 1
 21 1026 l 1
 203 1026 l 1
 477 336 l 2
 496 290 519 217 535 163 c 1
 566 264 579 309 591 336 c 1
 852 1026 l 1
 1029 1026 l 1
 611 0 l 1
 443 0 l 1
EndSplineSet
EndChar

StartChar: w
Encoding: 119 119 404
Width: 1667
VWidth: 0
GlyphClass: 2
Flags: W
AnchorPoint: "top" 848 1024 basechar 0
AnchorPoint: "bottom" 845 0 basechar 0
LayerCount: 2
UndoRedoHistory
Layer: 0
Undoes
EndUndoes
Redoes
EndRedoes
EndUndoRedoHistory
UndoRedoHistory
Layer: 1
Undoes
EndUndoes
Redoes
EndRedoes
EndUndoRedoHistory
Fore
SplineSet
392 0 m 1
 554 0 l 1
 842 831 l 1
 1112 0 l 1
 1272 0 l 1
 1640 1026 l 1
 1471 1026 l 1
 1231 287 l 1
 1219 255 1210 219 1197 189 c 1
 1187 219 1178 258 1168 286 c 2
 927 1026 l 1
 768 1026 l 1
 512 276 l 1
 500 249 491 214 481 186 c 1
 471 217 462 255 452 284 c 2
 203 1026 l 1
 27 1026 l 1
 392 0 l 1
EndSplineSet
EndChar

StartChar: x
Encoding: 120 120 409
Width: 1065
VWidth: 0
GlyphClass: 2
Flags: W
HStem: 0 21G<49 253.314 801.078 1016> 1006 20G<68 283.8 810.1 1003>
LayerCount: 2
UndoRedoHistory
Layer: 0
Undoes
EndUndoes
Redoes
EndRedoes
EndUndoRedoHistory
UndoRedoHistory
Layer: 1
Undoes
EndUndoes
Redoes
EndRedoes
EndUndoRedoHistory
Fore
SplineSet
49 0 m 1
 441 514 l 1
 68 1026 l 1
 270 1026 l 1
 546 626 l 1
 824 1026 l 1
 1003 1026 l 1
 633 518 l 1
 1016 0 l 1
 815 0 l 1
 531 408 l 1
 239 0 l 1
 49 0 l 1
EndSplineSet
EndChar

StartChar: y
Encoding: 121 121 410
Width: 1210
VWidth: 0
GlyphClass: 2
Flags: HW
HStem: -494 137<516.5 651.5 508.5 708.5> -22 136<535 662> 1006 20<301 301 886 1050 886 886>
VStem: 171 165 858 164
AnchorPoint: "top" 554 1024 basechar 0
LayerCount: 2
UndoRedoHistory
Layer: 0
Undoes
EndUndoes
Redoes
EndRedoes
EndUndoRedoHistory
UndoRedoHistory
Layer: 1
Undoes
EndUndoes
Redoes
EndRedoes
EndUndoRedoHistory
Fore
SplineSet
565 -494 m 0
 852 -494 1050 -306 1050 -23 c 2
 1050 1026 l 1
 886 1026 l 1
 886 427 l 2
 886 230 751 114 593 114 c 0
 477 114 349 167 354 365 c 2
 360 595 l 2
 369 941 301 1026 301 1026 c 1
 136 1000 l 1
 136 1000 204 901 195 582 c 2
 189 365 l 2
 181 80 383 -22 569 -22 c 0
 755 -22 871 73 946 198 c 1
 886 219 l 1
 886 -44 l 2
 886 -232 752 -357 551 -357 c 0
 466 -357 348 -326 256 -280 c 1
 237 -433 l 1
 338 -470 468 -494 565 -494 c 0
EndSplineSet
EndChar

StartChar: yen
Encoding: 165 165 414
Width: 1245
VWidth: 0
GlyphClass: 2
Flags: HW
HStem: 0 21<536 536 536 708> 283 140<157 536 157 536 708 708 708 1082> 574 142<151 457 151 536 151 457 779 1079> 1436 20<14 205 205 205 1041 1232 1232 1232>
VStem: 536 172<0 283 0 283 0 574>
LayerCount: 2
UndoRedoHistory
Layer: 0
Undoes
EndUndoes
Redoes
EndRedoes
EndUndoRedoHistory
UndoRedoHistory
Layer: 1
Undoes
EndUndoes
Redoes
EndRedoes
EndUndoRedoHistory
Fore
SplineSet
536 0 m 1
 536 283 l 1
 157 283 l 1
 157 423 l 1
 536 423 l 1
 536 574 l 1
 151 574 l 1
 151 716 l 1
 457 716 l 1
 14 1456 l 1
 205 1456 l 1
 621 727 l 1
 1041 1456 l 1
 1232 1456 l 1
 779 716 l 1
 1079 716 l 1
 1079 574 l 1
 701 574 l 1
 701 423 l 1
 1082 423 l 1
 1089 283 l 1
 708 283 l 1
 708 0 l 1
 536 0 l 1
EndSplineSet
EndChar

StartChar: z
Encoding: 122 122 416
Width: 978
VWidth: 0
GlyphClass: 2
Flags: HW
HStem: 0 134<315 916 315 916> 891 135<116 676 116 899>
AnchorPoint: "top" 516 1024 basechar 0
AnchorPoint: "bottom" 565 0 basechar 0
LayerCount: 2
UndoRedoHistory
Layer: 0
Undoes
EndUndoes
Redoes
EndRedoes
EndUndoRedoHistory
UndoRedoHistory
Layer: 1
Undoes
EndUndoes
Redoes
EndRedoes
EndUndoRedoHistory
Fore
SplineSet
90 0 m 1
 90 89 l 1
 676 891 l 1
 116 891 l 1
 116 1026 l 1
 899 1026 l 1
 899 939 l 1
 315 134 l 1
 916 134 l 1
 916 0 l 1
 90 0 l 1
EndSplineSet
EndChar

StartChar: zero
Encoding: 48 48 420
Width: 1233
VWidth: 0
GlyphClass: 2
Flags: HW
HStem: -25 152<485.5 747.5 485.5 800> 1331 152<494.5 758>
VStem: 126 184<582.5 863 582.5 922.5> 933 184<591 869>
LayerCount: 2
UndoRedoHistory
Layer: 0
Undoes
EndUndoes
Redoes
EndRedoes
EndUndoRedoHistory
UndoRedoHistory
Layer: 1
Undoes
EndUndoes
Redoes
EndRedoes
EndUndoRedoHistory
Fore
SplineSet
622 127 m 0
 873 127 933 456 933 726 c 0
 933 1012 894 1331 622 1331 c 0
 367 1331 310 1000 310 726 c 0
 310 439 349 127 622 127 c 0
617 -25 m 0
 242 -25 126 335 126 726 c 0
 126 1119 250 1483 622 1483 c 0
 1014 1483 1117 1133 1117 726 c 0
 1117 341 983 -25 617 -25 c 0
EndSplineSet
EndChar
